SplineFontDB: 3.0
FontName: MountainsofChristmas-Bold
FullName: Mountains of Christmas Bold
FamilyName: Mountains of Christmas
Weight: Bold
Copyright: Copyright (c) 2010 2011, Font Diner, Inc DBA Tart Workshop (diner@fontdiner.com) with Reserved Font Name "Mountains of Christmas"
Version: 1.002
ItalicAngle: 0
UnderlinePosition: -116
UnderlineWidth: 20
Ascent: 819
Descent: 205
sfntRevision: 0x00010083
LayerCount: 2
Layer: 0 1 "Back"  1
Layer: 1 1 "Fore"  0
XUID: [1021 288 713564382 181027]
FSType: 0
OS2Version: 3
OS2_WeightWidthSlopeOnly: 0
OS2_UseTypoMetrics: 1
CreationTime: 1321484340
ModificationTime: 1321993452
PfmFamily: 65
TTFWeight: 700
TTFWidth: 5
LineGap: 0
VLineGap: 0
Panose: 3 0 5 0 5 6 0 10 0 4
OS2TypoAscent: 247
OS2TypoAOffset: 1
OS2TypoDescent: -149
OS2TypoDOffset: 1
OS2TypoLinegap: 0
OS2WinAscent: 8
OS2WinAOffset: 1
OS2WinDescent: 0
OS2WinDOffset: 1
HheadAscent: 8
HheadAOffset: 1
HheadDescent: 0
HheadDOffset: 1
OS2SubXSize: 717
OS2SubYSize: 666
OS2SubXOff: 0
OS2SubYOff: 143
OS2SupXSize: 717
OS2SupYSize: 666
OS2SupXOff: 0
OS2SupYOff: 488
OS2StrikeYSize: 51
OS2StrikeYPos: 256
OS2Vendor: 'dinr'
OS2CodePages: 00000001.00000000
OS2UnicodeRanges: 80000027.4000004a.00000000.00000000
Lookup: 258 0 0 "'kern' Horizontal Kerning in Latin lookup 0"  {"'kern' Horizontal Kerning in Latin lookup 0 subtable"  } ['kern' ('DFLT' <'dflt' > 'latn' <'dflt' > ) ]
MarkAttachClasses: 1
DEI: 91125
TtTable: prep
PUSHW_1
 511
SCANCTRL
PUSHB_1
 4
SCANTYPE
EndTTInstrs

StartChar: exclam
Encoding: 33 33 4
Width: 244
Flags: HW
LayerCount: 2
Fore
SplineSet
102 695 m 1,0,-1
 128 701 l 1,1,2
 136 700 136 700 142.5 696.5 c 128,-1,3
 149 693 149 693 155 691 c 1,4,5
 159 683 159 683 161 675 c 128,-1,6
 163 667 163 667 166 660 c 2,7,-1
 170 650 l 2,8,9
 176 637 176 637 176 632.5 c 128,-1,10
 176 628 176 628 180 619.5 c 128,-1,11
 184 611 184 611 182.5 605.5 c 128,-1,12
 181 600 181 600 186 595 c 1,13,14
 181 590 181 590 183.5 580 c 128,-1,15
 186 570 186 570 180 564 c 1,16,17
 185 558 185 558 184.5 546 c 128,-1,18
 184 534 184 534 189 529 c 1,19,20
 186 517 186 517 188.5 501 c 128,-1,21
 191 485 191 485 184 476 c 1,22,23
 190 441 190 441 178 422 c 0,24,25
 174 416 174 416 169 413.5 c 128,-1,26
 164 411 164 411 162 404 c 128,-1,27
 160 397 160 397 162 392 c 128,-1,28
 164 387 164 387 166 380 c 1,29,30
 159 370 159 370 161 357.5 c 128,-1,31
 163 345 163 345 161 336 c 128,-1,32
 159 327 159 327 156 321 c 128,-1,33
 153 315 153 315 151.5 310 c 128,-1,34
 150 305 150 305 151 299.5 c 128,-1,35
 152 294 152 294 152 289 c 1,36,37
 146 270 146 270 146 264 c 128,-1,38
 146 258 146 258 141 253 c 1,39,40
 141 245 141 245 141.5 238.5 c 128,-1,41
 142 232 142 232 141 225 c 128,-1,42
 140 218 140 218 137.5 211.5 c 128,-1,43
 135 205 135 205 133 199 c 1,44,45
 126 198 126 198 122.5 192.5 c 128,-1,46
 119 187 119 187 111 188 c 1,47,48
 106 197 106 197 104.5 197.5 c 128,-1,49
 103 198 103 198 101.5 199.5 c 128,-1,50
 100 201 100 201 97 203 c 128,-1,51
 94 205 94 205 90.5 211 c 0,52,53
 87 217 87 217 87 241.5 c 128,-1,54
 87 266 87 266 86.5 272.5 c 128,-1,55
 86 279 86 279 89 283 c 1,56,57
 84 294 84 294 84 310.5 c 128,-1,58
 84 327 84 327 78 345 c 1,59,60
 78 350 78 350 78.5 355.5 c 128,-1,61
 79 361 79 361 78 368 c 128,-1,62
 77 375 77 375 75.5 383.5 c 128,-1,63
 74 392 74 392 78 401 c 1,64,65
 73 417 73 417 74 433.5 c 128,-1,66
 75 450 75 450 74.5 455 c 128,-1,67
 74 460 74 460 78 463 c 1,68,69
 78 466 78 466 76 468 c 128,-1,70
 74 470 74 470 72.5 474.5 c 128,-1,71
 71 479 71 479 72 485 c 128,-1,72
 73 491 73 491 68.5 504 c 0,73,74
 64 517 64 517 71 541 c 1,75,76
 68 550 68 550 68 552 c 2,77,-1
 69 566 l 1,78,-1
 66 582 l 1,79,80
 66 607 66 607 74.5 641.5 c 128,-1,81
 83 676 83 676 92 693 c 1,82,83
 97 695 97 695 102 695 c 1,0,-1
97 119 m 1,84,85
 99 124 99 124 107 124 c 1,86,87
 119 129 119 129 147 119 c 1,88,89
 147 108 147 108 152.5 104 c 128,-1,90
 158 100 158 100 159 91 c 1,91,92
 178 72 178 72 174 50 c 1,93,-1
 174 44 l 2,94,95
 174 40 174 40 173 38 c 1,96,97
 166 33 166 33 166.5 31.5 c 128,-1,98
 167 30 167 30 165.5 28.5 c 128,-1,99
 164 27 164 27 160 25.5 c 128,-1,100
 156 24 156 24 147.5 15.5 c 0,101,102
 139 7 139 7 130.5 9 c 128,-1,103
 122 11 122 11 114 11 c 1,104,105
 106 21 106 21 90 25 c 1,106,107
 87 30 87 30 85 36 c 128,-1,108
 83 42 83 42 78 46 c 1,109,110
 80 54 80 54 78.5 58.5 c 128,-1,111
 77 63 77 63 75 70 c 1,112,113
 74 94 74 94 85 113 c 0,114,115
 87 115 87 115 90.5 115.5 c 128,-1,116
 94 116 94 116 97 119 c 1,84,85
EndSplineSet
EndChar

StartChar: quotedbl
Encoding: 34 34 5
Width: 295
Flags: HW
LayerCount: 2
Fore
SplineSet
114 667 m 1,0,-1
 114 637 l 1,1,-1
 115 624 l 2,2,3
 115 619 115 619 113.5 615.5 c 128,-1,4
 112 612 112 612 111 603 c 128,-1,5
 110 594 110 594 109.5 590 c 128,-1,6
 109 586 109 586 112 574 c 128,-1,7
 115 562 115 562 111.5 556 c 0,8,9
 106 546.571428571 106 546.571428571 106 532.285714286 c 128,-1,10
 106 518 106 518 100 506 c 1,11,12
 86 497 86 497 73.5 505 c 128,-1,13
 61 513 61 513 58 519 c 128,-1,14
 55 525 55 525 50 537 c 1,15,16
 52 553 52 553 52 570.5 c 128,-1,17
 52 588 52 588 47 605 c 1,18,19
 50 608 50 608 50 614 c 2,20,-1
 50 624 l 1,21,-1
 49 665 l 1,22,-1
 51 677 l 1,23,-1
 49 695 l 1,24,25
 49 712 49 712 53 721 c 128,-1,26
 57 730 57 730 56 735 c 1,27,28
 59 740 59 740 64.5 742.5 c 128,-1,29
 70 745 70 745 75 750 c 0,30,31
 77 751 77 751 86 744 c 1,32,33
 95 739 95 739 102 727 c 1,34,35
 106 715 106 715 107 715 c 0,36,37
 111 715 111 715 111 697 c 1,38,39
 109 682 109 682 114 667 c 1,0,-1
248 637 m 1,40,-1
 248 624 l 2,41,42
 248 619 248 619 247 615.5 c 128,-1,43
 246 612 246 612 245 603 c 128,-1,44
 244 594 244 594 243.5 590 c 128,-1,45
 243 586 243 586 245.5 574 c 128,-1,46
 248 562 248 562 244.5 556 c 0,47,48
 239 546.571428571 239 546.571428571 239 532.285714286 c 128,-1,49
 239 518 239 518 233 506 c 1,50,51
 220 498 220 498 206 506.5 c 128,-1,52
 192 515 192 515 183 537 c 1,53,54
 185 553 185 553 185 570.5 c 128,-1,55
 185 588 185 588 180 605 c 1,56,57
 183 608 183 608 183 614 c 2,58,-1
 183 624 l 1,59,-1
 182 665 l 1,60,-1
 184 677 l 1,61,-1
 182 695 l 1,62,63
 182 712 182 712 186 721 c 128,-1,64
 190 730 190 730 189 735 c 1,65,66
 192 740 192 740 197.5 742.5 c 128,-1,67
 203 745 203 745 208 750 c 0,68,69
 210 751 210 751 219 744 c 1,70,71
 228 739 228 739 235 727 c 1,72,73
 239 715 239 715 240 715 c 0,74,75
 245 715 245 715 245 697 c 1,76,77
 243 683 243 683 244.5 678 c 128,-1,78
 246 673 246 673 246.5 667 c 128,-1,79
 247 661 247 661 247 655.5 c 128,-1,80
 247 650 247 650 248 637 c 1,40,-1
EndSplineSet
EndChar

StartChar: numbersign
Encoding: 35 35 6
Width: 609
Flags: HW
LayerCount: 2
Fore
SplineSet
287 300 m 2,0,-1
 311 302 l 1,1,2
 317 304 317 304 323.5 303 c 128,-1,3
 330 302 330 302 336 302 c 1,4,5
 341 314 341 314 341 318.5 c 128,-1,6
 341 323 341 323 343.5 328.5 c 128,-1,7
 346 334 346 334 349.5 347.5 c 128,-1,8
 353 361 353 361 362.5 383 c 128,-1,9
 372 405 372 405 375 432 c 1,10,11
 380 437 380 437 381.5 444 c 128,-1,12
 383 451 383 451 385 458 c 1,13,14
 349 452 349 452 336 455 c 128,-1,15
 323 458 323 458 322.5 459.5 c 128,-1,16
 322 461 322 461 308.5 460 c 128,-1,17
 295 459 295 459 283 466 c 1,18,19
 273 463 273 463 258 454 c 1,20,21
 251 446 251 446 252 438.5 c 128,-1,22
 253 431 253 431 251.5 423 c 128,-1,23
 250 415 250 415 246 409.5 c 128,-1,24
 242 404 242 404 244 396 c 1,25,26
 234 386 234 386 232.5 369 c 128,-1,27
 231 352 231 352 227.5 349.5 c 128,-1,28
 224 347 224 347 221 340.5 c 128,-1,29
 218 334 218 334 217 329 c 128,-1,30
 216 324 216 324 214 319.5 c 128,-1,31
 212 315 212 315 212 299 c 1,32,-1
 230 300 l 1,33,-1
 247 298 l 1,34,-1
 264 301 l 2,35,36
 270 302 270 302 275.5 301 c 128,-1,37
 281 300 281 300 287 300 c 2,0,-1
521 521 m 1,38,-1
 564 518 l 1,39,40
 582 510 582 510 577 487 c 0,41,42
 576 484 576 484 572 480 c 128,-1,43
 568 476 568 476 566 473 c 128,-1,44
 564 470 564 470 559 466 c 0,45,46
 541 452 541 452 523.5 456 c 128,-1,47
 506 460 506 460 499 459.5 c 128,-1,48
 492 459 492 459 481.5 458 c 128,-1,49
 471 457 471 457 462 461 c 1,50,51
 457 461 457 461 451 458 c 1,52,53
 446 424 446 424 426 383 c 1,54,55
 424 376 424 376 421.5 371 c 128,-1,56
 419 366 419 366 417.5 360 c 128,-1,57
 416 354 416 354 417 351.5 c 128,-1,58
 418 349 418 349 419 346 c 1,59,60
 416 342 416 342 415 337.5 c 128,-1,61
 414 333 414 333 412 328.5 c 128,-1,62
 410 324 410 324 408 320.5 c 128,-1,63
 406 317 406 317 404 313 c 1,64,65
 413 311 413 311 424 313 c 128,-1,66
 435 315 435 315 448.5 316.5 c 128,-1,67
 462 318 462 318 474.5 319 c 128,-1,68
 487 320 487 320 498 327 c 1,69,70
 508 326 508 326 518 325 c 128,-1,71
 528 324 528 324 538 322 c 1,72,73
 540 316 540 316 547 312 c 128,-1,74
 554 308 554 308 555 302.5 c 128,-1,75
 556 297 556 297 553.5 294 c 128,-1,76
 551 291 551 291 549 286 c 1,77,78
 540 285 540 285 531 281.5 c 128,-1,79
 522 278 522 278 513 276.5 c 128,-1,80
 504 275 504 275 496.5 277.5 c 128,-1,81
 489 280 489 280 472.5 279 c 128,-1,82
 456 278 456 278 448.5 274 c 128,-1,83
 441 270 441 270 435 268.5 c 128,-1,84
 429 267 429 267 419 266.5 c 0,85,86
 404.428571429 265.771428571 404.428571429 265.771428571 390 260 c 1,87,88
 375 211 375 211 379 189 c 1,89,-1
 355 138 l 1,90,91
 358 131 358 131 361 127 c 128,-1,92
 364 123 364 123 363.5 117 c 128,-1,93
 363 111 363 111 359.5 108.5 c 128,-1,94
 356 106 356 106 351.5 102 c 128,-1,95
 347 98 347 98 344 94.5 c 128,-1,96
 341 91 341 91 336 89.5 c 128,-1,97
 331 88 331 88 324.5 90.5 c 128,-1,98
 318 93 318 93 312 91 c 1,99,-1
 295 106 l 1,100,-1
 295 123 l 1,101,102
 293 128 293 128 290 130 c 128,-1,103
 287 132 287 132 286 137 c 1,104,105
 287 142 287 142 288 148 c 128,-1,106
 289 154 289 154 292 156 c 1,107,108
 294 164 294 164 295 170.5 c 128,-1,109
 296 177 296 177 298 184.5 c 128,-1,110
 300 192 300 192 302.5 198.5 c 128,-1,111
 305 205 305 205 306 210.5 c 128,-1,112
 307 216 307 216 306.5 221 c 128,-1,113
 306 226 306 226 308.5 234.5 c 128,-1,114
 311 243 311 243 311 246.5 c 128,-1,115
 311 250 311 250 312 252 c 1,116,117
 295 255 295 255 287 252 c 128,-1,118
 279 249 279 249 266 252 c 128,-1,119
 253 255 253 255 238 258 c 1,120,121
 222 247 222 247 196 249 c 1,122,-1
 165 175 l 1,123,124
 169 164 169 164 167 164 c 128,-1,125
 165 164 165 164 165 161 c 128,-1,126
 165 158 165 158 166.5 153.5 c 128,-1,127
 168 149 168 149 167.5 142.5 c 128,-1,128
 167 136 167 136 163.5 135.5 c 128,-1,129
 160 135 160 135 159 130 c 256,130,131
 158 125 158 125 155.5 123.5 c 128,-1,132
 153 122 153 122 152 117 c 1,133,134
 149 115 149 115 143 115.5 c 128,-1,135
 137 116 137 116 134 113 c 128,-1,136
 131 110 131 110 126.5 111 c 128,-1,137
 122 112 122 112 115.5 117 c 128,-1,138
 109 122 109 122 107 128 c 1,139,140
 109 137 109 137 107.5 144.5 c 128,-1,141
 106 152 106 152 108 155.5 c 128,-1,142
 110 159 110 159 109 162.5 c 128,-1,143
 108 166 108 166 109.5 170.5 c 128,-1,144
 111 175 111 175 113 178.5 c 128,-1,145
 115 182 115 182 116 185.5 c 128,-1,146
 117 189 117 189 116 193 c 128,-1,147
 115 197 115 197 116 200.5 c 128,-1,148
 117 204 117 204 119 206.5 c 128,-1,149
 121 209 121 209 122.5 214 c 128,-1,150
 124 219 124 219 124.5 226 c 128,-1,151
 125 233 125 233 127 241 c 1,152,153
 129 243 129 243 130.5 245.5 c 128,-1,154
 132 248 132 248 134 251 c 1,155,156
 121 250 121 250 116.5 251 c 128,-1,157
 112 252 112 252 106 250.5 c 128,-1,158
 100 249 100 249 93 245 c 128,-1,159
 86 241 86 241 75 240.5 c 128,-1,160
 64 240 64 240 57 244 c 128,-1,161
 50 248 50 248 43 250 c 1,162,163
 41 258 41 258 37 263 c 128,-1,164
 33 268 33 268 33 278 c 1,165,166
 38 282 38 282 44 283 c 128,-1,167
 50 284 50 284 57.5 285.5 c 128,-1,168
 65 287 65 287 71.5 286 c 128,-1,169
 78 285 78 285 83.5 286 c 128,-1,170
 89 287 89 287 92 288.5 c 128,-1,171
 95 290 95 290 101 291.5 c 128,-1,172
 107 293 107 293 113 292.5 c 128,-1,173
 119 292 119 292 127 292 c 1,174,175
 137 296 137 296 146 294 c 1,176,177
 148 306 148 306 147 312 c 1,178,179
 161 354 161 354 163 358 c 1,180,181
 163 363 163 363 162 366 c 0,182,183
 160.111111111 371.666666667 160.111111111 371.666666667 165.555555556 379.833333333 c 128,-1,184
 171 388 171 388 171.5 398.5 c 128,-1,185
 172 409 172 409 173 417 c 1,186,187
 178 431 178 431 179 437 c 128,-1,188
 180 443 180 443 182 449 c 1,189,-1
 164 449 l 2,190,191
 157 449 157 449 148 445.5 c 128,-1,192
 139 442 139 442 130 447.5 c 128,-1,193
 121 453 121 453 113 455 c 1,194,195
 106 453 106 453 103.5 448.5 c 128,-1,196
 101 444 101 444 87 442.5 c 128,-1,197
 73 441 73 441 60.5 450 c 128,-1,198
 48 459 48 459 50 473 c 1,199,200
 52 478 52 478 57.5 481 c 128,-1,201
 63 484 63 484 65 489 c 1,202,203
 73 491 73 491 79.5 490.5 c 128,-1,204
 86 490 86 490 94 492 c 128,-1,205
 102 494 102 494 109 498 c 128,-1,206
 116 502 116 502 124 504 c 1,207,208
 134 504 134 504 137 502.5 c 128,-1,209
 140 501 140 501 145 500 c 1,210,-1
 172 500 l 1,211,212
 177 501 177 501 183.5 501.5 c 128,-1,213
 190 502 190 502 196 503 c 1,214,215
 197 519 197 519 200.5 529 c 128,-1,216
 204 539 204 539 205 546.5 c 128,-1,217
 206 554 206 554 208 560 c 128,-1,218
 210 566 210 566 211 572.5 c 128,-1,219
 212 579 212 579 216 584 c 1,220,221
 214 597 214 597 220 604 c 128,-1,222
 226 611 226 611 229 619 c 128,-1,223
 232 627 232 627 231.5 634 c 128,-1,224
 231 641 231 641 233 646 c 0,225,226
 236 651 236 651 238 658 c 128,-1,227
 240 665 240 665 243.5 670 c 128,-1,228
 247 675 247 675 251 682 c 1,229,230
 269 687 269 687 280 686 c 1,231,232
 304 660 304 660 295 627 c 1,233,234
 296 623 296 623 293.5 621 c 128,-1,235
 291 619 291 619 289 617 c 1,236,237
 293 608 293 608 289 596.5 c 128,-1,238
 285 585 285 585 290 579 c 1,239,240
 288 571 288 571 285 566.5 c 128,-1,241
 282 562 282 562 284 552 c 1,242,243
 279 550 279 550 277.5 546 c 128,-1,244
 276 542 276 542 274 538 c 128,-1,245
 272 534 272 534 274 532 c 128,-1,246
 276 530 276 530 275 525.5 c 128,-1,247
 274 521 274 521 273 516 c 128,-1,248
 272 511 272 511 270 506 c 1,249,250
 279 506 279 506 283 507 c 2,251,-1
 298 509 l 2,252,253
 303 510 303 510 308 508.5 c 128,-1,254
 313 507 313 507 319 507 c 1,255,-1
 333 510 l 1,256,-1
 374 509 l 1,257,-1
 402 514 l 1,258,-1
 402 520 l 2,259,260
 402 526 402 526 408 539 c 128,-1,261
 414 552 414 552 417.5 568 c 128,-1,262
 421 584 421 584 425.5 598 c 128,-1,263
 430 612 430 612 429.5 619 c 128,-1,264
 429 626 429 626 431.5 629 c 128,-1,265
 434 632 434 632 436 639.5 c 128,-1,266
 438 647 438 647 438.5 658 c 128,-1,267
 439 669 439 669 443 677 c 128,-1,268
 447 685 447 685 446.5 686.5 c 128,-1,269
 446 688 446 688 449 691 c 128,-1,270
 452 694 452 694 452.5 696.5 c 128,-1,271
 453 699 453 699 459.5 702 c 128,-1,272
 466 705 466 705 470.5 702.5 c 128,-1,273
 475 700 475 700 480 702 c 1,274,275
 494 694 494 694 495 680.5 c 128,-1,276
 496 667 496 667 495 654.5 c 128,-1,277
 494 642 494 642 494 639 c 2,278,-1
 496 628 l 1,279,280
 493 623 493 623 493 615 c 1,281,-1
 488 604 l 1,282,283
 490 595 490 595 487 589 c 128,-1,284
 484 583 484 583 480.5 575.5 c 128,-1,285
 477 568 477 568 475.5 556.5 c 128,-1,286
 474 545 474 545 472 536 c 128,-1,287
 470 527 470 527 469.5 523.5 c 128,-1,288
 469 520 469 520 467 516 c 1,289,-1
 521 521 l 1,38,-1
EndSplineSet
EndChar

StartChar: dollar
Encoding: 36 36 7
Width: 381
Flags: HW
LayerCount: 2
Fore
SplineSet
165 730 m 1,0,1
 167 732 167 732 180.5 732 c 128,-1,2
 194 732 194 732 194 735 c 1,3,4
 202 734 202 734 202.5 729.5 c 128,-1,5
 203 725 203 725 209 723 c 1,6,7
 212 703 212 703 211 689.5 c 128,-1,8
 210 676 210 676 212 662 c 0,9,10
 214 653 214 653 238 653 c 1,11,12
 248 648 248 648 253 646.5 c 128,-1,13
 258 645 258 645 265 642 c 128,-1,14
 272 639 272 639 274.5 637 c 128,-1,15
 277 635 277 635 281 633 c 1,16,17
 291 624 291 624 297 618 c 128,-1,18
 303 612 303 612 306.5 609 c 128,-1,19
 310 606 310 606 312.5 599 c 128,-1,20
 315 592 315 592 320 589 c 1,21,22
 317 582 317 582 322.5 576.5 c 128,-1,23
 328 571 328 571 329 560.5 c 128,-1,24
 330 550 330 550 323 529 c 128,-1,25
 316 508 316 508 303 506 c 1,26,27
 273 508 273 508 268 540 c 1,28,29
 260 548 260 548 252 554.5 c 128,-1,30
 244 561 244 561 237 569 c 1,31,32
 230 573 230 573 223 574 c 0,33,34
 205.769230769 576.461538462 205.769230769 576.461538462 200 588 c 1,35,36
 193 598 193 598 171 589 c 1,37,-1
 162 589 l 2,38,39
 158 589 158 589 156 591 c 1,40,41
 147 586 147 586 141.5 583.5 c 128,-1,42
 136 581 136 581 128 573 c 1,43,44
 127 567 127 567 122.5 562 c 128,-1,45
 118 557 118 557 119 551 c 256,46,47
 120 545 120 545 118 539 c 128,-1,48
 116 533 116 533 118 527.5 c 128,-1,49
 120 522 120 522 124 517 c 128,-1,50
 128 512 128 512 131.5 507 c 128,-1,51
 135 502 135 502 137 492.5 c 128,-1,52
 139 483 139 483 142 478.5 c 128,-1,53
 145 474 145 474 149 471.5 c 128,-1,54
 153 469 153 469 157 465 c 1,55,56
 162 454 162 454 163 453.5 c 128,-1,57
 164 453 164 453 166.5 449.5 c 128,-1,58
 169 446 169 446 177 443 c 128,-1,59
 185 440 185 440 191 437 c 1,60,61
 192 429 192 429 198.5 423 c 128,-1,62
 205 417 205 417 211 409.5 c 128,-1,63
 217 402 217 402 224 395.5 c 128,-1,64
 231 389 231 389 237.5 388.5 c 128,-1,65
 244 388 244 388 248 379 c 1,66,67
 253 375 253 375 258 370 c 128,-1,68
 263 365 263 365 270 361 c 1,69,70
 280 335 280 335 308 316 c 1,71,72
 310 311 310 311 311 306 c 128,-1,73
 312 301 312 301 319 301 c 1,74,75
 321 295 321 295 322.5 290 c 0,76,77
 326.142857143 277.857142857 326.142857143 277.857142857 334 270 c 128,-1,78
 342 262 342 262 341.5 246 c 128,-1,79
 341 230 341 230 341.5 221.5 c 128,-1,80
 342 213 342 213 339 202.5 c 128,-1,81
 336 192 336 192 339 180 c 1,82,83
 328 162 328 162 323 160.5 c 128,-1,84
 318 159 318 159 314.5 155.5 c 128,-1,85
 311 152 311 152 307 146.5 c 128,-1,86
 303 141 303 141 298 136 c 1,87,88
 290 135 290 135 286 130.5 c 128,-1,89
 282 126 282 126 276.5 122.5 c 128,-1,90
 271 119 271 119 264 117 c 128,-1,91
 257 115 257 115 254 109 c 1,92,93
 247 111 247 111 240.5 105 c 128,-1,94
 234 99 234 99 228 97 c 1,95,96
 229 89 229 89 228.5 88 c 128,-1,97
 228 87 228 87 229.5 82.5 c 128,-1,98
 231 78 231 78 229 74.5 c 128,-1,99
 227 71 227 71 227 67 c 2,100,-1
 230 50 l 1,101,102
 229 39 229 39 230.5 38 c 128,-1,103
 232 37 232 37 232.5 32 c 128,-1,104
 233 27 233 27 231.5 18.5 c 128,-1,105
 230 10 230 10 232 1 c 1,106,107
 228 -1 228 -1 225.5 -4.5 c 128,-1,108
 223 -8 223 -8 211.5 -11 c 128,-1,109
 200 -14 200 -14 190 -4 c 1,110,111
 178 5 178 5 180 19.5 c 128,-1,112
 182 34 182 34 183 45 c 1,113,-1
 181 60 l 2,114,115
 181 65 181 65 183 69 c 128,-1,116
 185 73 185 73 181.5 80 c 128,-1,117
 178 87 178 87 168 91 c 128,-1,118
 158 95 158 95 150 95 c 1,119,120
 148 98 148 98 143.5 99 c 128,-1,121
 139 100 139 100 134.5 102 c 128,-1,122
 130 104 130 104 125 104 c 128,-1,123
 120 104 120 104 116 106.5 c 128,-1,124
 112 109 112 109 110.5 112.5 c 128,-1,125
 109 116 109 116 104 115 c 1,126,127
 102 121 102 121 97 125.5 c 128,-1,128
 92 130 92 130 92.5 131.5 c 128,-1,129
 93 133 93 133 89.5 136 c 128,-1,130
 86 139 86 139 83.5 142.5 c 128,-1,131
 81 146 81 146 76 151 c 1,132,133
 81 160 81 160 75 165.5 c 128,-1,134
 69 171 69 171 67.5 180 c 128,-1,135
 66 189 66 189 73 202.5 c 128,-1,136
 80 216 80 216 79 222 c 1,137,138
 82 223 82 223 87 228 c 2,139,-1
 98 239 l 2,140,141
 117 258 117 258 128 258 c 2,142,-1
 145 258 l 1,143,144
 152 249 152 249 148 241 c 128,-1,145
 144 233 144 233 145 220 c 1,146,147
 136 206 136 206 137.5 191 c 128,-1,148
 139 176 139 176 141 173.5 c 128,-1,149
 143 171 143 171 148 167 c 128,-1,150
 153 163 153 163 155 155 c 1,151,-1
 164 148 l 1,152,153
 174 144 174 144 193 144 c 1,154,-1
 216 150 l 1,155,156
 225 150 225 150 231 154 c 128,-1,157
 237 158 237 158 246 156 c 1,158,159
 251 161 251 161 256.5 164.5 c 128,-1,160
 262 168 262 168 268 172 c 1,161,162
 270 182 270 182 276 188 c 128,-1,163
 282 194 282 194 282.5 203.5 c 128,-1,164
 283 213 283 213 278.5 219.5 c 128,-1,165
 274 226 274 226 274 237 c 1,166,167
 269 245 269 245 260 249 c 128,-1,168
 251 253 251 253 248 262 c 1,169,170
 243 263 243 263 239.5 264.5 c 128,-1,171
 236 266 236 266 231 268 c 1,172,173
 203 302 203 302 163 319 c 1,174,175
 154 333 154 333 145 344 c 1,176,177
 133 346 133 346 123 350 c 1,178,179
 122 354 122 354 113 360 c 1,180,181
 105 368 105 368 106 376 c 1,182,183
 95 387 95 387 82 390 c 1,184,185
 75 402 75 402 67 403 c 1,186,187
 68 415 68 415 62.5 419.5 c 128,-1,188
 57 424 57 424 52 430 c 1,189,190
 57 441 57 441 50 450 c 128,-1,191
 43 459 43 459 41 466 c 128,-1,192
 39 473 39 473 39 477.5 c 128,-1,193
 39 482 39 482 38 490 c 0,194,195
 29 534 29 534 43 558 c 0,196,197
 48 566 48 566 50 575 c 1,198,199
 61 595 61 595 82 621 c 1,200,201
 86 623 86 623 90.5 624 c 0,202,203
 110.428571429 628.428571429 110.428571429 628.428571429 120 638 c 1,204,205
 132 642 132 642 140 644 c 0,206,207
 165 648 165 648 160 659 c 0,208,209
 158 665 158 665 163 671 c 1,210,211
 164 687 164 687 164.5 693 c 128,-1,212
 165 699 165 699 165 706 c 1,213,214
 160 716 160 716 162 720.5 c 128,-1,215
 164 725 164 725 165 730 c 1,0,1
EndSplineSet
EndChar

StartChar: percent
Encoding: 37 37 8
Width: 570
Flags: HW
LayerCount: 2
Fore
SplineSet
334 342 m 1,0,1
 307.338983051 327.644067797 307.338983051 327.644067797 312 309 c 1,2,3
 305 298 305 298 305.5 296 c 128,-1,4
 306 294 306 294 301.5 285.5 c 128,-1,5
 297 277 297 277 294.5 271 c 128,-1,6
 292 265 292 265 285 261 c 1,7,8
 285 250 285 250 275.5 235 c 128,-1,9
 266 220 266 220 266 213 c 128,-1,10
 266 206 266 206 252 189 c 1,11,-1
 252 176 l 1,12,13
 243 168 243 168 238.5 156 c 128,-1,14
 234 144 234 144 223 137 c 1,15,16
 223 129 223 129 219.5 125.5 c 128,-1,17
 216 122 216 122 214 117 c 1,18,-1
 214 106 l 1,19,20
 206 96 206 96 202 82 c 128,-1,21
 198 68 198 68 187 60 c 1,22,23
 176 62 176 62 167.5 61 c 128,-1,24
 159 60 159 60 152 62 c 1,25,26
 147 67 147 67 144.5 66.5 c 128,-1,27
 142 66 142 66 138 69 c 128,-1,28
 134 72 134 72 131.5 82 c 128,-1,29
 129 92 129 92 131 101.5 c 128,-1,30
 133 111 133 111 136.5 119.5 c 128,-1,31
 140 128 140 128 143.5 136.5 c 128,-1,32
 147 145 147 145 147 154 c 1,33,34
 163 170 163 170 163 189 c 128,-1,35
 163 208 163 208 170.5 215 c 128,-1,36
 178 222 178 222 176 230 c 1,37,38
 188 246 188 246 194.5 266.5 c 128,-1,39
 201 287 201 287 212 302 c 1,40,-1
 214 317 l 1,41,42
 220 326 220 326 223 335.5 c 128,-1,43
 226 345 226 345 230.5 354 c 128,-1,44
 235 363 235 363 239.5 372 c 128,-1,45
 244 381 244 381 244 392 c 1,46,47
 248 394 248 394 249 399 c 128,-1,48
 250 404 250 404 255 406 c 1,49,50
 254 412 254 412 256 416 c 128,-1,51
 258 420 258 420 261.5 427.5 c 128,-1,52
 265 435 265 435 265.5 436.5 c 128,-1,53
 266 438 266 438 272.5 450 c 128,-1,54
 279 462 279 462 279 477 c 1,55,56
 287 482 287 482 287 490.5 c 0,57,58
 287 506 287 506 294 513 c 128,-1,59
 301 520 301 520 303.5 530 c 128,-1,60
 306 540 306 540 309 547 c 128,-1,61
 312 554 312 554 318 562.5 c 128,-1,62
 324 571 324 571 327 582 c 1,63,-1
 320 597 l 1,64,65
 301 593 301 593 282 590 c 128,-1,66
 263 587 263 587 253 573 c 1,67,68
 249 571 249 571 244.5 571 c 128,-1,69
 240 571 240 571 237.5 568 c 128,-1,70
 235 565 235 565 233 561.5 c 128,-1,71
 231 558 231 558 228.5 554.5 c 128,-1,72
 226 551 226 551 223.5 548.5 c 0,73,74
 213.275862069 538.275862069 213.275862069 538.275862069 233 514 c 1,75,76
 234 511 234 511 233 505.5 c 128,-1,77
 232 500 232 500 234 495 c 1,78,79
 233 485 233 485 233 480 c 128,-1,80
 233 475 233 475 231.5 468.5 c 128,-1,81
 230 462 230 462 222 449 c 1,82,83
 218 439 218 439 212 432 c 128,-1,84
 206 425 206 425 206 422.5 c 128,-1,85
 206 420 206 420 205 418 c 0,86,87
 195 409 195 409 191.5 403 c 128,-1,88
 188 397 188 397 186.5 397.5 c 128,-1,89
 185 398 185 398 184 398 c 0,90,91
 183 397 183 397 181.5 392.5 c 128,-1,92
 180 388 180 388 179 387 c 0,93,94
 172 383 172 383 168.5 379.5 c 128,-1,95
 165 376 165 376 162 374.5 c 128,-1,96
 159 373 159 373 150 374.5 c 128,-1,97
 141 376 141 376 135 375 c 2,98,-1
 120 373 l 1,99,100
 114 374 114 374 107.5 377 c 128,-1,101
 101 380 101 380 95 381 c 128,-1,102
 89 382 89 382 85 381 c 128,-1,103
 81 380 81 380 76.5 381.5 c 128,-1,104
 72 383 72 383 67.5 388.5 c 128,-1,105
 63 394 63 394 55 392 c 1,106,107
 53 394 53 394 52.5 397.5 c 128,-1,108
 52 401 52 401 48.5 405.5 c 128,-1,109
 45 410 45 410 40 418 c 1,110,111
 42 425 42 425 38.5 435 c 128,-1,112
 35 445 35 445 34.5 452.5 c 128,-1,113
 34 460 34 460 31 468 c 1,114,115
 33 476 33 476 36 484 c 128,-1,116
 39 492 39 492 39 504 c 1,117,118
 43 509 43 509 44.5 516 c 128,-1,119
 46 523 46 523 48 531 c 1,120,121
 54 539 54 539 57.5 547.5 c 128,-1,122
 61 556 61 556 64.5 561 c 128,-1,123
 68 566 68 566 70.5 568 c 128,-1,124
 73 570 73 570 73 573 c 1,125,126
 81 578 81 578 87.5 582 c 128,-1,127
 94 586 94 586 96 595 c 1,128,129
 113 593 113 593 121 600.5 c 128,-1,130
 129 608 129 608 137 616 c 1,131,132
 143 617 143 617 148.5 618.5 c 128,-1,133
 154 620 154 620 162 621 c 1,134,135
 166 618 166 618 169.5 621 c 128,-1,136
 173 624 173 624 175 624 c 2,137,-1
 193 624 l 1,138,139
 202 626 202 626 203.5 625 c 128,-1,140
 205 624 205 624 207 624 c 2,141,-1
 230 630 l 1,142,143
 243 629 243 629 246.5 631 c 128,-1,144
 250 633 250 633 255 634 c 128,-1,145
 260 635 260 635 266 635 c 128,-1,146
 272 635 272 635 279 636 c 2,147,-1
 291 637 l 2,148,149
 303 638 303 638 309.5 640 c 128,-1,150
 316 642 316 642 319.5 642 c 128,-1,151
 323 642 323 642 329.5 645 c 128,-1,152
 336 648 336 648 341 648.5 c 128,-1,153
 346 649 346 649 352 651 c 128,-1,154
 358 653 358 653 363.5 658.5 c 128,-1,155
 369 664 369 664 374 666.5 c 128,-1,156
 379 669 379 669 383 668.5 c 128,-1,157
 387 668 387 668 389 672 c 1,158,159
 394 668 394 668 399.5 670.5 c 128,-1,160
 405 673 405 673 409 674 c 1,161,162
 417 672 417 672 418.5 663.5 c 128,-1,163
 420 655 420 655 425.5 643 c 128,-1,164
 431 631 431 631 431 622 c 2,165,-1
 430 591 l 1,166,167
 425 580 425 580 424 578 c 128,-1,168
 423 576 423 576 421.5 572 c 128,-1,169
 420 568 420 568 419.5 564.5 c 128,-1,170
 419 561 419 561 417 556.5 c 128,-1,171
 415 552 415 552 413.5 549 c 128,-1,172
 412 546 412 546 410 541.5 c 128,-1,173
 408 537 408 537 407.5 532 c 128,-1,174
 407 527 407 527 403 525 c 1,175,176
 400 508 400 508 396 504 c 1,177,178
 401 493 401 493 395.5 483 c 0,179,180
 385.285714286 464.428571429 385.285714286 464.428571429 380.142857143 454.714285714 c 128,-1,181
 375 445 375 445 369 442 c 1,182,183
 368 437 368 437 370 436.5 c 128,-1,184
 372 436 372 436 371 431 c 1,185,186
 367 429 367 429 360.5 419.5 c 128,-1,187
 354 410 354 410 352.5 408.5 c 128,-1,188
 351 407 351 407 351.5 402 c 128,-1,189
 352 397 352 397 347 394 c 1,190,191
 346 389 346 389 348 388.5 c 128,-1,192
 350 388 350 388 348 383 c 1,193,194
 342 379 342 379 342.5 374 c 128,-1,195
 343 369 343 369 341 359 c 1,196,197
 334 348 334 348 334 342 c 1,0,1
119 488 m 1,198,-1
 118 468 l 2,199,200
 117 454 117 454 121 445.5 c 128,-1,201
 125 437 125 437 126 429 c 1,202,203
 159 421 159 421 172 466 c 1,204,205
 175 468 175 468 177 470 c 128,-1,206
 179 472 179 472 182 473 c 1,207,208
 183 481 183 481 185.5 487.5 c 128,-1,209
 188 494 188 494 189 501 c 1,210,211
 181 517 181 517 177 536 c 1,212,213
 166 535 166 535 158 540 c 0,214,215
 142 550 142 550 126 534 c 0,216,217
 125 532 125 532 124 527 c 128,-1,218
 123 522 123 522 118 513.5 c 128,-1,219
 113 505 113 505 115.5 499 c 128,-1,220
 118 493 118 493 119 488 c 1,198,-1
526 258 m 1,221,222
 531 250 531 250 536 242 c 128,-1,223
 541 234 541 234 539 225 c 128,-1,224
 537 216 537 216 536 213 c 128,-1,225
 535 210 535 210 533.5 201 c 128,-1,226
 532 192 532 192 531.5 180.5 c 128,-1,227
 531 169 531 169 521 165 c 1,228,229
 516 151 516 151 505 143 c 1,230,231
 495 139 495 139 492.5 136 c 128,-1,232
 490 133 490 133 487 131 c 128,-1,233
 484 129 484 129 480.5 130 c 128,-1,234
 477 131 477 131 476 127 c 1,235,236
 467 132 467 132 460 126.5 c 128,-1,237
 453 121 453 121 448 117 c 128,-1,238
 443 113 443 113 440 116 c 128,-1,239
 437 119 437 119 431 118 c 1,240,241
 426 120 426 120 424.5 115.5 c 128,-1,242
 423 111 423 111 418 112 c 1,243,244
 414 115 414 115 410 114.5 c 128,-1,245
 406 114 406 114 400 116 c 128,-1,246
 394 118 394 118 388.5 122.5 c 128,-1,247
 383 127 383 127 375 127 c 1,248,249
 373 128 373 128 371.5 131.5 c 128,-1,250
 370 135 370 135 364.5 141 c 128,-1,251
 359 147 359 147 357 152 c 128,-1,252
 355 157 355 157 351 159 c 1,253,254
 351 181 351 181 342 196 c 1,255,256
 338 219 338 219 346 262 c 1,257,258
 355 272 355 272 359 284.5 c 0,259,260
 365.169491525 303.779661017 365.169491525 303.779661017 382 315 c 1,261,262
 398 334 398 334 411 345 c 1,263,-1
 423 345 l 1,264,265
 431 350 431 350 442 352.5 c 128,-1,266
 453 355 453 355 459 358.5 c 128,-1,267
 465 362 465 362 468.5 361 c 128,-1,268
 472 360 472 360 475.5 358 c 128,-1,269
 479 356 479 356 483 353.5 c 128,-1,270
 487 351 487 351 491 350 c 1,271,272
 498 324 498 324 510 315 c 1,273,274
 512 298 512 298 518 286.5 c 128,-1,275
 524 275 524 275 526 258 c 1,221,222
488 256 m 128,-1,277
 481 270 481 270 478 284 c 1,278,279
 463 282 463 282 458.5 285.5 c 128,-1,280
 454 289 454 289 443.5 285 c 128,-1,281
 433 281 433 281 426.5 264 c 128,-1,282
 420 247 420 247 423 222.5 c 128,-1,283
 426 198 426 198 425 178 c 1,284,285
 434 165 434 165 450 166 c 0,286,287
 480 169 480 169 480 191 c 1,288,289
 482 194 482 194 486 195.5 c 128,-1,290
 490 197 490 197 489 202 c 1,291,292
 492 208 492 208 492 212 c 128,-1,293
 492 216 492 216 493.5 229 c 128,-1,276
 495 242 495 242 488 256 c 128,-1,277
EndSplineSet
EndChar

StartChar: ampersand
Encoding: 38 38 9
Width: 516
Flags: HW
LayerCount: 2
Fore
SplineSet
392 631 m 0,0,1
 392 638 392 638 403 638 c 2,2,-1
 409 638 l 1,3,4
 417 632 417 632 416 630.5 c 128,-1,5
 415 629 415 629 416 628 c 0,6,7
 423 607 423 607 411 595 c 1,8,9
 410 587 410 587 409 578.5 c 128,-1,10
 408 570 408 570 404 565 c 1,11,-1
 404 552 l 2,12,13
 404 544 404 544 400 539 c 1,14,15
 382 523 382 523 363 529 c 1,16,17
 361 537 361 537 358 539 c 1,18,-1
 358 551 l 2,19,20
 358 558 358 558 358.5 563 c 128,-1,21
 359 568 359 568 353.5 573 c 128,-1,22
 348 578 348 578 340 580.5 c 128,-1,23
 332 583 332 583 329 590 c 1,24,25
 318 592 318 592 308 599 c 1,26,27
 269 599 269 599 259 587 c 0,28,29
 256 583 256 583 255.5 576.5 c 128,-1,30
 255 570 255 570 250 566 c 1,31,32
 252 556 252 556 250.5 542 c 128,-1,33
 249 528 249 528 263 524 c 1,34,35
 268 513 268 513 268.5 511.5 c 128,-1,36
 269 510 269 510 273.5 505 c 128,-1,37
 278 500 278 500 281 496 c 128,-1,38
 284 492 284 492 288.5 487.5 c 128,-1,39
 293 483 293 483 298.5 480 c 128,-1,40
 304 477 304 477 308 473.5 c 128,-1,41
 312 470 312 470 313.5 466.5 c 128,-1,42
 315 463 315 463 320 461 c 1,43,44
 322 452 322 452 327.5 448 c 128,-1,45
 333 444 333 444 334.5 433.5 c 128,-1,46
 336 423 336 423 327 417 c 1,47,48
 319 409 319 409 315.5 409.5 c 128,-1,49
 312 410 312 410 298.5 404.5 c 128,-1,50
 285 399 285 399 275.5 404.5 c 128,-1,51
 266 410 266 410 261 412 c 1,52,53
 250 407 250 407 240 406.5 c 128,-1,54
 230 406 230 406 220.5 402.5 c 128,-1,55
 211 399 211 399 203 393.5 c 128,-1,56
 195 388 195 388 184 390 c 1,57,58
 170 380 170 380 160 367.5 c 128,-1,59
 150 355 150 355 150 351 c 128,-1,60
 150 347 150 347 148.5 342.5 c 128,-1,61
 147 338 147 338 145 335.5 c 128,-1,62
 143 333 143 333 141 329 c 1,63,64
 145 315 145 315 137.5 302 c 128,-1,65
 130 289 130 289 130 279.5 c 128,-1,66
 130 270 130 270 132.5 265.5 c 0,67,68
 137.916666667 255.75 137.916666667 255.75 134 244 c 1,69,-1
 136 229 l 1,70,-1
 136 206 l 1,71,-1
 134 189 l 1,72,73
 135 186 135 186 137 182.5 c 128,-1,74
 139 179 139 179 141 174.5 c 128,-1,75
 143 170 143 170 144.5 166.5 c 128,-1,76
 146 163 146 163 148 159 c 128,-1,77
 150 155 150 155 151 150.5 c 128,-1,78
 152 146 152 146 156 140.5 c 128,-1,79
 160 135 160 135 162 131 c 1,80,81
 171 122 171 122 172.5 120 c 128,-1,82
 174 118 174 118 177.5 115 c 128,-1,83
 181 112 181 112 187 110 c 128,-1,84
 193 108 193 108 195 100 c 1,85,86
 206 98 206 98 209 91 c 1,87,88
 218 89 218 89 226 86 c 128,-1,89
 234 83 234 83 248 79.5 c 128,-1,90
 262 76 262 76 274 77.5 c 128,-1,91
 286 79 286 79 286 83 c 128,-1,92
 286 87 286 87 291 88.5 c 128,-1,93
 296 90 296 90 301 91.5 c 128,-1,94
 306 93 306 93 311.5 98.5 c 128,-1,95
 317 104 317 104 322 105 c 1,96,97
 324 111 324 111 328 115 c 128,-1,98
 332 119 332 119 335.5 123.5 c 128,-1,99
 339 128 339 128 342 132.5 c 128,-1,100
 345 137 345 137 352 139 c 1,101,102
 356 149 356 149 362 156.5 c 128,-1,103
 368 164 368 164 370.5 168.5 c 128,-1,104
 373 173 373 173 377 177 c 1,105,106
 381 188 381 188 386.5 197.5 c 128,-1,107
 392 207 392 207 397 216 c 1,108,109
 392 222 392 222 392 235.5 c 128,-1,110
 392 249 392 249 386.5 254.5 c 128,-1,111
 381 260 381 260 377 268 c 0,112,113
 369 289 369 289 345.5 284 c 128,-1,114
 322 279 322 279 316.5 280 c 128,-1,115
 311 281 311 281 305 279 c 128,-1,116
 299 277 299 277 294.5 271.5 c 128,-1,117
 290 266 290 266 282 261 c 1,118,119
 273 238 273 238 265 232 c 1,120,121
 266 225 266 225 262.5 219.5 c 128,-1,122
 259 214 259 214 260 202.5 c 128,-1,123
 261 191 261 191 259 189.5 c 128,-1,124
 257 188 257 188 257 184 c 1,125,126
 251 176 251 176 250 173 c 128,-1,127
 249 170 249 170 243 170 c 128,-1,128
 237 170 237 170 233.5 177 c 128,-1,129
 230 184 230 184 224 186 c 1,130,131
 219 207 219 207 212 215 c 1,132,133
 211 225 211 225 216 230 c 1,134,135
 212 232 212 232 215 237 c 128,-1,136
 218 242 218 242 216 247 c 1,137,-1
 227 261 l 1,138,-1
 227 275 l 1,139,140
 229 283 229 283 233.5 285.5 c 128,-1,141
 238 288 238 288 239 295 c 1,142,143
 245 297 245 297 249.5 301 c 128,-1,144
 254 305 254 305 261.5 309.5 c 128,-1,145
 269 314 269 314 279.5 318.5 c 128,-1,146
 290 323 290 323 298 331 c 1,147,148
 303 332 303 332 306 332 c 128,-1,149
 309 332 309 332 312.5 333 c 128,-1,150
 316 334 316 334 318.5 335.5 c 128,-1,151
 321 337 321 337 324 338 c 128,-1,152
 327 339 327 339 330.5 338.5 c 128,-1,153
 334 338 334 338 339.5 340 c 128,-1,154
 345 342 345 342 350 346 c 128,-1,155
 355 350 355 350 360.5 352 c 128,-1,156
 366 354 366 354 370 352.5 c 128,-1,157
 374 351 374 351 385 354 c 128,-1,158
 396 357 396 357 401 361 c 128,-1,159
 406 365 406 365 413.5 368 c 128,-1,160
 421 371 421 371 423.5 373 c 128,-1,161
 426 375 426 375 429.5 376.5 c 128,-1,162
 433 378 433 378 438 377.5 c 128,-1,163
 443 377 443 377 446.5 379.5 c 128,-1,164
 450 382 450 382 453 387.5 c 128,-1,165
 456 393 456 393 460 401 c 128,-1,166
 464 409 464 409 468.5 415.5 c 128,-1,167
 473 422 473 422 488 419 c 1,168,169
 488 411 488 411 493.5 404 c 128,-1,170
 499 397 499 397 498.5 390.5 c 128,-1,171
 498 384 498 384 495.5 381 c 128,-1,172
 493 378 493 378 492 372.5 c 128,-1,173
 491 367 491 367 488.5 364 c 128,-1,174
 486 361 486 361 484 356 c 1,175,176
 470 351 470 351 461.5 344 c 128,-1,177
 453 337 453 337 438 335 c 1,178,-1
 428 326 l 2,179,180
 426 323 426 323 424 318.5 c 0,181,182
 421.333333333 312.5 421.333333333 312.5 414.166666667 302.25 c 128,-1,183
 407 292 407 292 421 275 c 1,184,185
 422 262 422 262 429 251 c 128,-1,186
 436 240 436 240 436 231.5 c 128,-1,187
 436 223 436 223 435 221 c 128,-1,188
 434 219 434 219 432.5 214.5 c 128,-1,189
 431 210 431 210 431.5 204 c 128,-1,190
 432 198 432 198 430.5 192 c 128,-1,191
 429 186 429 186 425 182.5 c 128,-1,192
 421 179 421 179 423 170 c 1,193,194
 418 167 418 167 416 162 c 0,195,196
 406.909090909 139.272727273 406.909090909 139.272727273 399 134 c 1,197,198
 393 113 393 113 377 100 c 0,199,200
 373 98 373 98 370 98 c 1,201,202
 366 69 366 69 336 62 c 1,203,204
 331 59 331 59 328 53 c 128,-1,205
 325 47 325 47 312.5 47 c 128,-1,206
 300 47 300 47 282 38 c 1,207,208
 271 40 271 40 257 34 c 1,209,210
 246 38 246 38 234 40 c 1,211,-1
 220 38 l 1,212,-1
 207 41 l 2,213,214
 204 42 204 42 201 42 c 0,215,216
 185 39 185 39 162 52 c 1,217,218
 150 55 150 55 145 55 c 1,219,220
 133 74 133 74 99 76 c 1,221,222
 86 89 86 89 75 93 c 1,223,224
 61 101 61 101 59 110.5 c 128,-1,225
 57 120 57 120 52 127 c 1,226,227
 43 136 43 136 43.5 139 c 128,-1,228
 44 142 44 142 39.5 150 c 128,-1,229
 35 158 35 158 35 162.5 c 128,-1,230
 35 167 35 167 30 170 c 1,231,232
 32 176 32 176 29 181.5 c 128,-1,233
 26 187 26 187 25 194 c 1,234,235
 27 210 27 210 26 220.5 c 128,-1,236
 25 231 25 231 28.5 246.5 c 128,-1,237
 32 262 32 262 32.5 269 c 128,-1,238
 33 276 33 276 35 281.5 c 128,-1,239
 37 287 37 287 38 288.5 c 128,-1,240
 39 290 39 290 41 295 c 256,241,242
 43 300 43 300 45.5 304 c 128,-1,243
 48 308 48 308 50.5 314 c 128,-1,244
 53 320 53 320 54 324 c 128,-1,245
 55 328 55 328 63.5 339 c 128,-1,246
 72 350 72 350 73 356 c 1,247,248
 81 360 81 360 85.5 368 c 128,-1,249
 90 376 90 376 95 383 c 1,250,251
 106 389 106 389 108.5 389 c 128,-1,252
 111 389 111 389 113 391 c 0,253,254
 119 400 119 400 120 399.5 c 128,-1,255
 121 399 121 399 123 400 c 0,256,257
 128 406 128 406 135.5 408 c 128,-1,258
 143 410 143 410 150 417 c 1,259,260
 156 420 156 420 163 422 c 128,-1,261
 170 424 170 424 176 429 c 1,262,263
 181 429 181 429 184.5 430.5 c 128,-1,264
 188 432 188 432 193 433 c 1,265,266
 198 439 198 439 203.5 440.5 c 128,-1,267
 209 442 209 442 210.5 449.5 c 128,-1,268
 212 457 212 457 204 462 c 1,269,270
 195 466 195 466 190.5 480 c 128,-1,271
 186 494 186 494 183.5 498 c 128,-1,272
 181 502 181 502 182 504 c 128,-1,273
 183 506 183 506 183 510 c 1,274,-1
 177 524 l 1,275,-1
 179 535 l 2,276,277
 179 540 179 540 178 551 c 128,-1,278
 177 562 177 562 178.5 567 c 128,-1,279
 180 572 180 572 184 576 c 128,-1,280
 188 580 188 580 190 584.5 c 128,-1,281
 192 589 192 589 192 594.5 c 128,-1,282
 192 600 192 600 195.5 605 c 128,-1,283
 199 610 199 610 206 613 c 128,-1,284
 213 616 213 616 220.5 619.5 c 128,-1,285
 228 623 228 623 233 625 c 128,-1,286
 238 627 238 627 247 632.5 c 128,-1,287
 256 638 256 638 265 638 c 128,-1,288
 274 638 274 638 284 641.5 c 128,-1,289
 294 645 294 645 301.5 643.5 c 128,-1,290
 309 642 309 642 315 643 c 1,291,292
 317 641 317 641 322.5 640 c 128,-1,293
 328 639 328 639 337 630 c 1,294,295
 348 624 348 624 354 618 c 1,296,297
 377 611 377 611 390 626 c 0,298,299
 392 628 392 628 392 631 c 0,0,1
EndSplineSet
EndChar

StartChar: quotesingle
Encoding: 39 39 10
Width: 162
Flags: HW
LayerCount: 2
Fore
SplineSet
114 667 m 1,0,-1
 114 637 l 1,1,-1
 115 624 l 2,2,3
 115 619 115 619 113.5 615.5 c 128,-1,4
 112 612 112 612 111 603 c 128,-1,5
 110 594 110 594 109.5 590 c 128,-1,6
 109 586 109 586 112 574 c 128,-1,7
 115 562 115 562 111.5 556 c 0,8,9
 106 546.571428571 106 546.571428571 106 532.285714286 c 128,-1,10
 106 518 106 518 100 506 c 1,11,12
 86 497 86 497 73.5 505 c 128,-1,13
 61 513 61 513 58 519 c 128,-1,14
 55 525 55 525 50 537 c 1,15,16
 52 553 52 553 52 570.5 c 128,-1,17
 52 588 52 588 47 605 c 1,18,19
 50 608 50 608 50 614 c 2,20,-1
 50 624 l 1,21,-1
 49 665 l 1,22,-1
 51 677 l 1,23,-1
 49 695 l 1,24,25
 49 712 49 712 53 721 c 128,-1,26
 57 730 57 730 56 735 c 1,27,28
 59 740 59 740 64.5 742.5 c 128,-1,29
 70 745 70 745 75 750 c 0,30,31
 77 751 77 751 86 744 c 1,32,33
 95 739 95 739 102 727 c 1,34,35
 106 715 106 715 107 715 c 0,36,37
 111 715 111 715 111 697 c 1,38,39
 109 682 109 682 114 667 c 1,0,-1
EndSplineSet
EndChar

StartChar: parenleft
Encoding: 40 40 11
Width: 335
Flags: HW
LayerCount: 2
Fore
SplineSet
34 395 m 1,0,-1
 37 409 l 2,1,2
 39 419 39 419 38.5 426.5 c 128,-1,3
 38 434 38 434 43 442 c 1,4,5
 45 448 45 448 45.5 461.5 c 128,-1,6
 46 475 46 475 48 483 c 128,-1,7
 50 491 50 491 53 497.5 c 128,-1,8
 56 504 56 504 60.5 519 c 0,9,10
 69.68 549.6 69.68 549.6 77.84 559.8 c 128,-1,11
 86 570 86 570 86 574 c 128,-1,12
 86 578 86 578 87.5 581 c 128,-1,13
 89 584 89 584 93.5 587 c 128,-1,14
 98 590 98 590 100.5 594 c 128,-1,15
 103 598 103 598 105.5 602 c 128,-1,16
 108 606 108 606 113 607 c 1,17,18
 115 612 115 612 117 617 c 128,-1,19
 119 622 119 622 120 628 c 1,20,21
 129 634 129 634 132 637 c 1,22,23
 137 647 137 647 139 647 c 128,-1,24
 141 647 141 647 144 655.5 c 128,-1,25
 147 664 147 664 150.5 667.5 c 128,-1,26
 154 671 154 671 160.5 679.5 c 128,-1,27
 167 688 167 688 181 699 c 1,28,29
 190 709 190 709 192.5 710 c 0,30,31
 197.142857143 711.857142857 197.142857143 711.857142857 204 721 c 128,-1,32
 211 730 211 730 217.5 734.5 c 128,-1,33
 224 739 224 739 226 744 c 1,34,35
 238 753 238 753 241 753 c 128,-1,36
 244 753 244 753 247 755 c 256,37,38
 250 757 250 757 254 759 c 128,-1,39
 258 761 258 761 261.5 764.5 c 128,-1,40
 265 768 265 768 271.5 767.5 c 128,-1,41
 278 767 278 767 286.5 768.5 c 128,-1,42
 295 770 295 770 304.5 775 c 128,-1,43
 314 780 314 780 324 776 c 1,44,45
 324 771 324 771 326.5 769 c 128,-1,46
 329 767 329 767 331 765 c 1,47,48
 332 757 332 757 329.5 752.5 c 128,-1,49
 327 748 327 748 325 740 c 1,50,51
 321 738 321 738 308 738 c 1,52,53
 300 736 300 736 296 731.5 c 128,-1,54
 292 727 292 727 284 725 c 1,55,56
 282 722 282 722 280.5 718 c 128,-1,57
 279 714 279 714 277 711 c 1,58,59
 272 709 272 709 269.5 704 c 128,-1,60
 267 699 267 699 261 697 c 1,61,62
 253 668 253 668 245 662 c 1,63,64
 245 651 245 651 240 644.5 c 128,-1,65
 235 638 235 638 238 630 c 1,66,67
 232 623 232 623 227 615.5 c 128,-1,68
 222 608 222 608 214 603 c 1,69,70
 212 592 212 592 205.5 584.5 c 128,-1,71
 199 577 199 577 193 569 c 1,72,73
 195 551 195 551 189 539 c 128,-1,74
 183 527 183 527 181.5 523.5 c 128,-1,75
 180 520 180 520 180 516.5 c 128,-1,76
 180 513 180 513 178.5 508.5 c 128,-1,77
 177 504 177 504 174 491 c 128,-1,78
 171 478 171 478 165.5 471 c 128,-1,79
 160 464 160 464 157 459 c 1,80,81
 155 448 155 448 156 437 c 128,-1,82
 157 426 157 426 155 420 c 128,-1,83
 153 414 153 414 151 411 c 128,-1,84
 149 408 149 408 147 404.5 c 128,-1,85
 145 401 145 401 144 398 c 128,-1,86
 143 395 143 395 140 393 c 1,87,88
 142 388 142 388 140.5 372.5 c 128,-1,89
 139 357 139 357 145 351 c 1,90,91
 143 346 143 346 141 341 c 128,-1,92
 139 336 139 336 138 328 c 128,-1,93
 137 320 137 320 139.5 311 c 128,-1,94
 142 302 142 302 140 294.5 c 128,-1,95
 138 287 138 287 142 286 c 128,-1,96
 146 285 146 285 145 280 c 1,97,98
 147 270 147 270 146 262 c 128,-1,99
 145 254 145 254 148 240 c 128,-1,100
 151 226 151 226 160 207.5 c 128,-1,101
 169 189 169 189 170.5 185 c 128,-1,102
 172 181 172 181 171.5 173.5 c 128,-1,103
 171 166 171 166 173 160 c 1,104,105
 180 149 180 149 180 147.5 c 128,-1,106
 180 146 180 146 181.5 142.5 c 128,-1,107
 183 139 183 139 186.5 134 c 128,-1,108
 190 129 190 129 190 123 c 1,109,110
 197 115 197 115 201.5 104 c 128,-1,111
 206 93 206 93 211 83 c 1,112,113
 214 71 214 71 220.5 62 c 128,-1,114
 227 53 227 53 229 39 c 1,115,116
 232 35 232 35 237 33.5 c 128,-1,117
 242 32 242 32 243 25 c 1,118,-1
 255 22 l 1,119,120
 265 6 265 6 278.5 -3 c 128,-1,121
 292 -12 292 -12 305 -23 c 1,122,123
 309 -22 309 -22 309 -25.5 c 128,-1,124
 309 -29 309 -29 309.5 -30.5 c 128,-1,125
 310 -32 310 -32 313 -31 c 1,126,127
 322 -46 322 -46 319.5 -51 c 128,-1,128
 317 -56 317 -56 313 -60 c 1,129,130
 305 -62 305 -62 298 -60 c 128,-1,131
 291 -58 291 -58 283 -60 c 1,132,133
 272 -52 272 -52 257 -48 c 1,134,135
 252 -42 252 -42 248.5 -34.5 c 128,-1,136
 245 -27 245 -27 236 -25 c 1,137,138
 235 -16 235 -16 229 -10 c 1,139,140
 219 -8 219 -8 212.5 -8 c 128,-1,141
 206 -8 206 -8 198.5 -4 c 128,-1,142
 191 0 191 0 188.5 4.5 c 128,-1,143
 186 9 186 9 178.5 17 c 128,-1,144
 171 25 171 25 170 27 c 1,145,146
 160 32 160 32 160 34.5 c 128,-1,147
 160 37 160 37 151.5 42.5 c 128,-1,148
 143 48 143 48 138 62 c 1,149,150
 131 69 131 69 127 76 c 128,-1,151
 123 83 123 83 115 87 c 1,152,153
 113 107 113 107 95 121 c 1,154,155
 93 133 93 133 88.5 134.5 c 128,-1,156
 84 136 84 136 82 142 c 128,-1,157
 80 148 80 148 79.5 155.5 c 128,-1,158
 79 163 79 163 76.5 170.5 c 128,-1,159
 74 178 74 178 71 186.5 c 128,-1,160
 68 195 68 195 67.5 201.5 c 128,-1,161
 67 208 67 208 65 214 c 1,162,163
 60 221 60 221 60.5 224 c 128,-1,164
 61 227 61 227 58 231.5 c 128,-1,165
 55 236 55 236 56 238 c 128,-1,166
 57 240 57 240 53 247.5 c 128,-1,167
 49 255 49 255 49.5 261.5 c 128,-1,168
 50 268 50 268 44 273 c 1,169,-1
 44 309 l 2,170,171
 44 312 44 312 43 314.5 c 128,-1,172
 42 317 42 317 40.5 324 c 128,-1,173
 39 331 39 331 40 341 c 128,-1,174
 41 351 41 351 39.5 360.5 c 128,-1,175
 38 370 38 370 36 378.5 c 128,-1,176
 34 387 34 387 34 395 c 1,0,-1
EndSplineSet
EndChar

StartChar: parenright
Encoding: 41 41 12
Width: 316
Flags: HW
LayerCount: 2
Fore
SplineSet
187 292 m 1,0,-1
 185 315 l 2,1,2
 185 323 185 323 188.5 332.5 c 0,3,4
 193.696969697 346.606060606 193.696969697 346.606060606 186.348484848 360.803030303 c 128,-1,5
 179 375 179 375 181 382.5 c 128,-1,6
 183 390 183 390 183 395 c 256,7,8
 183 416.333333333 183 416.333333333 179.5 422.166666667 c 128,-1,9
 176 428 176 428 175 431.5 c 128,-1,10
 174 435 174 435 175 438.5 c 128,-1,11
 176 442 176 442 173 448 c 2,12,-1
 168 458 l 2,13,14
 166 462 166 462 163 465 c 1,15,16
 164 470 164 470 161.5 474 c 128,-1,17
 159 478 159 478 157.5 482.5 c 128,-1,18
 156 487 156 487 156 491.5 c 128,-1,19
 156 496 156 496 154 502 c 128,-1,20
 152 508 152 508 148 515 c 128,-1,21
 144 522 144 522 142 530 c 1,22,23
 134 537 134 537 131.5 546 c 128,-1,24
 129 555 129 555 125 564 c 128,-1,25
 121 573 121 573 118 579.5 c 128,-1,26
 115 586 115 586 115 598 c 1,27,28
 112 603 112 603 108.5 606.5 c 128,-1,29
 105 610 105 610 104 617 c 1,30,31
 99 616 99 616 98 622 c 128,-1,32
 97 628 97 628 94 630 c 0,33,34
 74.7875647668 641.207253886 74.7875647668 641.207253886 71.3937823834 654.103626943 c 128,-1,35
 68 667 68 667 67.5 671 c 128,-1,36
 67 675 67 675 62 679 c 1,37,38
 51 684 51 684 46 689 c 128,-1,39
 41 694 41 694 36 699 c 1,40,41
 36 704 36 704 33.5 706 c 128,-1,42
 31 708 31 708 33 713 c 1,43,44
 23 727 23 727 13 742.5 c 128,-1,45
 3 758 3 758 8 782 c 1,46,47
 10 786 10 786 14 784 c 128,-1,48
 18 782 18 782 24 785 c 128,-1,49
 30 788 30 788 34.5 788 c 128,-1,50
 39 788 39 788 44.5 786.5 c 128,-1,51
 50 785 50 785 61 785.5 c 128,-1,52
 72 786 72 786 76 781.5 c 128,-1,53
 80 777 80 777 84.5 772.5 c 128,-1,54
 89 768 89 768 93.5 764 c 128,-1,55
 98 760 98 760 99 755 c 1,56,57
 104 756 104 756 106 752 c 128,-1,58
 108 748 108 748 111 744 c 1,59,60
 114 742 114 742 119 740 c 128,-1,61
 124 738 124 738 131.5 729 c 128,-1,62
 139 720 139 720 144 715 c 1,63,64
 149 714 149 714 151.5 709.5 c 128,-1,65
 154 705 154 705 159 703 c 1,66,67
 162 693 162 693 167.5 688 c 128,-1,68
 173 683 173 683 175 673 c 1,69,70
 178 669 178 669 181 667 c 128,-1,71
 184 665 184 665 187 662 c 1,72,73
 191 652 191 652 192 652 c 128,-1,74
 193 652 193 652 194.5 647.5 c 128,-1,75
 196 643 196 643 199.5 639 c 128,-1,76
 203 635 203 635 204.5 630 c 128,-1,77
 206 625 206 625 209 617.5 c 128,-1,78
 212 610 212 610 217.5 602 c 128,-1,79
 223 594 223 594 228 585.5 c 128,-1,80
 233 577 233 577 236 567.5 c 128,-1,81
 239 558 239 558 245.5 543 c 128,-1,82
 252 528 252 528 257 508 c 128,-1,83
 262 488 262 488 272 468 c 1,84,85
 272 451 272 451 276 436.5 c 128,-1,86
 280 422 280 422 281 410 c 128,-1,87
 282 398 282 398 281 389.5 c 128,-1,88
 280 381 280 381 283 373 c 1,89,90
 273 347 273 347 277 341 c 128,-1,91
 281 335 281 335 280 327 c 128,-1,92
 279 319 279 319 279.5 316 c 128,-1,93
 280 313 280 313 278 307 c 128,-1,94
 276 301 276 301 277.5 297.5 c 128,-1,95
 279 294 279 294 276 287 c 128,-1,96
 273 280 273 280 273 276.5 c 128,-1,97
 273 273 273 273 272 270 c 128,-1,98
 271 267 271 267 269 264.5 c 0,99,100
 263 257 263 257 263 241.5 c 128,-1,101
 263 226 263 226 257 214 c 1,102,103
 255 205 255 205 254 200 c 128,-1,104
 253 195 253 195 249 188 c 1,105,106
 245 184 245 184 244.5 180.5 c 128,-1,107
 244 177 244 177 240 178 c 1,108,109
 238 166 238 166 232.5 157.5 c 128,-1,110
 227 149 227 149 223.5 141 c 128,-1,111
 220 133 220 133 217.5 132 c 128,-1,112
 215 131 215 131 213 127.5 c 128,-1,113
 211 124 211 124 210 120 c 128,-1,114
 209 116 209 116 206.5 109.5 c 128,-1,115
 204 103 204 103 201 95.5 c 128,-1,116
 198 88 198 88 188 85 c 1,117,118
 189 77 189 77 183.5 75 c 128,-1,119
 178 73 178 73 173 69 c 1,120,121
 169 61 169 61 166 53.5 c 128,-1,122
 163 46 163 46 156 41 c 0,123,124
 144 34 144 34 141.5 30 c 128,-1,125
 139 26 139 26 134 24 c 1,126,127
 127 18 127 18 119.5 15 c 128,-1,128
 112 12 112 12 106 8 c 128,-1,129
 100 4 100 4 97 0 c 128,-1,130
 94 -4 94 -4 89 -9 c 1,131,132
 75 -14 75 -14 64.5 -24 c 128,-1,133
 54 -34 54 -34 38 -37 c 1,134,135
 30 -33 30 -33 24.5 -22.5 c 128,-1,136
 19 -12 19 -12 21.5 -3 c 128,-1,137
 24 6 24 6 28.5 8 c 128,-1,138
 33 10 33 10 38 12.5 c 128,-1,139
 43 15 43 15 46.5 19.5 c 128,-1,140
 50 24 50 24 58 24 c 1,141,142
 70 36 70 36 76 40 c 128,-1,143
 82 44 82 44 86 47.5 c 128,-1,144
 90 51 90 51 91 55 c 128,-1,145
 92 59 92 59 94 62 c 1,146,147
 109 73 109 73 117.5 90 c 128,-1,148
 126 107 126 107 139 121 c 1,149,-1
 142 142 l 1,150,-1
 151 160 l 2,151,152
 153 165 153 165 154 169.5 c 128,-1,153
 155 174 155 174 159 176 c 1,154,155
 159 190 159 190 164.5 199 c 128,-1,156
 170 208 170 208 172.5 217 c 128,-1,157
 175 226 175 226 176.5 233.5 c 128,-1,158
 178 241 178 241 180.5 251 c 128,-1,159
 183 261 183 261 182.5 266.5 c 0,160,161
 181.642857143 275.928571429 181.642857143 275.928571429 187 292 c 1,0,-1
EndSplineSet
EndChar

StartChar: asterisk
Encoding: 42 42 13
Width: 432
Flags: HW
LayerCount: 2
Fore
SplineSet
234 605 m 1,0,-1
 236 594 l 2,1,2
 236 591 236 591 234.5 588 c 128,-1,3
 233 585 233 585 234 581.5 c 128,-1,4
 235 578 235 578 237 575.5 c 128,-1,5
 239 573 239 573 241 570 c 1,6,7
 246 571 246 571 249.5 575 c 128,-1,8
 253 579 253 579 260 584.5 c 128,-1,9
 267 590 267 590 277.5 599.5 c 128,-1,10
 288 609 288 609 299 617 c 1,11,12
 301 621 301 621 304 623 c 0,13,14
 309 626 309 626 312 630 c 128,-1,15
 315 634 315 634 320 634 c 1,16,17
 321 636 321 636 323 638 c 128,-1,18
 325 640 325 640 325 644 c 1,19,20
 332 646 332 646 337.5 652 c 128,-1,21
 343 658 343 658 354 666.5 c 128,-1,22
 365 675 365 675 380 668 c 1,23,24
 378 661 378 661 379 656.5 c 128,-1,25
 380 652 380 652 378.5 648 c 128,-1,26
 377 644 377 644 373 642 c 128,-1,27
 369 640 369 640 370 635 c 1,28,29
 357 632 357 632 352 620 c 1,30,31
 346 618 346 618 343 613.5 c 128,-1,32
 340 609 340 609 334 608 c 1,33,34
 329 598 329 598 319.5 592 c 128,-1,35
 310 586 310 586 306 574 c 1,36,37
 287 570 287 570 286 551 c 1,38,39
 259 542 259 542 248 517 c 1,40,41
 247 512 247 512 251 509.5 c 128,-1,42
 255 507 255 507 259 500 c 128,-1,43
 263 493 263 493 269 489.5 c 128,-1,44
 275 486 275 486 277 478 c 1,45,46
 286 476 286 476 290.5 470.5 c 128,-1,47
 295 465 295 465 303 462 c 1,48,49
 305 457 305 457 307 453.5 c 128,-1,50
 309 450 309 450 311 445 c 1,51,52
 331 436 331 436 341 417 c 1,53,54
 354 407 354 407 363.5 394.5 c 128,-1,55
 373 382 373 382 384 371 c 1,56,57
 386 367 386 367 385.5 361.5 c 128,-1,58
 385 356 385 356 385 351 c 1,59,60
 380 346 380 346 376.5 342 c 128,-1,61
 373 338 373 338 368.5 336.5 c 128,-1,62
 364 335 364 335 358.5 337 c 128,-1,63
 353 339 353 339 346 340 c 1,64,65
 342 349 342 349 335.5 354.5 c 128,-1,66
 329 360 329 360 327 371 c 1,67,68
 316 382 316 382 306 387 c 1,69,70
 304 396 304 396 297.5 400.5 c 128,-1,71
 291 405 291 405 287.5 408 c 128,-1,72
 284 411 284 411 281 414 c 128,-1,73
 278 417 278 417 273 417 c 1,74,75
 271 422 271 422 266.5 425 c 128,-1,76
 262 428 262 428 257 432.5 c 128,-1,77
 252 437 252 437 247.5 442 c 128,-1,78
 243 447 243 447 237 445 c 0,79,80
 228 443 228 443 228.5 433 c 128,-1,81
 229 423 229 423 229 420 c 2,82,-1
 229 404 l 1,83,84
 225 391 225 391 226 388 c 128,-1,85
 227 385 227 385 224.5 376.5 c 128,-1,86
 222 368 222 368 223.5 362.5 c 128,-1,87
 225 357 225 357 225 349.5 c 128,-1,88
 225 342 225 342 220.5 334 c 128,-1,89
 216 326 216 326 220 318 c 1,90,91
 214 314 214 314 209 308 c 0,92,93
 193.428571429 289.314285714 193.428571429 289.314285714 169 317 c 1,94,95
 167 322 167 322 169 325 c 128,-1,96
 171 328 171 328 171 333 c 2,97,-1
 169 344 l 1,98,-1
 177 376 l 1,99,-1
 174 387 l 1,100,101
 177 402 177 402 175.5 406.5 c 128,-1,102
 174 411 174 411 174.5 415 c 128,-1,103
 175 419 175 419 176.5 421 c 128,-1,104
 178 423 178 423 179 428 c 128,-1,105
 180 433 180 433 179.5 439.5 c 128,-1,106
 179 446 179 446 179 453 c 1,107,108
 174 456 174 456 172.5 452.5 c 128,-1,109
 171 449 171 449 167 447 c 1,110,111
 152 447 152 447 148 442.5 c 128,-1,112
 144 438 144 438 138 435 c 0,113,114
 136 433 136 433 135 430.5 c 128,-1,115
 134 428 134 428 124 422.5 c 128,-1,116
 114 417 114 417 106 408.5 c 128,-1,117
 98 400 98 400 85 395 c 1,118,119
 80 386 80 386 73 380 c 1,120,121
 61 380 61 380 54 387 c 1,122,123
 52 395 52 395 55.5 399 c 128,-1,124
 59 403 59 403 57 412 c 1,125,126
 64 417 64 417 68 424 c 128,-1,127
 72 431 72 431 82 433 c 1,128,129
 86 439 86 439 90 445 c 1,130,131
 104 457 104 457 112.5 460.5 c 128,-1,132
 121 464 121 464 123 474 c 1,133,134
 130 473 130 473 132 478.5 c 128,-1,135
 134 484 134 484 143 483 c 1,136,137
 157 506 157 506 167 512 c 1,138,139
 158 522 158 522 153.5 526.5 c 128,-1,140
 149 531 149 531 141 531 c 1,141,142
 135 543 135 543 123.5 547.5 c 128,-1,143
 112 552 112 552 107 563 c 1,144,145
 102 564 102 564 100 566.5 c 128,-1,146
 98 569 98 569 93 570 c 1,147,148
 91 573 91 573 90 576 c 128,-1,149
 89 579 89 579 87 582 c 1,150,151
 75 590 75 590 62 610 c 1,152,153
 55 613 55 613 51.5 620.5 c 128,-1,154
 48 628 48 628 40 632 c 1,155,156
 39 643 39 643 38 644 c 128,-1,157
 37 645 37 645 37 648.5 c 128,-1,158
 37 652 37 652 42 664 c 1,159,-1
 54 660 l 2,160,161
 58 659 58 659 62 661.5 c 128,-1,162
 66 664 66 664 71 660 c 1,163,164
 79 650 79 650 83.5 646 c 128,-1,165
 88 642 88 642 90 637 c 1,166,167
 101 628 101 628 110.5 614.5 c 128,-1,168
 120 601 120 601 130 595 c 128,-1,169
 140 589 140 589 145 578 c 1,170,171
 151 578 151 578 155.5 572.5 c 128,-1,172
 160 567 160 567 165.5 567 c 128,-1,173
 171 567 171 567 174 569.5 c 128,-1,174
 177 572 177 572 182 574 c 1,175,176
 180 579 180 579 183 584.5 c 128,-1,177
 186 590 186 590 186 616.5 c 128,-1,178
 186 643 186 643 185 651.5 c 128,-1,179
 184 660 184 660 189 668 c 1,180,181
 186 679 186 679 190.5 692 c 128,-1,182
 195 705 195 705 194.5 707.5 c 128,-1,183
 194 710 194 710 195.5 713.5 c 128,-1,184
 197 717 197 717 200.5 719.5 c 128,-1,185
 204 722 204 722 205 726 c 1,186,187
 223 728 223 728 232 723 c 1,188,189
 241 712 241 712 241 694 c 128,-1,190
 241 676 241 676 234 664 c 1,191,192
 237 640 237 640 237 634 c 2,193,-1
 234 605 l 1,0,-1
EndSplineSet
EndChar

StartChar: plus
Encoding: 43 43 14
Width: 516
Flags: HW
LayerCount: 2
Fore
SplineSet
192 413 m 1,0,1
 194 417 194 417 194 433 c 128,-1,2
 194 449 194 449 197 470 c 1,3,-1
 194 485 l 1,4,-1
 194 498 l 1,5,-1
 195 520 l 2,6,7
 195 538 195 538 212 548 c 1,8,9
 220 548 220 548 232 549.5 c 128,-1,10
 244 551 244 551 244 541.5 c 128,-1,11
 244 532 244 532 248.5 529.5 c 128,-1,12
 253 527 253 527 255 520.5 c 128,-1,13
 257 514 257 514 256 507.5 c 128,-1,14
 255 501 255 501 256.5 489.5 c 128,-1,15
 258 478 258 478 257.5 469.5 c 128,-1,16
 257 461 257 461 260 454 c 1,17,18
 258 448 258 448 261 438 c 1,19,-1
 258 422 l 1,20,-1
 258 407 l 1,21,-1
 255 391 l 1,22,23
 256 381 256 381 260 370.5 c 128,-1,24
 264 360 264 360 265 346 c 1,25,26
 273 338 273 338 281 340.5 c 128,-1,27
 289 343 289 343 301 344.5 c 128,-1,28
 313 346 313 346 327 346 c 128,-1,29
 341 346 341 346 353 348.5 c 128,-1,30
 365 351 365 351 366 350 c 128,-1,31
 367 349 367 349 370 349.5 c 128,-1,32
 373 350 373 350 375.5 351 c 128,-1,33
 378 352 378 352 385 353.5 c 128,-1,34
 392 355 392 355 404.5 356 c 128,-1,35
 417 357 417 357 427 359 c 128,-1,36
 437 361 437 361 443.5 363 c 128,-1,37
 450 365 450 365 455.5 366.5 c 128,-1,38
 461 368 461 368 464.5 369 c 128,-1,39
 468 370 468 370 472 369.5 c 128,-1,40
 476 369 476 369 477.5 367 c 128,-1,41
 479 365 479 365 484 366 c 1,42,43
 485 360 485 360 487 354.5 c 128,-1,44
 489 349 489 349 487 344 c 0,45,46
 483 331 483 331 457 325 c 0,47,48
 447 322 447 322 432.5 322 c 128,-1,49
 418 322 418 322 413 323 c 128,-1,50
 408 324 408 324 402.5 323 c 128,-1,51
 397 322 397 322 393 318.5 c 128,-1,52
 389 315 389 315 381 313 c 1,53,-1
 360 311 l 2,54,55
 353 311 353 311 343 307 c 128,-1,56
 333 303 333 303 329.5 303.5 c 128,-1,57
 326 304 326 304 318.5 301 c 128,-1,58
 311 298 311 298 303 298 c 128,-1,59
 295 298 295 298 264 280 c 1,60,-1
 266 244 l 1,61,62
 263 232 263 232 263 228 c 2,63,-1
 268 191 l 2,64,65
 268 186 268 186 266.5 182 c 128,-1,66
 265 178 265 178 269 174 c 1,67,68
 266 165 266 165 262 157 c 1,69,-1
 262 133 l 2,70,71
 262 125 262 125 260 119 c 1,72,73
 255 114 255 114 252.5 115 c 128,-1,74
 250 116 250 116 247 114.5 c 128,-1,75
 244 113 244 113 237 106.5 c 128,-1,76
 230 100 230 100 222.5 104 c 128,-1,77
 215 108 215 108 214 114.5 c 128,-1,78
 213 121 213 121 211 128 c 1,79,80
 207 135 207 135 207 147.5 c 128,-1,81
 207 160 207 160 210 167 c 128,-1,82
 213 174 213 174 212 181 c 1,83,-1
 207 198 l 1,84,85
 207 202 207 202 208.5 206 c 128,-1,86
 210 210 210 210 208 213 c 1,87,88
 207 221 207 221 204.5 227 c 128,-1,89
 202 233 202 233 201.5 240.5 c 128,-1,90
 201 248 201 248 201.5 255.5 c 0,91,92
 203.39869281 283.980392157 203.39869281 283.980392157 190 288 c 0,93,94
 186 290 186 290 184.5 292.5 c 128,-1,95
 183 295 183 295 180 297 c 1,96,97
 171 297 171 297 161 302 c 1,98,99
 157 301 157 301 154.5 299 c 128,-1,100
 152 297 152 297 144.5 295.5 c 128,-1,101
 137 294 137 294 137 293 c 128,-1,102
 137 292 137 292 133.5 291 c 128,-1,103
 130 290 130 290 125.5 291 c 128,-1,104
 121 292 121 292 116 292 c 2,105,-1
 104 290 l 2,106,107
 100 290 100 290 97.5 291 c 128,-1,108
 95 292 95 292 88 289.5 c 128,-1,109
 81 287 81 287 73.5 286.5 c 128,-1,110
 66 286 66 286 55.5 288 c 128,-1,111
 45 290 45 290 34 288 c 1,112,113
 26 301 26 301 27 310 c 1,114,115
 32 315 32 315 39 314.5 c 0,116,117
 53.2121212121 313.484848485 53.2121212121 313.484848485 72 321 c 0,118,119
 74 321 74 321 78.5 319.5 c 128,-1,120
 83 318 83 318 89 319.5 c 128,-1,121
 95 321 95 321 103.5 323.5 c 128,-1,122
 112 326 112 326 122 327 c 1,123,-1
 136 327 l 1,124,125
 149 326 149 326 152.5 328 c 128,-1,126
 156 330 156 330 162.5 330.5 c 128,-1,127
 169 331 169 331 178 329 c 128,-1,128
 187 327 187 327 195 334 c 1,129,130
 199 344 199 344 197 353.5 c 128,-1,131
 195 363 195 363 199 374 c 1,132,133
 194 383 194 383 195.5 392.5 c 128,-1,134
 197 402 197 402 192 413 c 1,0,1
EndSplineSet
EndChar

StartChar: comma
Encoding: 44 44 15
Width: 197
Flags: HW
LayerCount: 2
Fore
SplineSet
151 82 m 1,0,-1
 155 36 l 2,1,2
 157 8 157 8 142 -2 c 1,3,4
 142 -7 142 -7 140 -10 c 128,-1,5
 138 -13 138 -13 139 -18 c 1,6,7
 129 -24 129 -24 125 -34 c 2,8,-1
 117 -50 l 2,9,10
 114 -57 114 -57 110 -62 c 1,11,12
 106 -64 106 -64 101 -69 c 1,13,14
 78 -79 78 -79 64 -67 c 1,15,16
 65 -59 65 -59 65.5 -53 c 128,-1,17
 66 -47 66 -47 68 -41 c 1,18,19
 71 -39 71 -39 73.5 -38 c 128,-1,20
 76 -37 76 -37 79 -35 c 1,21,22
 84 -23 84 -23 89.5 -16 c 128,-1,23
 95 -9 95 -9 95 -6.5 c 128,-1,24
 95 -4 95 -4 96 -2 c 0,25,26
 101 6 101 6 105 14 c 0,27,28
 116 33 116 33 97 52 c 1,29,30
 59 36 59 36 46 54 c 0,31,32
 42 58 42 58 44.5 61 c 128,-1,33
 47 64 47 64 47 68 c 128,-1,34
 47 72 47 72 45 74.5 c 128,-1,35
 43 77 43 77 41 80 c 1,36,37
 40 89 40 89 48 108 c 1,38,39
 71 129 71 129 100 118 c 1,40,41
 105 120 105 120 115 122 c 1,42,43
 121 118 121 118 126.5 113 c 128,-1,44
 132 108 132 108 138 104 c 1,45,46
 144 85 144 85 151 82 c 1,0,-1
EndSplineSet
EndChar

StartChar: hyphen
Encoding: 45 45 16
Width: 398
Flags: HW
LayerCount: 2
Fore
SplineSet
193 244 m 1,0,1
 186 246 186 246 181.5 244 c 128,-1,2
 177 242 177 242 171 240 c 1,3,4
 160 242 160 242 148 246 c 128,-1,5
 136 250 136 250 128 242 c 1,6,7
 123 241 123 241 115.5 241.5 c 128,-1,8
 108 242 108 242 102.5 239.5 c 0,9,10
 93.8571428571 235.571428571 93.8571428571 235.571428571 84.4285714286 240.785714286 c 128,-1,11
 75 246 75 246 69 246 c 128,-1,12
 63 246 63 246 61 251 c 1,13,14
 61 263 61 263 69 276 c 1,15,16
 86 279 86 279 103.5 281 c 128,-1,17
 121 283 121 283 136 286 c 1,18,19
 143 286 143 286 148 283 c 1,20,21
 160 291 160 291 174 288 c 128,-1,22
 188 285 188 285 200.5 287 c 128,-1,23
 213 289 213 289 223.5 293.5 c 128,-1,24
 234 298 234 298 246 300 c 128,-1,25
 258 302 258 302 269 301 c 128,-1,26
 280 300 280 300 293 303 c 128,-1,27
 306 306 306 306 314.5 303.5 c 128,-1,28
 323 301 323 301 333 303 c 1,29,30
 340 290 340 290 338 272 c 1,31,32
 329 261 329 261 320 256 c 1,33,34
 290 264 290 264 270 254 c 128,-1,35
 250 244 250 244 235 248.5 c 128,-1,36
 220 253 220 253 215.5 252 c 128,-1,37
 211 251 211 251 193 244 c 1,0,1
EndSplineSet
EndChar

StartChar: period
Encoding: 46 46 17
Width: 185
Flags: HW
LayerCount: 2
Fore
SplineSet
76 137 m 1,0,1
 83 136 83 136 85.5 132.5 c 128,-1,2
 88 129 88 129 92 126 c 1,3,4
 101 130 101 130 105 123 c 1,5,6
 118 121 118 121 122.5 117 c 128,-1,7
 127 113 127 113 133.5 106.5 c 128,-1,8
 140 100 140 100 142.5 93.5 c 0,9,10
 147.287234043 81.0531914894 147.287234043 81.0531914894 144 69 c 1,11,12
 134 50 134 50 132 37 c 1,13,14
 127 36 127 36 124.5 33 c 128,-1,15
 122 30 122 30 119 28 c 0,16,17
 102 22 102 22 89 28 c 128,-1,18
 76 34 76 34 75 37 c 128,-1,19
 74 40 74 40 67 41 c 128,-1,20
 60 42 60 42 56 44 c 1,21,22
 54 50 54 50 49 56.5 c 128,-1,23
 44 63 44 63 48 71 c 1,24,25
 45 77 45 77 38 80 c 1,26,27
 44 90 44 90 45.5 98 c 128,-1,28
 47 106 47 106 52.5 112.5 c 128,-1,29
 58 119 58 119 63.5 125.5 c 128,-1,30
 69 132 69 132 76 137 c 1,0,1
EndSplineSet
EndChar

StartChar: slash
Encoding: 47 47 18
Width: 300
Flags: HW
LayerCount: 2
Fore
SplineSet
158 553 m 1,0,1
 167 563 167 563 168 580 c 128,-1,2
 169 597 169 597 172 600 c 128,-1,3
 175 603 175 603 177 608 c 1,4,5
 176 627 176 627 183.5 644 c 128,-1,6
 191 661 191 661 194 680 c 1,7,8
 200 681 200 681 205.5 683.5 c 128,-1,9
 211 686 211 686 220 688.5 c 128,-1,10
 229 691 229 691 239 681 c 1,11,12
 242 669 242 669 245.5 660.5 c 128,-1,13
 249 652 249 652 247.5 639.5 c 128,-1,14
 246 627 246 627 248 618 c 1,15,16
 242.349112426 610.088757396 242.349112426 610.088757396 240.174556213 582.544378698 c 128,-1,17
 238 555 238 555 226 542 c 1,18,19
 227 530 227 530 224 518 c 128,-1,20
 221 506 221 506 221.5 503 c 128,-1,21
 222 500 222 500 220.5 496 c 128,-1,22
 219 492 219 492 216 486.5 c 128,-1,23
 213 481 213 481 211 475 c 1,24,25
 212 467 212 467 210.5 466 c 128,-1,26
 209 465 209 465 208 463 c 128,-1,27
 207 461 207 461 208 457 c 128,-1,28
 209 453 209 453 207.5 450.5 c 128,-1,29
 206 448 206 448 203 444.5 c 128,-1,30
 200 441 200 441 197.5 432.5 c 128,-1,31
 195 424 195 424 196.5 409 c 128,-1,32
 198 394 198 394 193.5 385.5 c 128,-1,33
 189 377 189 377 189.5 375.5 c 128,-1,34
 190 374 190 374 190 372 c 1,35,36
 184 365 184 365 184.5 361 c 128,-1,37
 185 357 185 357 184.5 354.5 c 128,-1,38
 184 352 184 352 181.5 349.5 c 128,-1,39
 179 347 179 347 181 342 c 1,40,41
 178 339 178 339 176 335 c 128,-1,42
 174 331 174 331 171 327 c 1,43,44
 170 322 170 322 172 320 c 128,-1,45
 174 318 174 318 174 314 c 1,46,47
 171 309 171 309 169.5 302.5 c 128,-1,48
 168 296 168 296 164 291 c 1,49,50
 163 285 163 285 165 282.5 c 128,-1,51
 167 280 167 280 167 273 c 1,52,53
 162 259 162 259 157 250 c 1,54,55
 162 234 162 234 150 213 c 1,56,57
 151 191 151 191 143.5 174.5 c 128,-1,58
 136 158 136 158 130.5 143.5 c 128,-1,59
 125 129 125 129 123 124.5 c 128,-1,60
 121 120 121 120 121.5 115.5 c 128,-1,61
 122 111 122 111 120.5 106.5 c 128,-1,62
 119 102 119 102 116.5 98.5 c 128,-1,63
 114 95 114 95 112 90 c 128,-1,64
 110 85 110 85 109 82 c 0,65,66
 107 76 107 76 101 74 c 2,67,-1
 90 69 l 2,68,69
 69.5384615385 60.2307692308 69.5384615385 60.2307692308 62.7692307692 63.6153846154 c 128,-1,70
 56 67 56 67 50.5 75.5 c 128,-1,71
 45 84 45 84 44 89.5 c 128,-1,72
 43 95 43 95 45 98.5 c 128,-1,73
 47 102 47 102 49 110.5 c 128,-1,74
 51 119 51 119 53 125 c 2,75,-1
 57 138 l 2,76,77
 60 146 60 146 65 153 c 1,78,79
 63 162 63 162 66 166.5 c 128,-1,80
 69 171 69 171 71 176 c 1,81,82
 76 231 76 231 85 249 c 1,83,84
 84 262 84 262 90 268 c 1,85,86
 90 294 90 294 99.5 319.5 c 128,-1,87
 109 345 109 345 108 355.5 c 128,-1,88
 107 366 107 366 111.5 367 c 128,-1,89
 116 368 116 368 118 380.5 c 128,-1,90
 120 393 120 393 125.5 415 c 128,-1,91
 131 437 131 437 134.5 450.5 c 128,-1,92
 138 464 138 464 140 473 c 128,-1,93
 142 482 142 482 142.5 485.5 c 128,-1,94
 143 489 143 489 144 493.5 c 128,-1,95
 145 498 145 498 148 505 c 128,-1,96
 151 512 151 512 151 515.5 c 128,-1,97
 151 519 151 519 152.5 524.5 c 128,-1,98
 154 530 154 530 157 537.5 c 128,-1,99
 160 545 160 545 158 553 c 1,0,1
EndSplineSet
EndChar

StartChar: zero
Encoding: 48 48 19
Width: 421
Flags: HW
LayerCount: 2
Fore
SplineSet
168.5 559 m 1,0,-1
 207 568 l 1,1,2
 216 568 216 568 223.5 565 c 128,-1,3
 231 562 231 562 238 561 c 128,-1,4
 245 560 245 560 251 560.5 c 128,-1,5
 257 561 257 561 263.5 560 c 128,-1,6
 270 559 270 559 276 556.5 c 128,-1,7
 282 554 282 554 290 557 c 1,8,9
 292 553 292 553 295 554 c 0,10,11
 301 556 301 556 312 545 c 1,12,13
 320 540 320 540 320.5 538.5 c 128,-1,14
 321 537 321 537 324.5 534 c 128,-1,15
 328 531 328 531 334 527.5 c 128,-1,16
 340 524 340 524 346 519 c 1,17,18
 349 508 349 508 362 492 c 1,19,20
 364 487 364 487 366.5 474 c 128,-1,21
 369 461 369 461 374.5 449.5 c 128,-1,22
 380 438 380 438 380 429.5 c 128,-1,23
 380 421 380 421 381 416 c 2,24,-1
 383 396 l 1,25,-1
 379 384 l 2,26,27
 379 383 379 383 379.5 379.5 c 128,-1,28
 380 376 380 376 379 371.5 c 128,-1,29
 378 367 378 367 376 361 c 128,-1,30
 374 355 374 355 376 348 c 1,31,32
 371 345 371 345 370.5 338.5 c 128,-1,33
 370 332 370 332 365 329 c 1,34,35
 357 317 357 317 356 314 c 128,-1,36
 355 311 355 311 353 307 c 2,37,-1
 348 297 l 2,38,39
 345 291 345 291 336.5 288.5 c 128,-1,40
 328 286 328 286 325.5 282.5 c 128,-1,41
 323 279 323 279 321 276 c 1,42,43
 310 271 310 271 305 266 c 128,-1,44
 300 261 300 261 295.5 259 c 128,-1,45
 291 257 291 257 284 255.5 c 128,-1,46
 277 254 277 254 271 252 c 256,47,48
 265 250 265 250 254.5 249.5 c 128,-1,49
 244 249 244 249 236 246.5 c 128,-1,50
 228 244 228 244 228 243 c 128,-1,51
 228 242 228 242 215 239 c 128,-1,52
 202 236 202 236 192 236 c 1,53,-1
 170 241 l 2,54,55
 164 242 164 242 157.5 240 c 128,-1,56
 151 238 151 238 145 240.5 c 128,-1,57
 139 243 139 243 135 247.5 c 128,-1,58
 131 252 131 252 122 252 c 1,59,60
 120 256 120 256 116.5 258 c 128,-1,61
 113 260 113 260 108 263 c 128,-1,62
 103 266 103 266 96 269 c 1,63,64
 91 279 91 279 82.5 284.5 c 128,-1,65
 74 290 74 290 72 302 c 1,66,67
 54 313 54 313 49 332 c 0,68,69
 48 335 48 335 48.5 338 c 128,-1,70
 49 341 49 341 46.5 346 c 128,-1,71
 44 351 44 351 40.5 357 c 0,72,73
 34.3191489362 367.595744681 34.3191489362 367.595744681 38 386 c 1,74,75
 38 396 38 396 39.5 397.5 c 128,-1,76
 41 399 41 399 41.5 402.5 c 128,-1,77
 42 406 42 406 40.5 411 c 128,-1,78
 39 416 39 416 40.5 424 c 128,-1,79
 42 432 42 432 48 440 c 128,-1,80
 54 448 54 448 53 457 c 1,81,82
 57 459 57 459 58.5 463.5 c 128,-1,83
 60 468 60 468 64 474.5 c 128,-1,84
 68 481 68 481 67.5 483 c 128,-1,85
 67 485 67 485 78 497.5 c 128,-1,86
 89 510 89 510 90 519 c 1,87,88
 98 519 98 519 100.5 523.5 c 128,-1,89
 103 528 103 528 106 532 c 1,90,91
 110 532 110 532 112.5 534 c 128,-1,92
 115 536 115 536 119 538 c 128,-1,93
 123 540 123 540 127 542.5 c 128,-1,94
 131 545 131 545 137.5 546.5 c 128,-1,95
 144 548 144 548 149 551.5 c 0,96,97
 159.714285714 559 159.714285714 559 168.5 559 c 1,0,-1
329 421 m 1,98,-1
 319 437 l 1,99,100
 319 443 319 443 317 448 c 128,-1,101
 315 453 315 453 314 457 c 1,102,103
 308 466 308 466 308 469.5 c 128,-1,104
 308 473 308 473 306.5 476.5 c 128,-1,105
 305 480 305 480 303 485 c 128,-1,106
 301 490 301 490 297.5 493.5 c 128,-1,107
 294 497 294 497 290 500.5 c 128,-1,108
 286 504 286 504 281 509 c 1,109,110
 275 508 275 508 271 511 c 128,-1,111
 267 514 267 514 262 515.5 c 128,-1,112
 257 517 257 517 251.5 517 c 128,-1,113
 246 517 246 517 240 518 c 1,114,115
 232 524 232 524 222 526.5 c 2,116,-1
 208 530 l 2,117,118
 197.217391304 532.695652174 197.217391304 532.695652174 161 512 c 1,119,120
 159 502 159 502 155.5 493.5 c 128,-1,121
 152 485 152 485 154 471 c 1,122,123
 147 458 147 458 151 450 c 1,124,125
 146 444 146 444 145 437.5 c 128,-1,126
 144 431 144 431 140 414 c 128,-1,127
 136 397 136 397 139.5 375.5 c 128,-1,128
 143 354 143 354 144 341 c 1,129,130
 148 339 148 339 150 334 c 128,-1,131
 152 329 152 329 156 321.5 c 128,-1,132
 160 314 160 314 160 309 c 1,133,134
 168 303 168 303 174 295 c 1,135,136
 183 293 183 293 190.5 290 c 128,-1,137
 198 287 198 287 206 284 c 1,138,139
 214 288 214 288 220 287 c 128,-1,140
 226 286 226 286 232 288 c 128,-1,141
 238 290 238 290 242.5 293 c 128,-1,142
 247 296 247 296 251.5 297.5 c 128,-1,143
 256 299 256 299 260.5 298.5 c 128,-1,144
 265 298 265 298 268.5 300 c 128,-1,145
 272 302 272 302 274 304.5 c 128,-1,146
 276 307 276 307 281 311 c 128,-1,147
 286 315 286 315 287 314.5 c 128,-1,148
 288 314 288 314 291.5 317 c 128,-1,149
 295 320 295 320 298.5 322.5 c 128,-1,150
 302 325 302 325 306 330 c 128,-1,151
 310 335 310 335 315 339 c 128,-1,152
 320 343 320 343 326 348 c 1,153,154
 331 368 331 368 329 383.5 c 128,-1,155
 327 399 327 399 329 421 c 1,98,-1
EndSplineSet
EndChar

StartChar: one
Encoding: 49 49 20
Width: 345
Flags: HW
LayerCount: 2
Fore
SplineSet
277 486 m 2,0,-1
 274 468 l 2,1,2
 274 463 274 463 274.5 459.5 c 128,-1,3
 275 456 275 456 274 449.5 c 128,-1,4
 273 443 273 443 271 434.5 c 128,-1,5
 269 426 269 426 272 415 c 1,6,7
 276 411 276 411 273 389 c 128,-1,8
 270 367 270 367 281 336 c 1,9,10
 276 322 276 322 278 305.5 c 128,-1,11
 280 289 280 289 279.5 278 c 128,-1,12
 279 267 279 267 275.5 251.5 c 128,-1,13
 272 236 272 236 274 214 c 128,-1,14
 276 192 276 192 276 171 c 128,-1,15
 276 150 276 150 273 143 c 128,-1,16
 270 136 270 136 268 130 c 128,-1,17
 266 124 266 124 265 116 c 128,-1,18
 264 108 264 108 261.5 94.5 c 128,-1,19
 259 81 259 81 259 67 c 1,20,21
 253 57 253 57 242 52.5 c 128,-1,22
 231 48 231 48 221 41 c 1,23,24
 212 43 212 43 206.5 42 c 128,-1,25
 201 41 201 41 193 43 c 1,26,27
 191 45 191 45 188 50.5 c 128,-1,28
 185 56 185 56 181.5 60 c 128,-1,29
 178 64 178 64 177 68.5 c 128,-1,30
 176 73 176 73 177 77 c 128,-1,31
 178 81 178 81 178.5 89.5 c 128,-1,32
 179 98 179 98 177 112 c 128,-1,33
 175 126 175 126 180 134 c 1,34,35
 177 139 177 139 178 145.5 c 128,-1,36
 179 152 179 152 179 158 c 1,37,-1
 175 175 l 1,38,39
 176 183 176 183 173 194 c 1,40,-1
 175 208 l 1,41,42
 175 241 175 241 168 251 c 1,43,44
 170 254 170 254 170 259 c 128,-1,45
 170 264 170 264 173 266 c 1,46,47
 174 271 174 271 170.5 273 c 128,-1,48
 167 275 167 275 173 293 c 1,49,50
 168 323 168 323 168 343 c 1,51,-1
 172 356 l 2,52,53
 172 359 172 359 170.5 362.5 c 128,-1,54
 169 366 169 366 172.5 379.5 c 128,-1,55
 176 393 176 393 175.5 411 c 128,-1,56
 175 429 175 429 175 445 c 1,57,-1
 179 458 l 1,58,-1
 177 472 l 1,59,60
 177 488 177 488 172 496 c 1,61,62
 165 496 165 496 161 491 c 0,63,64
 155 481 155 481 149 481 c 1,65,66
 142 470 142 470 139.5 468.5 c 128,-1,67
 137 467 137 467 136 465 c 1,68,69
 88 460 88 460 70 449 c 1,70,71
 65 452 65 452 58.5 450.5 c 128,-1,72
 52 449 52 449 46 449 c 1,73,74
 30 454 30 454 23.5 454 c 128,-1,75
 17 454 17 454 9 456 c 1,76,77
 6 465 6 465 9 477 c 1,78,79
 14 481 14 481 18 481.5 c 128,-1,80
 22 482 22 482 29.5 485 c 128,-1,81
 37 488 37 488 40.5 486.5 c 128,-1,82
 44 485 44 485 57 487.5 c 128,-1,83
 70 490 70 490 88.5 496.5 c 128,-1,84
 107 503 107 503 113.5 505 c 0,85,86
 125.777777778 508.777777778 125.777777778 508.777777778 134 517 c 1,87,88
 145 521 145 521 147 520 c 1,89,90
 150 525 150 525 155 528.5 c 128,-1,91
 160 532 160 532 159 542 c 1,92,93
 164 547 164 547 169 550 c 128,-1,94
 174 553 174 553 173 561 c 1,95,96
 178 561 178 561 184.5 567.5 c 128,-1,97
 191 574 191 574 193 578.5 c 128,-1,98
 195 583 195 583 194 586.5 c 128,-1,99
 193 590 193 590 195 594 c 1,100,101
 201 598 201 598 202.5 602.5 c 128,-1,102
 204 607 204 607 209 609 c 1,103,104
 217 607 217 607 225 609.5 c 128,-1,105
 233 612 233 612 240 611 c 1,106,107
 257 604 257 604 259.5 599.5 c 128,-1,108
 262 595 262 595 266 583 c 1,109,110
 272 573 272 573 271.5 568.5 c 128,-1,111
 271 564 271 564 272 559.5 c 128,-1,112
 273 555 273 555 275 551.5 c 128,-1,113
 277 548 277 548 278.5 540.5 c 128,-1,114
 280 533 280 533 278 513.5 c 128,-1,115
 276 494 276 494 277 491 c 128,-1,116
 278 488 278 488 277 486 c 2,0,-1
EndSplineSet
EndChar

StartChar: two
Encoding: 50 50 21
Width: 404
Flags: HW
LayerCount: 2
Fore
SplineSet
250 171 m 2,0,-1
 240 158.5 l 2,1,2
 240 158 240 158 236 152 c 128,-1,3
 232 146 232 146 228 140 c 128,-1,4
 224 134 224 134 216 127 c 128,-1,5
 208 120 208 120 204 116 c 128,-1,6
 200 112 200 112 202 105 c 1,7,8
 211 96 211 96 222 99.5 c 128,-1,9
 233 103 233 103 241.5 103 c 128,-1,10
 250 103 250 103 257.5 100.5 c 128,-1,11
 265 98 265 98 272.5 101.5 c 128,-1,12
 280 105 280 105 283 104 c 0,13,14
 289.333333333 101.888888889 289.333333333 101.888888889 300.166666667 108.444444444 c 128,-1,15
 311 115 311 115 316.5 114.5 c 128,-1,16
 322 114 322 114 327.5 113 c 128,-1,17
 333 112 333 112 336.5 113.5 c 128,-1,18
 340 115 340 115 342 110 c 0,19,20
 348 98 348 98 340 77 c 1,21,22
 335 75 335 75 323.5 74.5 c 128,-1,23
 312 74 312 74 308 79 c 1,24,25
 304 77 304 77 297.5 72.5 c 128,-1,26
 291 68 291 68 283.5 68 c 128,-1,27
 276 68 276 68 272 65 c 1,28,29
 267 69 267 69 262.5 67.5 c 128,-1,30
 258 66 258 66 246.5 66.5 c 128,-1,31
 235 67 235 67 225.5 63.5 c 128,-1,32
 216 60 216 60 206 68 c 1,33,34
 189 60 189 60 168.5 57.5 c 128,-1,35
 148 55 148 55 135.5 49.5 c 128,-1,36
 123 44 123 44 116.5 39.5 c 128,-1,37
 110 35 110 35 100 38 c 1,38,39
 96 37 96 37 93.5 35 c 128,-1,40
 91 33 91 33 85 35 c 1,41,42
 77 41 77 41 73 45 c 1,43,44
 71 50 71 50 74.5 55 c 128,-1,45
 78 60 78 60 79.5 67 c 128,-1,46
 81 74 81 74 86 79 c 1,47,48
 90 87 90 87 91.5 88 c 128,-1,49
 93 89 93 89 96 95 c 128,-1,50
 99 101 99 101 104 106 c 128,-1,51
 109 111 109 111 116.5 126 c 128,-1,52
 124 141 124 141 126 141 c 256,53,54
 128 141 128 141 142 169.5 c 128,-1,55
 156 198 156 198 158.5 204 c 128,-1,56
 161 210 161 210 169 221 c 128,-1,57
 177 232 177 232 184 259 c 1,58,59
 189 271 189 271 189.5 276.5 c 128,-1,60
 190 282 190 282 192.5 291 c 128,-1,61
 195 300 195 300 199.5 311.5 c 128,-1,62
 204 323 204 323 204 329.5 c 128,-1,63
 204 336 204 336 206 343 c 128,-1,64
 208 350 208 350 211.5 359.5 c 128,-1,65
 215 369 215 369 216.5 377.5 c 128,-1,66
 218 386 218 386 218 390.5 c 128,-1,67
 218 395 218 395 219.5 399 c 128,-1,68
 221 403 221 403 222 406 c 128,-1,69
 223 409 223 409 224.5 412 c 128,-1,70
 226 415 226 415 226.5 418 c 128,-1,71
 227 421 227 421 230.5 430.5 c 128,-1,72
 234 440 234 440 234 452 c 1,73,-1
 232 464 l 1,74,75
 237 478 237 478 237 482.5 c 0,76,77
 237 490 237 490 240 505 c 1,78,-1
 241 520 l 1,79,80
 243 530 243 530 241 533.5 c 128,-1,81
 239 537 239 537 239 543 c 128,-1,82
 239 549 239 549 240.5 557.5 c 128,-1,83
 242 566 242 566 238.5 574 c 128,-1,84
 235 582 235 582 236 583.5 c 128,-1,85
 237 585 237 585 233 591.5 c 128,-1,86
 229 598 229 598 228 602.5 c 128,-1,87
 227 607 227 607 225 611.5 c 128,-1,88
 223 616 223 616 220 622 c 128,-1,89
 217 628 217 628 215 634 c 1,90,91
 201 637 201 637 191 644.5 c 128,-1,92
 181 652 181 652 167 654 c 1,93,94
 158 651 158 651 148.5 646.5 c 128,-1,95
 139 642 139 642 131 644 c 1,96,97
 128 641 128 641 125 637 c 128,-1,98
 122 633 122 633 115.5 629.5 c 128,-1,99
 109 626 109 626 104 618 c 128,-1,100
 99 610 99 610 94.5 605 c 128,-1,101
 90 600 90 600 84 596 c 128,-1,102
 78 592 78 592 73 587 c 1,103,104
 66 575 66 575 66 570 c 128,-1,105
 66 565 66 565 61 563 c 1,106,107
 62 553 62 553 59.5 550.5 c 128,-1,108
 57 548 57 548 56 545 c 128,-1,109
 55 542 55 542 56 539 c 128,-1,110
 57 536 57 536 54.5 526 c 128,-1,111
 52 516 52 516 56 506.5 c 128,-1,112
 60 497 60 497 68 494 c 1,113,114
 67 489 67 489 69.5 487 c 128,-1,115
 72 485 72 485 71 481 c 1,116,117
 79 482 79 482 83.5 481.5 c 128,-1,118
 88 481 88 481 95 484 c 1,119,120
 102 496 102 496 100.5 508.5 c 128,-1,121
 99 521 99 521 104 535 c 1,122,123
 112 537 112 537 124 533.5 c 128,-1,124
 136 530 136 530 141 525 c 1,125,126
 141 521 141 521 142.5 518.5 c 128,-1,127
 144 516 144 516 145 510.5 c 128,-1,128
 146 505 146 505 142.5 498.5 c 128,-1,129
 139 492 139 492 143 481 c 1,130,131
 138 474 138 474 134.5 467 c 128,-1,132
 131 460 131 460 127.5 456.5 c 128,-1,133
 124 453 124 453 120.5 453.5 c 128,-1,134
 117 454 117 454 116 450 c 1,135,136
 104 451 104 451 104 449 c 128,-1,137
 104 447 104 447 104 445 c 1,138,139
 98 448 98 448 94 446 c 128,-1,140
 90 444 90 444 82 445.5 c 128,-1,141
 74 447 74 447 66 454 c 128,-1,142
 58 461 58 461 47 462 c 1,143,144
 44 465 44 465 43 468.5 c 128,-1,145
 42 472 42 472 37.5 480 c 128,-1,146
 33 488 33 488 30.5 491.5 c 128,-1,147
 28 495 28 495 26.5 501.5 c 128,-1,148
 25 508 25 508 27.5 517.5 c 128,-1,149
 30 527 30 527 25 537 c 1,150,151
 29 543 29 543 28 550 c 128,-1,152
 27 557 27 557 28 561.5 c 128,-1,153
 29 566 29 566 31.5 571 c 128,-1,154
 34 576 34 576 36 581.5 c 128,-1,155
 38 587 38 587 40.5 592.5 c 128,-1,156
 43 598 43 598 45.5 604.5 c 128,-1,157
 48 611 48 611 55 618.5 c 128,-1,158
 62 626 62 626 64 635 c 1,159,160
 72 640 72 640 77.5 646.5 c 128,-1,161
 83 653 83 653 93 655 c 1,162,163
 93 662 93 662 96 664 c 128,-1,164
 99 666 99 666 100 671 c 1,165,166
 115 676 115 676 130 683.5 c 128,-1,167
 145 691 145 691 150 691.5 c 128,-1,168
 155 692 155 692 169 693 c 2,169,-1
 186 695 l 1,170,171
 196 690 196 690 201 690 c 128,-1,172
 206 690 206 690 212.5 688.5 c 128,-1,173
 219 687 219 687 230 686 c 128,-1,174
 241 685 241 685 250.5 679 c 128,-1,175
 260 673 260 673 267 669 c 1,176,177
 278 660 278 660 281 659.5 c 128,-1,178
 284 659 284 659 288 656 c 128,-1,179
 292 653 292 653 295 647 c 128,-1,180
 298 641 298 641 304 641 c 1,181,182
 307 624 307 624 322 614 c 1,183,184
 320 610 320 610 322.5 607 c 128,-1,185
 325 604 325 604 326.5 600 c 128,-1,186
 328 596 328 596 328.5 592 c 128,-1,187
 329 588 329 588 332 581 c 128,-1,188
 335 574 335 574 338 566.5 c 128,-1,189
 341 559 341 559 340 556.5 c 128,-1,190
 339 554 339 554 340.5 549 c 128,-1,191
 342 544 342 544 344.5 536.5 c 0,192,193
 355.818181818 502.545454545 355.818181818 502.545454545 351 464 c 1,194,-1
 352 460 l 1,195,196
 345 455 345 455 346 445.5 c 128,-1,197
 347 436 347 436 345.5 426.5 c 128,-1,198
 344 417 344 417 342.5 410.5 c 128,-1,199
 341 404 341 404 344 399 c 1,200,201
 338 391 338 391 337 380 c 128,-1,202
 336 369 336 369 333.5 361 c 128,-1,203
 331 353 331 353 329 349 c 128,-1,204
 327 345 327 345 324.5 337 c 128,-1,205
 322 329 322 329 321.5 319 c 128,-1,206
 321 309 321 309 311 306 c 1,207,208
 312 296 312 296 304 288 c 1,209,210
 305 285 305 285 302 274 c 1,211,212
 302 263 302 263 298 258 c 128,-1,213
 294 253 294 253 292 248.5 c 128,-1,214
 290 244 290 244 291 240 c 128,-1,215
 292 236 292 236 289 229.5 c 128,-1,216
 286 223 286 223 278.5 213.5 c 128,-1,217
 271 204 271 204 267.5 199.5 c 128,-1,218
 264 195 264 195 260 190 c 1,219,220
 259 186 259 186 257.5 184 c 128,-1,221
 256 182 256 182 256 177 c 1,222,223
 250 172 250 172 250 171 c 2,0,-1
EndSplineSet
EndChar

StartChar: three
Encoding: 51 51 22
Width: 401
Flags: HW
LayerCount: 2
Fore
SplineSet
312 659 m 1,0,-1
 322 654 l 1,1,2
 357 641 357 641 343 602 c 0,3,4
 341 594 341 594 337.5 588 c 128,-1,5
 334 582 334 582 331 572 c 1,6,7
 325 568 325 568 321 562.5 c 128,-1,8
 317 557 317 557 311 554 c 1,9,10
 310 549 310 549 307 545.5 c 128,-1,11
 304 542 304 542 303 537 c 1,12,13
 300 535 300 535 298 532.5 c 128,-1,14
 296 530 296 530 292 530 c 1,15,16
 289 519 289 519 277.5 505 c 128,-1,17
 266 491 266 491 262 478 c 1,18,19
 257 476 257 476 254.5 472 c 128,-1,20
 252 468 252 468 243 459 c 128,-1,21
 234 450 234 450 225 441 c 128,-1,22
 216 432 216 432 210 421 c 1,23,24
 214 413 214 413 227 410 c 128,-1,25
 240 407 240 407 247 398 c 1,26,27
 256 400 256 400 267 393 c 128,-1,28
 278 386 278 386 285 386 c 1,29,30
 294 378 294 378 300 367 c 128,-1,31
 306 356 306 356 317 348 c 1,32,33
 322 322 322 322 330 309 c 1,34,-1
 336 285 l 1,35,36
 340 274 340 274 339.5 269.5 c 128,-1,37
 339 265 339 265 343 262 c 1,38,39
 344 239 344 239 345 219 c 128,-1,40
 346 199 346 199 341 177 c 1,41,42
 328 143 328 143 322 122 c 1,43,44
 299.894736842 107.263157895 299.894736842 107.263157895 297 87 c 1,45,46
 290 82 290 82 282 78.5 c 128,-1,47
 274 75 274 75 269 67 c 1,48,49
 254 63 254 63 244.5 56.5 c 128,-1,50
 235 50 235 50 231 49.5 c 128,-1,51
 227 49 227 49 225 45 c 1,52,-1
 212 46 l 1,53,54
 207 44 207 44 201 42 c 128,-1,55
 195 40 195 40 186.5 33.5 c 128,-1,56
 178 27 178 27 157 31 c 128,-1,57
 136 35 136 35 135 36.5 c 128,-1,58
 134 38 134 38 130.5 39 c 128,-1,59
 127 40 127 40 123.5 38.5 c 128,-1,60
 120 37 120 37 111 41 c 128,-1,61
 102 45 102 45 99 51 c 128,-1,62
 96 57 96 57 91.5 57 c 128,-1,63
 87 57 87 57 80.5 61 c 128,-1,64
 74 65 74 65 75 67 c 128,-1,65
 76 69 76 69 70 74 c 128,-1,66
 64 79 64 79 62 82 c 128,-1,67
 60 85 60 85 53 94.5 c 128,-1,68
 46 104 46 104 44 109.5 c 128,-1,69
 42 115 42 115 39.5 117 c 128,-1,70
 37 119 37 119 35 122 c 1,71,72
 34 128 34 128 32 131 c 128,-1,73
 30 134 30 134 30 140 c 2,74,-1
 30 150 l 2,75,76
 30 154 30 154 29 157 c 1,77,-1
 29 170 l 1,78,-1
 36 202 l 1,79,80
 36 207 36 207 40.5 213 c 128,-1,81
 45 219 45 219 45 221 c 128,-1,82
 45 223 45 223 46.5 226 c 128,-1,83
 48 229 48 229 51.5 232 c 128,-1,84
 55 235 55 235 56 240 c 1,85,86
 69 248 69 248 83.5 250.5 c 128,-1,87
 98 253 98 253 104.5 255 c 128,-1,88
 111 257 111 257 116.5 256.5 c 128,-1,89
 122 256 122 256 128 252 c 1,90,-1
 140 249 l 1,91,92
 150 248 150 248 153.5 246 c 128,-1,93
 157 244 157 244 163 245 c 1,94,95
 167 240 167 240 168 233 c 128,-1,96
 169 226 169 226 170.5 219 c 128,-1,97
 172 212 172 212 172 208.5 c 128,-1,98
 172 205 172 205 167.5 196.5 c 128,-1,99
 163 188 163 188 153 187.5 c 128,-1,100
 143 187 143 187 140 192.5 c 128,-1,101
 137 198 137 198 125 199 c 1,102,103
 121 204 121 204 118.5 208.5 c 128,-1,104
 116 213 116 213 106 216.5 c 128,-1,105
 96 220 96 220 71 199 c 1,106,107
 71 191 71 191 67.5 189 c 128,-1,108
 64 187 64 187 62 183 c 1,109,110
 63 177 63 177 63 167.5 c 128,-1,111
 63 158 63 158 58 154 c 1,112,113
 58 148 58 148 62 145 c 128,-1,114
 66 142 66 142 64 135 c 1,115,116
 75 124 75 124 78 113 c 1,117,118
 96 105 96 105 99 94 c 1,119,120
 111 91 111 91 124 78 c 1,121,122
 130 76 130 76 139.5 75.5 c 128,-1,123
 149 75 149 75 155 72 c 1,124,125
 162 73 162 73 165.5 77.5 c 128,-1,126
 169 82 169 82 177 82 c 1,127,128
 186 97 186 97 189.5 100 c 128,-1,129
 193 103 193 103 193.5 106 c 128,-1,130
 194 109 194 109 197.5 116 c 128,-1,131
 201 123 201 123 203 128 c 128,-1,132
 205 133 205 133 207 136 c 128,-1,133
 209 139 209 139 206 145 c 1,134,135
 212 152 212 152 213.5 161.5 c 128,-1,136
 215 171 215 171 217.5 179.5 c 128,-1,137
 220 188 220 188 222 193.5 c 128,-1,138
 224 199 224 199 225 205.5 c 128,-1,139
 226 212 226 212 226 217.5 c 128,-1,140
 226 223 226 223 228 232.5 c 128,-1,141
 230 242 230 242 233 251.5 c 128,-1,142
 236 261 236 261 237.5 267 c 128,-1,143
 239 273 239 273 238 277 c 128,-1,144
 237 281 237 281 240 290 c 128,-1,145
 243 299 243 299 243 307 c 2,146,-1
 243 321.5 l 2,147,148
 243 328 243 328 243.5 335.5 c 128,-1,149
 244 343 244 343 241.5 349 c 128,-1,150
 239 355 239 355 229 358 c 128,-1,151
 219 361 219 361 214 369 c 1,152,153
 205 366 205 366 195 368 c 128,-1,154
 185 370 185 370 171 365.5 c 128,-1,155
 157 361 157 361 148 357.5 c 128,-1,156
 139 354 139 354 132 344 c 1,157,158
 123 343 123 343 114 338.5 c 128,-1,159
 105 334 105 334 97 337 c 0,160,161
 76 345 76 345 74.5 361.5 c 0,162,163
 72.1666666667 387.166666667 72.1666666667 387.166666667 89 404 c 2,164,-1
 101 416 l 2,165,166
 106 421 106 421 111 428 c 256,167,168
 116 435 116 435 117 435 c 128,-1,169
 118 435 118 435 119.5 437.5 c 128,-1,170
 121 440 121 440 124.5 443 c 128,-1,171
 128 446 128 446 132 450 c 1,172,173
 133 454 133 454 136 456.5 c 128,-1,174
 139 459 139 459 140 464 c 1,175,176
 145 464 145 464 148 468 c 128,-1,177
 151 472 151 472 155.5 477 c 128,-1,178
 160 482 160 482 168.5 494.5 c 128,-1,179
 177 507 177 507 178.5 507.5 c 128,-1,180
 180 508 180 508 182.5 511.5 c 128,-1,181
 185 515 185 515 189 522 c 128,-1,182
 193 529 193 529 196 532.5 c 128,-1,183
 199 536 199 536 201 538.5 c 128,-1,184
 203 541 203 541 205 545 c 128,-1,185
 207 549 207 549 212 555 c 128,-1,186
 217 561 217 561 217.5 564 c 128,-1,187
 218 567 218 567 225 576.5 c 128,-1,188
 232 586 232 586 232 598 c 1,189,190
 221 609 221 609 200 603.5 c 128,-1,191
 179 598 179 598 168 601 c 1,192,-1
 150 594 l 1,193,194
 146 596 146 596 138 594.5 c 128,-1,195
 130 593 130 593 121 602 c 1,196,197
 116 602 116 602 113 601.5 c 128,-1,198
 110 601 110 601 106 604 c 1,199,-1
 99 620 l 2,200,201
 98 624 98 624 96.5 629.5 c 128,-1,202
 95 635 95 635 99 642 c 1,203,204
 104 645 104 645 109 646 c 128,-1,205
 114 647 114 647 121 648.5 c 128,-1,206
 128 650 128 650 135 649.5 c 128,-1,207
 142 649 142 649 151.5 651.5 c 128,-1,208
 161 654 161 654 164 652 c 128,-1,209
 167 650 167 650 192 654 c 1,210,-1
 212 653 l 1,211,-1
 234 653 l 1,212,213
 249 648 249 648 259.5 651.5 c 128,-1,214
 270 655 270 655 273.5 654.5 c 128,-1,215
 277 654 277 654 284.5 656 c 128,-1,216
 292 658 292 658 295 657 c 128,-1,217
 298 656 298 656 302 656 c 128,-1,218
 306 656 306 656 312 659 c 1,0,-1
EndSplineSet
EndChar

StartChar: four
Encoding: 52 52 23
Width: 403
Flags: HW
LayerCount: 2
Fore
SplineSet
84 325 m 1,0,-1
 85 338 l 1,1,2
 94 347 94 347 94 353 c 128,-1,3
 94 359 94 359 96 363.5 c 128,-1,4
 98 368 98 368 101.5 374 c 128,-1,5
 105 380 105 380 105 388 c 1,6,7
 112 397 112 397 113.5 397.5 c 128,-1,8
 115 398 115 398 117.5 406.5 c 128,-1,9
 120 415 120 415 122.5 421.5 c 128,-1,10
 125 428 125 428 127 436 c 256,11,12
 129 444 129 444 131 446 c 128,-1,13
 133 448 133 448 138 454 c 1,14,15
 139 459 139 459 139 462.5 c 0,16,17
 139 471 139 471 143 477.5 c 128,-1,18
 147 484 147 484 147 487.5 c 128,-1,19
 147 491 147 491 149 495.5 c 128,-1,20
 151 500 151 500 154 505.5 c 128,-1,21
 157 511 157 511 156 518 c 1,22,23
 169 526 169 526 173.5 537.5 c 128,-1,24
 178 549 178 549 181 552 c 128,-1,25
 184 555 184 555 187 559 c 1,26,27
 191 570 191 570 192 570 c 128,-1,28
 193 570 193 570 194.5 573.5 c 128,-1,29
 196 577 196 577 206.5 581 c 128,-1,30
 217 585 217 585 223 589 c 1,31,32
 223 596 223 596 225.5 596 c 128,-1,33
 228 596 228 596 230 598 c 256,34,35
 232 600 232 600 240 598.5 c 128,-1,36
 248 597 248 597 253 598 c 1,37,38
 256 597 256 597 257.5 593.5 c 128,-1,39
 259 590 259 590 262 588 c 0,40,41
 284 570 284 570 279 559 c 1,42,43
 282 557 282 557 280.5 553 c 128,-1,44
 279 549 279 549 281 544 c 128,-1,45
 283 539 283 539 283.5 536.5 c 128,-1,46
 284 534 284 534 288.5 526.5 c 128,-1,47
 293 519 293 519 285 511 c 1,48,49
 288 503 288 503 288 494 c 128,-1,50
 288 485 288 485 289 477 c 2,51,-1
 291 463 l 2,52,53
 291 457 291 457 289.5 455.5 c 128,-1,54
 288 454 288 454 286 447 c 1,55,-1
 289 434 l 1,56,57
 290 424 290 424 288.5 415 c 128,-1,58
 287 406 287 406 293 398 c 1,59,60
 289 388 289 388 289 379 c 1,61,-1
 293 360 l 1,62,63
 293 355 293 355 290.5 346.5 c 128,-1,64
 288 338 288 338 288.5 331 c 128,-1,65
 289 324 289 324 284 319 c 1,66,67
 292 304 292 304 289.5 289.5 c 0,68,69
 285.409090909 265.772727273 285.409090909 265.772727273 293 243 c 1,70,71
 293 238 293 238 292.5 235 c 128,-1,72
 292 232 292 232 294 227.5 c 128,-1,73
 296 223 296 223 295 216.5 c 128,-1,74
 294 210 294 210 296 202 c 1,75,76
 299 197 299 197 299.5 190 c 128,-1,77
 300 183 300 183 302.5 181.5 c 128,-1,78
 305 180 305 180 307 178 c 1,79,80
 318 179 318 179 330 178 c 128,-1,81
 342 177 342 177 352.5 180.5 c 128,-1,82
 363 184 363 184 370 186.5 c 128,-1,83
 377 189 377 189 387 186 c 1,84,85
 390 180 390 180 392 169.5 c 128,-1,86
 394 159 394 159 396 152 c 1,87,88
 384 142 384 142 378 141 c 128,-1,89
 372 140 372 140 367 136 c 1,90,91
 363 138 363 138 360 138 c 2,92,-1
 353 138 l 2,93,94
 349 138 349 138 347 136.5 c 128,-1,95
 345 135 345 135 341.5 134 c 128,-1,96
 338 133 338 133 334 134.5 c 128,-1,97
 330 136 330 136 327 136 c 1,98,99
 325 131 325 131 318.5 130 c 128,-1,100
 312 129 312 129 307 127 c 1,101,102
 303 118 303 118 307.5 109 c 128,-1,103
 312 100 312 100 308.5 94 c 128,-1,104
 305 88 305 88 308 87 c 128,-1,105
 311 86 311 86 312 82 c 1,106,-1
 302 50 l 1,107,108
 303 38 303 38 301.5 35 c 128,-1,109
 300 32 300 32 300 30 c 2,110,-1
 303 11 l 2,111,112
 304 8 304 8 303 5.5 c 128,-1,113
 302 3 302 3 302.5 -1 c 128,-1,114
 303 -5 303 -5 301.5 -9 c 128,-1,115
 300 -13 300 -13 303.5 -21 c 128,-1,116
 307 -29 307 -29 309 -34 c 1,117,118
 310 -70 310 -70 286 -82 c 1,119,120
 278 -82 278 -82 268.5 -79.5 c 128,-1,121
 259 -77 259 -77 251 -76 c 1,122,123
 245 -69 245 -69 236 -61 c 1,124,125
 230 -45 230 -45 233.5 -32.5 c 128,-1,126
 237 -20 237 -20 236.5 -8 c 128,-1,127
 236 4 236 4 233 5 c 128,-1,128
 230 6 230 6 227 7 c 1,129,130
 231 13 231 13 234 16 c 1,131,132
 235 42 235 42 235 68.5 c 128,-1,133
 235 95 235 95 229 121 c 1,134,135
 220 119 220 119 212.5 116.5 c 128,-1,136
 205 114 205 114 193.5 112.5 c 128,-1,137
 182 111 182 111 177 108 c 128,-1,138
 172 105 172 105 164 110 c 1,139,140
 159 109 159 109 157 107 c 128,-1,141
 155 105 155 105 148.5 103.5 c 128,-1,142
 142 102 142 102 134.5 104.5 c 128,-1,143
 127 107 127 107 120 104.5 c 128,-1,144
 113 102 113 102 109 100 c 128,-1,145
 105 98 105 98 100.5 97 c 128,-1,146
 96 96 96 96 92.5 96.5 c 128,-1,147
 89 97 89 97 83.5 96 c 128,-1,148
 78 95 78 95 71 92 c 128,-1,149
 64 89 64 89 56 91 c 1,150,151
 37 83 37 83 30 86.5 c 128,-1,152
 23 90 23 90 19 91 c 1,153,154
 8 125 8 125 16 157 c 1,155,156
 22 166 22 166 22 168.5 c 128,-1,157
 22 171 22 171 28 191.5 c 128,-1,158
 34 212 34 212 43 219 c 1,159,160
 44 227 44 227 54 244 c 1,161,162
 54 257 54 257 56 258.5 c 128,-1,163
 58 260 58 260 60 263 c 128,-1,164
 62 266 62 266 64 274.5 c 0,165,166
 70.9811320755 304.169811321 70.9811320755 304.169811321 84 325 c 1,0,-1
226 233 m 1,167,168
 221 243 221 243 220 248 c 1,169,170
 224 263 224 263 225.5 305 c 128,-1,171
 227 347 227 347 231 361 c 1,172,173
 229 366 229 366 228 375.5 c 128,-1,174
 227 385 227 385 225 390 c 0,175,176
 224 395 224 395 225 400.5 c 128,-1,177
 226 406 226 406 224 412 c 1,178,179
 221 415 221 415 215 416 c 128,-1,180
 209 417 209 417 204.5 412.5 c 128,-1,181
 200 408 200 408 201 400 c 1,182,183
 188 395 188 395 182 354 c 0,184,185
 180 344 180 344 181 337 c 1,186,187
 178 333 178 333 173.5 330.5 c 128,-1,188
 169 328 169 328 166.5 318.5 c 128,-1,189
 164 309 164 309 163 305 c 128,-1,190
 162 301 162 301 162.5 298 c 128,-1,191
 163 295 163 295 162 289.5 c 128,-1,192
 161 284 161 284 158 276.5 c 128,-1,193
 155 269 155 269 154 262 c 1,194,195
 152 259 152 259 149 258.5 c 128,-1,196
 146 258 146 258 146 254 c 1,197,198
 143 250 143 250 142 243 c 128,-1,199
 141 236 141 236 136 232.5 c 128,-1,200
 131 229 131 229 130 225 c 128,-1,201
 129 221 129 221 130 219 c 128,-1,202
 131 217 131 217 131 212 c 1,203,204
 125 203 125 203 126 195 c 1,205,206
 124 190 124 190 119 180.5 c 128,-1,207
 114 171 114 171 114 164 c 1,208,209
 127 158 127 158 131.5 159 c 128,-1,210
 136 160 136 160 139.5 160 c 128,-1,211
 143 160 143 160 152 163 c 1,212,213
 168 165 168 165 184.5 164 c 128,-1,214
 201 163 201 163 214 169 c 1,215,216
 216 175 216 175 221.5 179 c 128,-1,217
 227 183 227 183 227.5 189 c 128,-1,218
 228 195 228 195 227 201 c 128,-1,219
 226 207 226 207 224 218 c 128,-1,220
 222 229 222 229 226 233 c 1,167,168
EndSplineSet
EndChar

StartChar: five
Encoding: 53 53 24
Width: 424
Flags: HW
LayerCount: 2
Fore
SplineSet
353 323 m 1,0,-1
 362 308 l 1,1,2
 362 306 362 306 363.5 303.5 c 128,-1,3
 365 301 365 301 366.5 297 c 128,-1,4
 368 293 368 293 370.5 289.5 c 128,-1,5
 373 286 373 286 375.5 283.5 c 128,-1,6
 378 281 378 281 379.5 277 c 128,-1,7
 381 273 381 273 381 269.5 c 128,-1,8
 381 266 381 266 382.5 262 c 128,-1,9
 384 258 384 258 385.5 255.5 c 128,-1,10
 387 253 387 253 388 249.5 c 128,-1,11
 389 246 389 246 389.5 242 c 128,-1,12
 390 238 390 238 392 230 c 128,-1,13
 394 222 394 222 393.5 214 c 128,-1,14
 393 206 393 206 393 195 c 128,-1,15
 393 184 393 184 395 174 c 128,-1,16
 397 164 397 164 393.5 151.5 c 128,-1,17
 390 139 390 139 388.5 133.5 c 128,-1,18
 387 128 387 128 386.5 124 c 128,-1,19
 386 120 386 120 384.5 116.5 c 128,-1,20
 383 113 383 113 381.5 110 c 128,-1,21
 380 107 380 107 381 102 c 1,22,23
 369 92 369 92 361.5 77.5 c 128,-1,24
 354 63 354 63 345.5 54 c 128,-1,25
 337 45 337 45 331 35 c 1,26,27
 326 30 326 30 321 23.5 c 128,-1,28
 316 17 316 17 310 14.5 c 128,-1,29
 304 12 304 12 296 13.5 c 0,30,31
 276.210526316 17.2105263158 276.210526316 17.2105263158 261 2 c 1,32,33
 244 -3 244 -3 229 -6.5 c 128,-1,34
 214 -10 214 -10 200 -4 c 1,35,36
 165 -12 165 -12 148 2 c 0,37,38
 143 6 143 6 135 4 c 1,39,40
 132 5 132 5 129 9.5 c 128,-1,41
 126 14 126 14 120.5 15.5 c 128,-1,42
 115 17 115 17 110 20 c 128,-1,43
 105 23 105 23 99 26.5 c 128,-1,44
 93 30 93 30 90.5 35 c 128,-1,45
 88 40 88 40 88.5 46.5 c 128,-1,46
 89 53 89 53 87 60.5 c 128,-1,47
 85 68 85 68 81.5 74.5 c 128,-1,48
 78 81 78 81 78 87 c 128,-1,49
 78 93 78 93 85 105 c 1,50,51
 89 124 89 124 95.5 133.5 c 128,-1,52
 102 143 102 143 105 161 c 1,53,54
 110 165 110 165 117.5 166 c 128,-1,55
 125 167 125 167 130 169 c 1,56,57
 136 167 136 167 142 164 c 128,-1,58
 148 161 148 161 158 163 c 1,59,60
 161 159 161 159 165.5 158 c 128,-1,61
 170 157 170 157 175 155 c 1,62,63
 182 140 182 140 181 124 c 1,64,65
 179 119 179 119 175.5 118 c 128,-1,66
 172 117 172 117 165 112.5 c 128,-1,67
 158 108 158 108 150.5 109.5 c 128,-1,68
 143 111 143 111 137 111 c 0,69,70
 122 111 122 111 122 92 c 1,71,72
 103 81 103 81 111 65 c 0,73,74
 112 63 112 63 116 60.5 c 128,-1,75
 120 58 120 58 118 53 c 1,76,77
 128 50 128 50 137.5 47.5 c 128,-1,78
 147 45 147 45 152 37 c 1,79,80
 172 37 172 37 186 33.5 c 128,-1,81
 200 30 200 30 211 34.5 c 128,-1,82
 222 39 222 39 229 47 c 128,-1,83
 236 55 236 55 249 54 c 1,84,85
 253 58 253 58 260.5 68 c 128,-1,86
 268 78 268 78 273.5 84.5 c 0,87,88
 294 108.727272727 294 108.727272727 294 170 c 2,89,-1
 294 214 l 2,90,91
 294 218 294 218 292 221.5 c 128,-1,92
 290 225 290 225 289 230 c 128,-1,93
 288 235 288 235 288.5 240 c 128,-1,94
 289 245 289 245 286 252.5 c 128,-1,95
 283 260 283 260 277 267 c 128,-1,96
 271 274 271 274 269 283 c 1,97,98
 264 289 264 289 258 294 c 128,-1,99
 252 299 252 299 247 304 c 1,100,101
 237 303 237 303 230.5 305.5 c 128,-1,102
 224 308 224 308 216.5 306.5 c 128,-1,103
 209 305 209 305 204 299 c 128,-1,104
 199 293 199 293 189 295 c 1,105,106
 185 293 185 293 179 279 c 1,107,108
 176 275 176 275 172 273 c 128,-1,109
 168 271 168 271 167 265 c 1,110,-1
 154 261 l 1,111,112
 154 256 154 256 150 254.5 c 128,-1,113
 146 253 146 253 142 250 c 1,114,115
 134 238 134 238 127 234.5 c 128,-1,116
 120 231 120 231 113.5 228 c 128,-1,117
 107 225 107 225 96.5 228.5 c 128,-1,118
 86 232 86 232 76 228 c 1,119,120
 68 234 68 234 63 242 c 128,-1,121
 58 250 58 250 52 257 c 1,122,123
 58 280 58 280 53.5 289.5 c 0,124,125
 46.1643835616 304.98630137 46.1643835616 304.98630137 48.0821917808 315.493150685 c 128,-1,126
 50 326 50 326 47 333.5 c 128,-1,127
 44 341 44 341 43 349 c 128,-1,128
 42 357 42 357 45 369.5 c 128,-1,129
 48 382 48 382 48 395 c 2,130,-1
 47 430 l 1,131,-1
 47 458 l 1,132,-1
 50 498 l 2,133,134
 50 503 50 503 49 505 c 128,-1,135
 48 507 48 507 50.5 513 c 128,-1,136
 53 519 53 519 53 534 c 128,-1,137
 53 549 53 549 55 556 c 2,138,-1
 58 574 l 2,139,140
 63 600 63 600 75 607 c 1,141,142
 94 610 94 610 118 617 c 1,143,144
 125 618 125 618 125.5 612.5 c 128,-1,145
 126 607 126 607 131 607 c 0,146,147
 150 607 150 607 158 610.5 c 128,-1,148
 166 614 166 614 170.5 615 c 128,-1,149
 175 616 175 616 178.5 615 c 128,-1,150
 182 614 182 614 187.5 615.5 c 128,-1,151
 193 617 193 617 198.5 619 c 128,-1,152
 204 621 204 621 206.5 621 c 128,-1,153
 209 621 209 621 216 622.5 c 128,-1,154
 223 624 223 624 235.5 625 c 128,-1,155
 248 626 248 626 257 631 c 1,156,157
 281 626 281 626 321 635 c 0,158,159
 330 637 330 637 338 628 c 128,-1,160
 346 619 346 619 346.5 611.5 c 128,-1,161
 347 604 347 604 345 602.5 c 128,-1,162
 343 601 343 601 341 594 c 1,163,164
 321 585 321 585 314 585 c 1,165,-1
 283 578 l 1,166,167
 275 578 275 578 268.5 580 c 128,-1,168
 262 582 262 582 254 580 c 128,-1,169
 246 578 246 578 235.5 570 c 128,-1,170
 225 562 225 562 211.5 563 c 128,-1,171
 198 564 198 564 184 562 c 1,172,173
 171 556 171 556 166 553.5 c 128,-1,174
 161 551 161 551 158 545 c 1,175,176
 158 537 158 537 159 528 c 128,-1,177
 160 519 160 519 158.5 509.5 c 128,-1,178
 157 500 157 500 153.5 491.5 c 128,-1,179
 150 483 150 483 155 466 c 128,-1,180
 160 449 160 449 159.5 435 c 128,-1,181
 159 421 159 421 160.5 409.5 c 128,-1,182
 162 398 162 398 161 396.5 c 128,-1,183
 160 395 160 395 162 385.5 c 128,-1,184
 164 376 164 376 165.5 372.5 c 128,-1,185
 167 369 167 369 170.5 367 c 128,-1,186
 174 365 174 365 177 361 c 1,187,188
 199 372 199 372 211.5 374 c 128,-1,189
 224 376 224 376 229 381 c 1,190,191
 238 378 238 378 246.5 379.5 c 128,-1,192
 255 381 255 381 260.5 380 c 128,-1,193
 266 379 266 379 269.5 377 c 128,-1,194
 273 375 273 375 277 373.5 c 128,-1,195
 281 372 281 372 285 372.5 c 128,-1,196
 289 373 289 373 295 369.5 c 128,-1,197
 301 366 301 366 305.5 363.5 c 128,-1,198
 310 361 310 361 316 356.5 c 2,199,-1
 326 349 l 2,200,201
 330 346 330 346 336 342 c 128,-1,202
 342 338 342 338 348 334 c 1,203,204
 353 325 353 325 353 323 c 1,0,-1
EndSplineSet
EndChar

StartChar: six
Encoding: 54 54 25
Width: 432
Flags: HW
LayerCount: 2
Fore
SplineSet
231 -8 m 2,0,-1
 216 -10 l 1,1,2
 208 -8 208 -8 200 -6 c 128,-1,3
 192 -4 192 -4 187 -3 c 128,-1,4
 182 -2 182 -2 178 0 c 0,5,6
 167 9 167 9 165 10.5 c 128,-1,7
 163 12 163 12 161 14.5 c 128,-1,8
 159 17 159 17 155.5 18 c 0,9,10
 147.916666667 20.1666666667 147.916666667 20.1666666667 138 40 c 1,11,12
 131 41 131 41 128 44.5 c 128,-1,13
 125 48 125 48 119 48 c 1,14,15
 112 72 112 72 92 80 c 1,16,17
 89 89 89 89 83 94 c 128,-1,18
 77 99 77 99 78 112 c 1,19,20
 72 120 72 120 68 130 c 128,-1,21
 64 140 64 140 56 146 c 1,22,23
 55 177 55 177 50 192 c 128,-1,24
 45 207 45 207 45.5 210 c 128,-1,25
 46 213 46 213 43 222 c 128,-1,26
 40 231 40 231 40.5 240 c 128,-1,27
 41 249 41 249 41 260 c 128,-1,28
 41 271 41 271 40 282.5 c 128,-1,29
 39 294 39 294 40.5 304.5 c 128,-1,30
 42 315 42 315 42 321 c 128,-1,31
 42 327 42 327 43 331 c 1,32,33
 47 337 47 337 46.5 339 c 0,34,35
 45.2 344.2 45.2 344.2 52.6 351.6 c 128,-1,36
 60 359 60 359 64 398 c 1,37,38
 71 406 71 406 74.5 417 c 128,-1,39
 78 428 78 428 82 435 c 128,-1,40
 86 442 86 442 90 446 c 128,-1,41
 94 450 94 450 97 454.5 c 128,-1,42
 100 459 100 459 102 464.5 c 128,-1,43
 104 470 104 470 110 471 c 1,44,45
 111 477 111 477 113 481.5 c 128,-1,46
 115 486 115 486 117 493 c 1,47,48
 122 497 122 497 124 499 c 128,-1,49
 126 501 126 501 130.5 503.5 c 128,-1,50
 135 506 135 506 138.5 510 c 128,-1,51
 142 514 142 514 145.5 518 c 128,-1,52
 149 522 149 522 152.5 524 c 128,-1,53
 156 526 156 526 160 530.5 c 128,-1,54
 164 535 164 535 166.5 539 c 128,-1,55
 169 543 169 543 179 549 c 128,-1,56
 189 555 189 555 193 561 c 1,57,58
 210 566 210 566 216 573 c 1,59,-1
 227 573 l 2,60,61
 236 573 236 573 242.5 578 c 128,-1,62
 249 583 249 583 256 585.5 c 128,-1,63
 263 588 263 588 276.5 586 c 128,-1,64
 290 584 290 584 299 585.5 c 128,-1,65
 308 587 308 587 313 589.5 c 128,-1,66
 318 592 318 592 322 592.5 c 128,-1,67
 326 593 326 593 330.5 591.5 c 128,-1,68
 335 590 335 590 340 593 c 1,69,70
 342 590 342 590 346 587.5 c 128,-1,71
 350 585 350 585 353 582 c 1,72,73
 365 581 365 581 368.5 577.5 c 128,-1,74
 372 574 372 574 380 573 c 1,75,76
 384 565 384 565 389 553.5 c 128,-1,77
 394 542 394 542 387 531 c 1,78,79
 375 526 375 526 365.5 534.5 c 128,-1,80
 356 543 356 543 346 549.5 c 128,-1,81
 336 556 336 556 328 553.5 c 128,-1,82
 320 551 320 551 315.5 552.5 c 128,-1,83
 311 554 311 554 303 553 c 1,84,85
 291 548 291 548 288 549.5 c 128,-1,86
 285 551 285 551 283 551 c 0,87,88
 271 545 271 545 267 545 c 2,89,-1
 260 545 l 1,90,91
 257 543 257 543 254 540.5 c 128,-1,92
 251 538 251 538 247.5 535.5 c 128,-1,93
 244 533 244 533 237.5 528.5 c 128,-1,94
 231 524 231 524 228.5 519.5 c 128,-1,95
 226 515 226 515 221 513 c 1,96,97
 214 481 214 481 193 465 c 1,98,99
 194 457 194 457 189 449 c 128,-1,100
 184 441 184 441 185 433 c 1,101,102
 176 431 176 431 174 421.5 c 128,-1,103
 172 412 172 412 166 407 c 1,104,-1
 166 396 l 2,105,106
 166 386 166 386 161 377 c 128,-1,107
 156 368 156 368 154 357 c 128,-1,108
 152 346 152 346 152.5 333 c 128,-1,109
 153 320 153 320 151 296 c 128,-1,110
 149 272 149 272 152 263 c 128,-1,111
 155 254 155 254 156 250 c 1,112,-1
 154 228 l 1,113,114
 154 205 154 205 163 176 c 1,115,116
 174 174 174 174 180.5 174 c 128,-1,117
 187 174 187 174 191 188 c 1,118,119
 198 201 198 201 212.5 214.5 c 128,-1,120
 227 228 227 228 230.5 231.5 c 128,-1,121
 234 235 234 235 248 239 c 1,122,123
 260 240 260 240 264 242.5 c 128,-1,124
 268 245 268 245 283 245 c 1,125,126
 318 254 318 254 335 237 c 0,127,128
 341 231 341 231 351 232 c 1,129,130
 353 229 353 229 355 226 c 128,-1,131
 357 223 357 223 362 224 c 1,132,133
 370 209 370 209 378 206 c 1,134,135
 382 196 382 196 385.5 186.5 c 128,-1,136
 389 177 389 177 394 168 c 1,137,138
 392 159 392 159 394 151.5 c 128,-1,139
 396 144 396 144 394 134 c 1,140,141
 389 123 389 123 390.5 119.5 c 128,-1,142
 392 116 392 116 392 109 c 128,-1,143
 392 102 392 102 389 97.5 c 128,-1,144
 386 93 386 93 381.5 79.5 c 0,145,146
 372.25 51.75 372.25 51.75 363.5 50.5 c 0,147,148
 360 50 360 50 357 48 c 1,149,150
 355 38 355 38 347 34.5 c 128,-1,151
 339 31 339 31 336 22 c 1,152,153
 332 20 332 20 329.5 17.5 c 128,-1,154
 327 15 327 15 319.5 10 c 128,-1,155
 312 5 312 5 296.5 -0.5 c 128,-1,156
 281 -6 281 -6 268 -14 c 1,157,158
 263 -11 263 -11 257 -12.5 c 128,-1,159
 251 -14 251 -14 243.5 -11 c 128,-1,160
 236 -8 236 -8 231 -8 c 2,0,-1
253 40 m 2,161,-1
 267 38 l 1,162,163
 272 39 272 39 285.5 45 c 128,-1,164
 299 51 299 51 306.5 58 c 128,-1,165
 314 65 314 65 318.5 66.5 c 128,-1,166
 323 68 323 68 325 70 c 2,167,-1
 332 80 l 2,168,169
 336 87 336 87 337.5 87 c 128,-1,170
 339 87 339 87 341 90.5 c 128,-1,171
 343 94 343 94 344.5 100.5 c 128,-1,172
 346 107 346 107 351 112 c 1,173,174
 352 122 352 122 352.5 131 c 128,-1,175
 353 140 353 140 355 150 c 1,176,177
 350 161 350 161 348 163 c 128,-1,178
 346 165 346 165 344.5 169.5 c 128,-1,179
 343 174 343 174 341 176 c 0,180,181
 335 179 335 179 334.5 181 c 128,-1,182
 334 183 334 183 327.5 185 c 128,-1,183
 321 187 321 187 319.5 190 c 128,-1,184
 318 193 318 193 316 193 c 1,185,186
 313 195 313 195 307 195 c 2,187,-1
 295 195 l 1,188,189
 276 199 276 199 270 195.5 c 128,-1,190
 264 192 264 192 255 187.5 c 128,-1,191
 246 183 246 183 239 178 c 1,192,193
 239 170 239 170 234 165 c 128,-1,194
 229 160 229 160 226 154 c 2,195,-1
 222 142 l 2,196,197
 221 140 221 140 221.5 136.5 c 128,-1,198
 222 133 222 133 216 121 c 128,-1,199
 210 109 210 109 212 99 c 128,-1,200
 214 89 214 89 215.5 82.5 c 128,-1,201
 217 76 217 76 216 74 c 128,-1,202
 215 72 215 72 216 69.5 c 128,-1,203
 217 67 217 67 219 64 c 128,-1,204
 221 61 221 61 222.5 57.5 c 128,-1,205
 224 54 224 54 225.5 48.5 c 128,-1,206
 227 43 227 43 230 38 c 1,207,208
 235 35 235 35 241 37.5 c 128,-1,209
 247 40 247 40 253 40 c 2,161,-1
EndSplineSet
EndChar

StartChar: seven
Encoding: 55 55 26
Width: 400
Flags: HW
LayerCount: 2
Fore
SplineSet
285 611 m 1,0,1
 304 607 304 607 326.5 613 c 128,-1,2
 349 619 349 619 358 623.5 c 128,-1,3
 367 628 367 628 374 624.5 c 128,-1,4
 381 621 381 621 381 617 c 128,-1,5
 381 613 381 613 382.5 609 c 128,-1,6
 384 605 384 605 386 602 c 128,-1,7
 388 599 388 599 388.5 592 c 128,-1,8
 389 585 389 585 382.5 576 c 128,-1,9
 376 567 376 567 366 563 c 1,10,11
 361 542 361 542 351 532 c 1,12,13
 351 522.333333333 351 522.333333333 343.5 508.166666667 c 128,-1,14
 336 494 336 494 336 485 c 1,15,16
 328 480 328 480 324.5 472.5 c 128,-1,17
 321 465 321 465 317 457 c 1,18,19
 321 444 321 444 316.5 432.5 c 128,-1,20
 312 421 312 421 310.5 411 c 128,-1,21
 309 401 309 401 300 398 c 1,22,23
 300 394 300 394 294 379 c 1,24,25
 301 379 301 379 307 380.5 c 128,-1,26
 313 382 313 382 318.5 381 c 128,-1,27
 324 380 324 380 328.5 377 c 128,-1,28
 333 374 333 374 338 372 c 1,29,30
 353 375 353 375 363 362 c 1,31,32
 365 352 365 352 361 335 c 1,33,34
 359 332 359 332 355.5 332.5 c 128,-1,35
 352 333 352 333 342 331.5 c 128,-1,36
 332 330 332 330 326 333 c 128,-1,37
 320 336 320 336 312 337 c 1,38,-1
 289 331 l 1,39,40
 283 331 283 331 277 334 c 1,41,42
 276 330 276 330 275.5 326 c 128,-1,43
 275 322 275 322 273 317 c 1,44,45
 264 305 264 305 264 298.5 c 128,-1,46
 264 292 264 292 259.5 285 c 128,-1,47
 255 278 255 278 257 272 c 1,48,49
 255 270 255 270 252.5 269 c 128,-1,50
 250 268 250 268 248 265 c 1,51,52
 246 248 246 248 238 232 c 2,53,-1
 223 202 l 1,54,55
 218 188 218 188 215.5 184 c 128,-1,56
 213 180 213 180 211.5 176.5 c 128,-1,57
 210 173 210 173 211 169 c 128,-1,58
 212 165 212 165 210 162 c 1,59,60
 205 158 205 158 205.5 155 c 128,-1,61
 206 152 206 152 201 145 c 128,-1,62
 196 138 196 138 193 133.5 c 128,-1,63
 190 129 190 129 193 121 c 1,64,65
 189 119 189 119 189 115.5 c 128,-1,66
 189 112 189 112 186 110 c 1,67,68
 188 105 188 105 185 99 c 128,-1,69
 182 93 182 93 182 87.5 c 128,-1,70
 182 82 182 82 179.5 77 c 128,-1,71
 177 72 177 72 172 66 c 128,-1,72
 167 60 167 60 167 51 c 1,73,74
 161 46 161 46 157.5 39 c 128,-1,75
 154 32 154 32 148 26 c 1,76,77
 148 21 148 21 149.5 18 c 128,-1,78
 151 15 151 15 150 10 c 1,79,80
 145 3 145 3 134 -1 c 1,81,82
 121.020408163 -17.2244897959 121.020408163 -17.2244897959 111.010204082 -16.112244898 c 128,-1,83
 101 -15 101 -15 98 -12.5 c 128,-1,84
 95 -10 95 -10 90 -9 c 1,85,86
 86 -2 86 -2 84 4 c 1,87,88
 79 4 79 4 77.5 7.5 c 128,-1,89
 76 11 76 11 74 13 c 1,90,91
 76 22 76 22 76 26 c 2,92,-1
 76 42 l 1,93,94
 82 48 82 48 83.5 60 c 128,-1,95
 85 72 85 72 87 74.5 c 128,-1,96
 89 77 89 77 91 80 c 1,97,98
 89 85 89 85 91.5 89.5 c 128,-1,99
 94 94 94 94 96 99 c 1,100,-1
 95 111 l 1,101,102
 100 126 100 126 105 139 c 1,103,104
 109 144 109 144 109.5 149 c 128,-1,105
 110 154 110 154 111 159 c 1,106,107
 116 164 116 164 117 170.5 c 128,-1,108
 118 177 118 177 120.5 182.5 c 128,-1,109
 123 188 123 188 124.5 192 c 128,-1,110
 126 196 126 196 128.5 201 c 128,-1,111
 131 206 131 206 130 208 c 1,112,113
 139 237 139 237 139 251 c 1,114,115
 144 254 144 254 144.5 261 c 128,-1,116
 145 268 145 268 150 272.5 c 128,-1,117
 155 277 155 277 158 285 c 128,-1,118
 161 293 161 293 159 293.5 c 128,-1,119
 157 294 157 294 158 296 c 0,120,121
 163 300 163 300 163 302 c 128,-1,122
 163 304 163 304 166 310 c 128,-1,123
 169 316 169 316 168 319.5 c 128,-1,124
 167 323 167 323 167 326 c 0,125,126
 168 329 168 329 173 336 c 1,127,-1
 179 354 l 1,128,129
 159 357 159 357 148 365 c 1,130,131
 143 366 143 366 138 362.5 c 128,-1,132
 133 359 133 359 125 360 c 128,-1,133
 117 361 117 361 106.5 369.5 c 128,-1,134
 96 378 96 378 98 389 c 128,-1,135
 100 400 100 400 106 401.5 c 128,-1,136
 112 403 112 403 118 411 c 1,137,138
 126 409 126 409 131 410 c 128,-1,139
 136 411 136 411 139.5 407.5 c 128,-1,140
 143 404 143 404 150 402 c 128,-1,141
 157 400 157 400 168 398.5 c 128,-1,142
 179 397 179 397 190 395 c 1,143,144
 201 416 201 416 204 430 c 1,145,146
 208 438 208 438 212.5 445.5 c 128,-1,147
 217 453 217 453 219 463 c 1,148,149
 227 471 227 471 232 484.5 c 128,-1,150
 237 498 237 498 244.5 509.5 c 128,-1,151
 252 521 252 521 254 524 c 128,-1,152
 256 527 256 527 257.5 530.5 c 128,-1,153
 259 534 259 534 262 538 c 0,154,155
 269 547 269 547 254 557 c 1,156,157
 239 560 239 560 237.5 560 c 128,-1,158
 236 560 236 560 228 559 c 1,159,-1
 190 560 l 1,160,-1
 166 556 l 2,161,162
 164 555 164 555 160.5 556 c 128,-1,163
 157 557 157 557 148 557 c 128,-1,164
 139 557 139 557 125 554.5 c 128,-1,165
 111 552 111 552 97 554 c 1,166,-1
 84 557 l 1,167,-1
 68 555 l 2,168,169
 65 554 65 554 60.5 555.5 c 128,-1,170
 56 557 56 557 49.5 557.5 c 128,-1,171
 43 558 43 558 36.5 557.5 c 128,-1,172
 30 557 30 557 21.5 560 c 128,-1,173
 13 563 13 563 9 574 c 128,-1,174
 5 585 5 585 13 599 c 1,175,176
 23 602 23 602 25.5 599 c 128,-1,177
 28 596 28 596 37 595 c 1,178,179
 45 598 45 598 55.5 597.5 c 128,-1,180
 66 597 66 597 80 598 c 2,181,-1
 101 600 l 1,182,-1
 126 597 l 1,183,-1
 163 602 l 2,184,185
 166 602 166 602 168.5 601 c 128,-1,186
 171 600 171 600 188 603 c 128,-1,187
 205 606 205 606 213 605 c 128,-1,188
 221 604 221 604 227.5 605 c 128,-1,189
 234 606 234 606 242.5 606 c 128,-1,190
 251 606 251 606 262.5 604.5 c 128,-1,191
 274 603 274 603 285 611 c 1,0,1
EndSplineSet
EndChar

StartChar: eight
Encoding: 56 56 27
Width: 465
Flags: HW
LayerCount: 2
Fore
SplineSet
335 455 m 1,0,1
 336 444 336 444 328 436 c 1,2,3
 332 427 332 427 339 421.5 c 128,-1,4
 346 416 346 416 354 410 c 1,5,6
 358 405 358 405 360 402 c 128,-1,7
 362 399 362 399 368 392 c 1,8,9
 380 374 380 374 398 366 c 1,10,11
 399 358 399 358 402.5 352 c 128,-1,12
 406 346 406 346 408.5 340 c 128,-1,13
 411 334 411 334 412.5 327.5 c 128,-1,14
 414 321 414 321 417 318 c 128,-1,15
 420 315 420 315 420.5 312 c 128,-1,16
 421 309 421 309 424 300.5 c 128,-1,17
 427 292 427 292 428 283 c 1,18,-1
 426 265 l 1,19,20
 426 252 426 252 428 238 c 128,-1,21
 430 224 430 224 428 213.5 c 128,-1,22
 426 203 426 203 421.5 199 c 128,-1,23
 417 195 417 195 419 183 c 1,24,25
 417 181 417 181 414.5 179.5 c 128,-1,26
 412 178 412 178 410 176 c 0,27,28
 404 165 404 165 404.5 163 c 128,-1,29
 405 161 405 161 403 158.5 c 128,-1,30
 401 156 401 156 398.5 154 c 0,31,32
 391.625 148.5 391.625 148.5 388 134 c 1,33,34
 381 132 381 132 378 126 c 128,-1,35
 375 120 375 120 371 114 c 1,36,37
 362 111 362 111 356 104.5 c 128,-1,38
 350 98 350 98 339 96 c 1,39,40
 334 91 334 91 332.5 85.5 c 128,-1,41
 331 80 331 80 327.5 77 c 128,-1,42
 324 74 324 74 320.5 72.5 c 128,-1,43
 317 71 317 71 312.5 68.5 c 128,-1,44
 308 66 308 66 305 62 c 128,-1,45
 302 58 302 58 298.5 56 c 128,-1,46
 295 54 295 54 290.5 53.5 c 128,-1,47
 286 53 286 53 284 49 c 1,48,49
 273 49 273 49 264.5 44.5 c 128,-1,50
 256 40 256 40 241.5 33.5 c 128,-1,51
 227 27 227 27 212 38 c 1,52,53
 201 36 201 36 192.5 34 c 128,-1,54
 184 32 184 32 174 34 c 1,55,56
 167 40 167 40 164 40.5 c 128,-1,57
 161 41 161 41 156 45 c 128,-1,58
 151 49 151 49 143 49 c 1,59,60
 135 60 135 60 124 65 c 1,61,62
 119 77 119 77 109 81 c 1,63,64
 108 84 108 84 106 86 c 128,-1,65
 104 88 104 88 105 92 c 1,66,67
 93 97 93 97 87 98 c 1,68,69
 84 100 84 100 82.5 104 c 128,-1,70
 81 108 81 108 78 110 c 256,71,72
 75 112 75 112 73.5 115.5 c 128,-1,73
 72 119 72 119 67 119 c 1,74,75
 67 128 67 128 62.5 140 c 128,-1,76
 58 152 58 152 56 157.5 c 128,-1,77
 54 163 54 163 49 168 c 1,78,79
 49 175 49 175 47 185 c 1,80,81
 48 188 48 188 44 193 c 128,-1,82
 40 198 40 198 40 211 c 1,83,-1
 35 256 l 1,84,-1
 38 274 l 1,85,86
 37 287 37 287 38.5 290 c 128,-1,87
 40 293 40 293 40.5 296 c 128,-1,88
 41 299 41 299 40 303 c 128,-1,89
 39 307 39 307 40 310.5 c 128,-1,90
 41 314 41 314 42.5 317 c 128,-1,91
 44 320 44 320 45.5 324.5 c 128,-1,92
 47 329 47 329 46.5 334.5 c 128,-1,93
 46 340 46 340 47.5 346.5 c 128,-1,94
 49 353 49 353 56.5 363 c 128,-1,95
 64 373 64 373 68 379 c 128,-1,96
 72 385 72 385 75 389 c 128,-1,97
 78 393 78 393 85 403 c 128,-1,98
 92 413 92 413 104 419 c 128,-1,99
 116 425 116 425 121 432 c 1,100,101
 135 432 135 432 150 447 c 1,102,103
 144 465 144 465 134 470 c 128,-1,104
 124 475 124 475 121 481 c 1,105,106
 120 496 120 496 119 503.5 c 128,-1,107
 118 511 118 511 119 519 c 1,108,109
 123 530 123 530 122 532 c 128,-1,110
 121 534 121 534 125 548 c 0,111,112
 132 573 132 573 164 590 c 1,113,114
 172 601 172 601 173 602.5 c 128,-1,115
 174 604 174 604 178.5 607 c 128,-1,116
 183 610 183 610 187.5 615 c 128,-1,117
 192 620 192 620 196.5 622 c 128,-1,118
 201 624 201 624 209 625 c 128,-1,119
 217 626 217 626 224 628 c 0,120,121
 288 640 288 640 292 615 c 1,122,123
 300 613 300 613 308.5 613 c 128,-1,124
 317 613 317 613 323 612 c 128,-1,125
 329 611 329 611 333 606.5 c 128,-1,126
 337 602 337 602 342 601 c 1,127,128
 343 595 343 595 346.5 592 c 128,-1,129
 350 589 350 589 354 582.5 c 128,-1,130
 358 576 358 576 361 574 c 1,131,132
 365 563 365 563 369 559 c 1,133,-1
 369 548 l 1,134,135
 374 543 374 543 375.5 535 c 128,-1,136
 377 527 377 527 380 521 c 1,137,138
 375 510 375 510 376 499 c 1,139,140
 374 494 374 494 370.5 489.5 c 128,-1,141
 367 485 367 485 368 477 c 1,142,143
 363 474 363 474 358 471.5 c 128,-1,144
 353 469 353 469 351 461 c 1,145,146
 346 460 346 460 343 458 c 128,-1,147
 340 456 340 456 335 455 c 1,0,1
311 487 m 1,148,149
 317 487 317 487 319.5 491.5 c 128,-1,150
 322 496 322 496 326 499 c 1,151,152
 342 506 342 506 337 540 c 1,153,154
 329 545 329 545 326 559 c 1,155,156
 322 561 322 561 317.5 565 c 128,-1,157
 313 569 313 569 304 571 c 128,-1,158
 295 573 295 573 291 570 c 1,159,160
 283 577 283 577 270 575 c 128,-1,161
 257 573 257 573 253.5 579.5 c 128,-1,162
 250 586 250 586 246 591.5 c 128,-1,163
 242 597 242 597 236.5 594.5 c 0,164,165
 229.403225806 591.274193548 229.403225806 591.274193548 220.701612903 571.637096774 c 128,-1,166
 212 552 212 552 211 547 c 128,-1,167
 210 542 210 542 208 533 c 128,-1,168
 206 524 206 524 206 505.5 c 128,-1,169
 206 487 206 487 215 464 c 1,170,171
 228 463 228 463 240.5 460.5 c 128,-1,172
 253 458 253 458 261.5 460 c 128,-1,173
 270 462 270 462 275 465 c 128,-1,174
 280 468 280 468 284 469.5 c 128,-1,175
 288 471 288 471 291 470.5 c 128,-1,176
 294 470 294 470 299.5 475.5 c 128,-1,177
 305 481 305 481 306 483 c 128,-1,178
 307 485 307 485 311 487 c 1,148,149
146 375 m 1,179,-1
 148 364 l 1,180,181
 148 355.5 148 355.5 143 341.75 c 128,-1,182
 138 328 138 328 136 318.5 c 128,-1,183
 134 309 134 309 134 294.5 c 128,-1,184
 134 280 134 280 135 270 c 1,185,186
 133 258 133 258 134.5 255.5 c 128,-1,187
 136 253 136 253 137.5 245 c 128,-1,188
 139 237 139 237 137.5 229 c 128,-1,189
 136 221 136 221 138 206 c 128,-1,190
 140 191 140 191 143 178 c 128,-1,191
 146 165 146 165 148 152 c 1,192,193
 150 149 150 149 152.5 148.5 c 128,-1,194
 155 148 155 148 155 143 c 1,195,196
 157 141 157 141 156.5 137.5 c 128,-1,197
 156 134 156 134 158 130 c 1,198,199
 167 121 167 121 168 118.5 c 128,-1,200
 169 116 169 116 171 114 c 0,201,202
 177 111 177 111 179 105 c 1,203,204
 195 94 195 94 205 87 c 128,-1,205
 215 80 215 80 224.5 81 c 128,-1,206
 234 82 234 82 241 85 c 128,-1,207
 248 88 248 88 252 87.5 c 128,-1,208
 256 87 256 87 260 89 c 128,-1,209
 264 91 264 91 270.5 97 c 128,-1,210
 277 103 277 103 285 102 c 1,211,212
 293 110 293 110 298 117 c 128,-1,213
 303 124 303 124 309 130.5 c 128,-1,214
 315 137 315 137 320 142 c 128,-1,215
 325 147 325 147 328 151.5 c 128,-1,216
 331 156 331 156 332.5 161.5 c 128,-1,217
 334 167 334 167 339 170 c 1,218,219
 337 178 337 178 344 188.5 c 128,-1,220
 351 199 351 199 344 221 c 1,221,222
 345 225 345 225 348 226 c 128,-1,223
 351 227 351 227 349 232 c 1,224,-1
 349 259 l 1,225,226
 348 267 348 267 346 275 c 128,-1,227
 344 283 344 283 347 292 c 1,228,229
 339 308 339 308 339 332 c 1,230,231
 334 336 334 336 333.5 340.5 c 128,-1,232
 333 345 333 345 329 351.5 c 128,-1,233
 325 358 325 358 316 364.5 c 128,-1,234
 307 371 307 371 308 385 c 1,235,236
 301 388 301 388 294 392 c 1,237,238
 293 398 293 398 290.5 401.5 c 128,-1,239
 288 405 288 405 285 410 c 1,240,241
 277 402 277 402 267.5 406.5 c 128,-1,242
 258 411 258 411 249 411 c 1,243,-1
 232 408 l 1,244,245
 225 408 225 408 214.5 413 c 128,-1,246
 204 418 204 418 199 414 c 128,-1,247
 194 410 194 410 187.5 409 c 128,-1,248
 181 408 181 408 172 406 c 1,249,-1
 162 396 l 2,250,251
 158 392 158 392 151 390 c 1,252,253
 153 385 153 385 150 382 c 128,-1,254
 147 379 147 379 146 375 c 1,179,-1
EndSplineSet
EndChar

StartChar: nine
Encoding: 57 57 28
Width: 424
Flags: HW
LayerCount: 2
Fore
SplineSet
287 99 m 1,0,-1
 275 97 l 1,1,2
 269 93 269 93 266 86 c 1,3,4
 257 85 257 85 249.5 79.5 c 128,-1,5
 242 74 242 74 233.5 69 c 128,-1,6
 225 64 225 64 218 61 c 128,-1,7
 211 58 211 58 207 56 c 128,-1,8
 203 54 203 54 198.5 52.5 c 128,-1,9
 194 51 194 51 187.5 51.5 c 128,-1,10
 181 52 181 52 174.5 51 c 128,-1,11
 168 50 168 50 162 48 c 128,-1,12
 156 46 156 46 147.5 47 c 128,-1,13
 139 48 139 48 129 55 c 128,-1,14
 119 62 119 62 107 62 c 1,15,16
 103 70 103 70 94.5 72 c 128,-1,17
 86 74 86 74 78 76 c 1,18,19
 76 81 76 81 74 87.5 c 128,-1,20
 72 94 72 94 69 99 c 1,21,22
 63 119 63 119 67 133 c 128,-1,23
 71 147 71 147 81 151 c 1,24,25
 92 145 92 145 94 130.5 c 128,-1,26
 96 116 96 116 98 101 c 1,27,28
 103 102 103 102 106.5 103 c 128,-1,29
 110 104 110 104 115 103 c 1,30,31
 137 84 137 84 151 84 c 1,32,-1
 168 89 l 1,33,34
 188 89 188 89 218 123 c 1,35,36
 242 141 242 141 245 152 c 0,37,38
 246 156 246 156 251 162 c 128,-1,39
 256 168 256 168 255.5 169.5 c 128,-1,40
 255 171 255 171 256.5 174.5 c 128,-1,41
 258 178 258 178 261 182.5 c 128,-1,42
 264 187 264 187 266 193 c 1,43,44
 269 196 269 196 270.5 201.5 c 128,-1,45
 272 207 272 207 276 215 c 128,-1,46
 280 223 280 223 283.5 239.5 c 128,-1,47
 287 256 287 256 289 263.5 c 128,-1,48
 291 271 291 271 292 277.5 c 128,-1,49
 293 284 293 284 292.5 289.5 c 128,-1,50
 292 295 292 295 293 310.5 c 128,-1,51
 294 326 294 326 289 344 c 1,52,53
 282 345 282 345 279.5 341 c 128,-1,54
 277 337 277 337 271 337 c 1,55,56
 268 321 268 321 257 313.5 c 128,-1,57
 246 306 246 306 237 298 c 1,58,59
 230 300 230 300 223.5 297 c 128,-1,60
 217 294 217 294 212 298 c 1,61,62
 207 298 207 298 206 295.5 c 128,-1,63
 205 293 205 293 201 292 c 1,64,65
 185 297 185 297 175 288 c 1,66,67
 164 293 164 293 150.5 289 c 128,-1,68
 137 285 137 285 125 289 c 128,-1,69
 113 293 113 293 109 293.5 c 128,-1,70
 105 294 105 294 101.5 296 c 128,-1,71
 98 298 98 298 94.5 301.5 c 128,-1,72
 91 305 91 305 83 309 c 128,-1,73
 75 313 75 313 73 313.5 c 128,-1,74
 71 314 71 314 69 315 c 1,75,76
 64 326 64 326 62.5 325.5 c 128,-1,77
 61 325 61 325 59 327 c 1,78,79
 59 334 59 334 53 343 c 128,-1,80
 47 352 47 352 48 362 c 1,81,82
 45 366 45 366 43.5 370 c 128,-1,83
 42 374 42 374 38 376 c 1,84,85
 41 381 41 381 33 402 c 0,86,87
 32 407 32 407 34 410.5 c 128,-1,88
 36 414 36 414 37 419 c 1,89,-1
 35 438 l 2,90,91
 35 443 35 443 37.5 449 c 128,-1,92
 40 455 40 455 37 460 c 1,93,94
 42 459 42 459 42 464 c 128,-1,95
 42 469 42 469 46 471 c 1,96,97
 47 490 47 490 54.5 500.5 c 128,-1,98
 62 511 62 511 64 527 c 1,99,100
 69 533 69 533 74 541.5 c 128,-1,101
 79 550 79 550 86 557 c 128,-1,102
 93 564 93 564 94.5 568 c 128,-1,103
 96 572 96 572 98 574 c 0,104,105
 108 580 108 580 114 586 c 128,-1,106
 120 592 120 592 132 595 c 1,107,108
 140 600 140 600 143.5 599.5 c 128,-1,109
 147 599 147 599 151 601 c 128,-1,110
 155 603 155 603 159.5 608.5 c 128,-1,111
 164 614 164 614 170 616.5 c 128,-1,112
 176 619 176 619 193 617.5 c 128,-1,113
 210 616 210 616 216 617 c 128,-1,114
 222 618 222 618 229.5 616 c 128,-1,115
 237 614 237 614 242 607.5 c 128,-1,116
 247 601 247 601 258 597 c 1,117,118
 261 584 261 584 271 580 c 128,-1,119
 281 576 281 576 289 568 c 1,120,121
 300 566 300 566 302 560 c 128,-1,122
 304 554 304 554 309 556 c 1,123,124
 314 538 314 538 323 534 c 1,125,126
 325 516 325 516 333 506 c 128,-1,127
 341 496 341 496 342 496 c 128,-1,128
 343 496 343 496 345 495 c 1,129,130
 350 481 350 481 351.5 474 c 0,131,132
 354.5 460 354.5 460 361.25 446 c 128,-1,133
 368 432 368 432 369.5 425 c 128,-1,134
 371 418 371 418 374 412.5 c 128,-1,135
 377 407 377 407 376.5 405.5 c 128,-1,136
 376 404 376 404 379 395.5 c 128,-1,137
 382 387 382 387 381.5 379 c 128,-1,138
 381 371 381 371 381 362 c 1,139,-1
 385 331 l 2,140,141
 385 327 385 327 383.5 322.5 c 128,-1,142
 382 318 382 318 380.5 307 c 128,-1,143
 379 296 379 296 379.5 276.5 c 128,-1,144
 380 257 380 257 371 244 c 1,145,-1
 371 228 l 1,146,147
 360 210 360 210 357 195 c 1,148,149
 352 193 352 193 350.5 187.5 c 128,-1,150
 349 182 349 182 342 181 c 1,151,152
 341 171 341 171 333.5 162 c 128,-1,153
 326 153 326 153 324 149.5 c 128,-1,154
 322 146 322 146 318 146 c 1,155,156
 317 141 317 141 315 138.5 c 128,-1,157
 313 136 313 136 310 131.5 c 128,-1,158
 307 127 307 127 302.5 122 c 128,-1,159
 298 117 298 117 294.5 111.5 c 128,-1,160
 291 106 291 106 290 103.5 c 128,-1,161
 289 101 289 101 287 99 c 1,0,-1
273 415 m 1,162,-1
 269 432 l 2,163,164
 269 436 269 436 269.5 440 c 128,-1,165
 270 444 270 444 267 453 c 128,-1,166
 264 462 264 462 261 474.5 c 128,-1,167
 258 487 258 487 254.5 493.5 c 128,-1,168
 251 500 251 500 251 508 c 1,169,170
 244 518 244 518 242 518.5 c 128,-1,171
 240 519 240 519 238 522.5 c 128,-1,172
 236 526 236 526 235.5 531.5 c 128,-1,173
 235 537 235 537 232 541 c 1,174,175
 223 548 223 548 218 552 c 128,-1,176
 213 556 213 556 209.5 558 c 0,177,178
 192.127272727 567.927272727 192.127272727 567.927272727 164 558 c 1,179,180
 162 548 162 548 157 538 c 0,181,182
 134 492 134 492 134 469 c 1,183,-1
 128 424 l 1,184,-1
 132 399 l 2,185,186
 133 391 133 391 131.5 384 c 128,-1,187
 130 377 130 377 131.5 372 c 128,-1,188
 133 367 133 367 136.5 361.5 c 128,-1,189
 140 356 140 356 141 350 c 1,190,191
 149 344 149 344 154 341.5 c 128,-1,192
 159 339 159 339 161.5 337.5 c 128,-1,193
 164 336 164 336 175.5 334.5 c 128,-1,194
 187 333 187 333 201 337 c 128,-1,195
 215 341 215 341 227 343 c 1,196,197
 230 348 230 348 235.5 351.5 c 128,-1,198
 241 355 241 355 246 360 c 1,199,200
 250 368 250 368 261.5 385 c 128,-1,201
 273 402 273 402 273 415 c 1,162,-1
EndSplineSet
EndChar

StartChar: colon
Encoding: 58 58 29
Width: 233
Flags: HW
LayerCount: 2
Fore
SplineSet
165 406 m 1,0,-1
 167 391 l 1,1,2
 162 384 162 384 162 380 c 0,3,4
 163 372 163 372 153 370 c 1,5,6
 145 370 145 370 140.5 366 c 128,-1,7
 136 362 136 362 133 362 c 2,8,-1
 122 364 l 2,9,10
 117 364 117 364 114.5 363.5 c 128,-1,11
 112 363 112 363 105.5 366 c 128,-1,12
 99 369 99 369 92.5 372.5 c 128,-1,13
 86 376 86 376 78 377 c 1,14,15
 76 382 76 382 71.5 384.5 c 128,-1,16
 67 387 67 387 65 394 c 128,-1,17
 63 401 63 401 65 411 c 128,-1,18
 67 421 67 421 62 428 c 1,19,20
 64 442 64 442 75.5 448.5 c 128,-1,21
 87 455 87 455 94.5 455 c 128,-1,22
 102 455 102 455 110 450 c 1,23,24
 121 451 121 451 128.5 448.5 c 128,-1,25
 136 446 136 446 146 444 c 1,26,27
 147 439 147 439 152 437.5 c 128,-1,28
 157 436 157 436 160 432 c 1,29,30
 165 418 165 418 165 406 c 1,0,-1
78 54 m 1,31,32
 71 70 71 70 76 99 c 1,33,34
 96 119 96 119 115 123 c 0,35,36
 120 125 120 125 124 122 c 128,-1,37
 128 119 128 119 138 113 c 128,-1,38
 148 107 148 107 152 103 c 128,-1,39
 156 99 156 99 159 95.5 c 128,-1,40
 162 92 162 92 164 90 c 1,41,42
 164 55 164 55 157.5 46 c 128,-1,43
 151 37 151 37 144 35 c 128,-1,44
 137 33 137 33 128 34.5 c 128,-1,45
 119 36 119 36 112 36 c 0,46,47
 105 36 105 36 99.5 41 c 128,-1,48
 94 46 94 46 90 47 c 128,-1,49
 86 48 86 48 87 52 c 1,50,-1
 78 54 l 1,31,32
EndSplineSet
EndChar

StartChar: semicolon
Encoding: 59 59 30
Width: 255
Flags: HW
LayerCount: 2
Fore
SplineSet
192 38 m 2,0,-1
 191 26 l 1,1,2
 183 -7 183 -7 166 -15 c 1,3,4
 166 -18 166 -18 164 -20 c 128,-1,5
 162 -22 162 -22 163 -27 c 1,6,7
 153 -30 153 -30 146 -47 c 1,8,9
 139 -51 139 -51 135 -57 c 128,-1,10
 131 -63 131 -63 125 -66.5 c 128,-1,11
 119 -70 119 -70 116 -70.5 c 128,-1,12
 113 -71 113 -71 110 -73 c 1,13,14
 98 -67 98 -67 93 -66 c 1,15,16
 94 -61 94 -61 91 -59.5 c 128,-1,17
 88 -58 88 -58 87 -53.5 c 128,-1,18
 86 -49 86 -49 88.5 -44 c 128,-1,19
 91 -39 91 -39 91 -34 c 1,20,21
 96 -29 96 -29 101 -25 c 128,-1,22
 106 -21 106 -21 108 -13 c 1,23,24
 129 10 129 10 135 33 c 0,25,26
 137 38 137 38 134 39 c 128,-1,27
 131 40 131 40 130 44 c 1,28,29
 117 54 117 54 109.5 49.5 c 128,-1,30
 102 45 102 45 92.5 45.5 c 128,-1,31
 83 46 83 46 74.5 50 c 128,-1,32
 66 54 66 54 58 54 c 1,33,34
 62 64 62 64 55.5 69 c 128,-1,35
 49 74 49 74 48 78 c 1,36,37
 50 84 50 84 52.5 88.5 c 128,-1,38
 55 93 55 93 57 99 c 1,39,40
 65 100 65 100 69.5 105 c 128,-1,41
 74 110 74 110 79 115 c 1,42,-1
 108 122 l 1,43,44
 121 120 121 120 124.5 121 c 0,45,46
 129.909090909 122.545454545 129.909090909 122.545454545 141 117 c 2,47,-1
 151 112 l 2,48,49
 154 110 154 110 156.5 107 c 128,-1,50
 159 104 159 104 164.5 102 c 128,-1,51
 170 100 170 100 174.5 93 c 128,-1,52
 179 86 179 86 184 81 c 1,53,54
 182 70 182 70 187 59.5 c 128,-1,55
 192 49 192 49 192 38 c 2,0,-1
179 351 m 1,56,57
 165 350 165 350 152.5 346 c 128,-1,58
 140 342 140 342 128 345.5 c 128,-1,59
 116 349 116 349 110 356 c 128,-1,60
 104 363 104 363 94 369 c 1,61,62
 88 401 88 401 96 413 c 1,63,64
 105 424 105 424 111 425.5 c 128,-1,65
 117 427 117 427 119 434 c 1,66,67
 124 432 124 432 127 435.5 c 128,-1,68
 130 439 130 439 140 438.5 c 128,-1,69
 150 438 150 438 160 440 c 128,-1,70
 170 442 170 442 187 422 c 1,71,72
 197 401 197 401 191 382.5 c 128,-1,73
 185 364 185 364 179 351 c 1,56,57
EndSplineSet
EndChar

StartChar: less
Encoding: 60 60 31
Width: 513
Flags: HW
LayerCount: 2
Fore
SplineSet
163 152 m 1,0,1
 152 169 152 169 121 169 c 0,2,3
 112 169 112 169 105.5 173.5 c 128,-1,4
 99 178 99 178 92 180 c 128,-1,5
 85 182 85 182 78.5 182 c 128,-1,6
 72 182 72 182 65 184 c 1,7,8
 63 188 63 188 58 188.5 c 128,-1,9
 53 189 53 189 54 195 c 1,10,11
 49 193 49 193 46.5 195.5 c 128,-1,12
 44 198 44 198 40.5 199 c 128,-1,13
 37 200 37 200 30 207 c 1,14,15
 27 227 27 227 36 229.5 c 128,-1,16
 45 232 45 232 56 236 c 1,17,18
 59 239 59 239 60 242.5 c 128,-1,19
 61 246 61 246 63 250 c 1,20,21
 68 249 68 249 69.5 254 c 128,-1,22
 71 259 71 259 78.5 263 c 128,-1,23
 86 267 86 267 87.5 267 c 128,-1,24
 89 267 89 267 92.5 269.5 c 128,-1,25
 96 272 96 272 101 276.5 c 128,-1,26
 106 281 106 281 114 283 c 1,27,28
 130 292 130 292 137 298.5 c 128,-1,29
 144 305 144 305 154.5 311 c 128,-1,30
 165 317 165 317 176 324 c 1,31,32
 185.333333333 333.333333333 185.333333333 333.333333333 208.666666667 348.666666667 c 128,-1,33
 232 364 232 364 240 365 c 128,-1,34
 248 366 248 366 257 371 c 128,-1,35
 266 376 266 376 271.5 380 c 128,-1,36
 277 384 277 384 280.5 385 c 128,-1,37
 284 386 284 386 286.5 387.5 c 128,-1,38
 289 389 289 389 291 391.5 c 128,-1,39
 293 394 293 394 298.5 396 c 128,-1,40
 304 398 304 398 317.5 405 c 128,-1,41
 331 412 331 412 334.5 416 c 128,-1,42
 338 420 338 420 343 418 c 1,43,44
 350 428 350 428 353 427.5 c 128,-1,45
 356 427 356 427 358 430 c 128,-1,46
 360 433 360 433 363 433 c 128,-1,47
 366 433 366 433 374 436.5 c 128,-1,48
 382 440 382 440 386 441 c 128,-1,49
 390 442 390 442 394 444 c 1,50,51
 403 452 403 452 406 451.5 c 128,-1,52
 409 451 409 451 412.5 452.5 c 128,-1,53
 416 454 416 454 421 456.5 c 128,-1,54
 426 459 426 459 433.5 459.5 c 128,-1,55
 441 460 441 460 460 452 c 1,56,57
 469 437 469 437 463 428 c 2,58,-1
 456 417.5 l 2,59,60
 455 416 455 416 450 413.5 c 128,-1,61
 445 411 445 411 445 407.5 c 128,-1,62
 445 404 445 404 443 402 c 0,63,64
 427 390 427 390 421.5 389 c 128,-1,65
 416 388 416 388 415 385 c 128,-1,66
 414 382 414 382 410 380.5 c 128,-1,67
 406 379 406 379 405 377 c 128,-1,68
 404 375 404 375 400 370 c 1,69,70
 393 365 393 365 394 364 c 0,71,72
 395 359 395 359 372 347 c 1,73,74
 371 344 371 344 369 342.5 c 128,-1,75
 367 341 367 341 368 336 c 1,76,77
 363 336 363 336 361 333.5 c 128,-1,78
 359 331 359 331 351 326 c 128,-1,79
 343 321 343 321 326 315.5 c 128,-1,80
 309 310 309 310 300 298 c 1,81,82
 286 296 286 296 277.5 290 c 128,-1,83
 269 284 269 284 258 279 c 1,84,85
 255 275 255 275 248 270 c 1,86,87
 241 268 241 268 236 265.5 c 128,-1,88
 231 263 231 263 223 263 c 1,89,90
 218 261 218 261 215 257.5 c 128,-1,91
 212 254 212 254 203 256 c 1,92,93
 190 245 190 245 163 238 c 1,94,95
 160 231 160 231 155 228.5 c 128,-1,96
 150 226 150 226 150 219 c 128,-1,97
 150 212 150 212 157 208.5 c 128,-1,98
 164 205 164 205 170 199 c 1,99,100
 184 197 184 197 194.5 192 c 128,-1,101
 205 187 205 187 217 182 c 1,102,-1
 229 179 l 1,103,104
 232 177 232 177 234.5 176 c 128,-1,105
 237 175 237 175 241 173 c 128,-1,106
 245 171 245 171 251.5 170 c 128,-1,107
 258 169 258 169 262 165 c 1,108,109
 274 164 274 164 296.5 154 c 128,-1,110
 319 144 319 144 334 143 c 1,111,112
 338 138 338 138 344 136.5 c 128,-1,113
 350 135 350 135 366 127 c 128,-1,114
 382 119 382 119 393.5 118.5 c 128,-1,115
 405 118 405 118 413 113 c 1,116,117
 421 111 421 111 424 111.5 c 128,-1,118
 427 112 427 112 435 113 c 1,119,120
 440 106 440 106 444.5 98 c 128,-1,121
 449 90 449 90 447 75 c 1,122,123
 414 57 414 57 394 72 c 0,124,125
 388 77 388 77 373.5 78.5 c 128,-1,126
 359 80 359 80 351 82 c 1,127,128
 335 91 335 91 319 93 c 1,129,130
 306 105 306 105 283 109 c 1,131,132
 279 115 279 115 276 118 c 1,133,134
 271 120 271 120 269.5 119 c 128,-1,135
 268 118 268 118 262 118 c 1,136,137
 256 127 256 127 233.5 131 c 128,-1,138
 211 135 211 135 203 141 c 1,139,-1
 182 143 l 1,140,141
 178 145 178 145 174.5 149 c 128,-1,142
 171 153 171 153 163 152 c 1,0,1
EndSplineSet
EndChar

StartChar: equal
Encoding: 61 61 32
Width: 561
Flags: HW
LayerCount: 2
Fore
SplineSet
391 309 m 1,0,-1
 377 305 l 1,1,2
 368 310 368 310 353 308.5 c 128,-1,3
 338 307 338 307 330 312 c 1,4,5
 307 306 307 306 295 312 c 128,-1,6
 283 318 283 318 283 316.5 c 128,-1,7
 283 315 283 315 273 318 c 128,-1,8
 263 321 263 321 257 325 c 1,9,10
 247 322 247 322 237 314 c 1,11,12
 199 309 199 309 180 312.5 c 128,-1,13
 161 316 161 316 154 313 c 128,-1,14
 147 310 147 310 140.5 316 c 128,-1,15
 134 322 134 322 128 325 c 1,16,17
 123 324 123 324 120.5 319.5 c 128,-1,18
 118 315 118 315 107.5 314.5 c 128,-1,19
 97 314 97 314 88.5 323.5 c 128,-1,20
 80 333 80 333 82 346 c 1,21,22
 84 351 84 351 87.5 354 c 128,-1,23
 91 357 91 357 93 362 c 1,24,25
 99 364 99 364 104 362.5 c 128,-1,26
 109 361 109 361 115.5 362.5 c 128,-1,27
 122 364 122 364 127 368 c 128,-1,28
 132 372 132 372 139 372.5 c 128,-1,29
 146 373 146 373 149.5 369.5 c 128,-1,30
 153 366 153 366 175 366 c 1,31,32
 198 369 198 369 206 365 c 1,33,-1
 219 370 l 1,34,35
 237 366 237 366 259 366 c 1,36,37
 265 368 265 368 270 368 c 2,38,-1
 285 365 l 2,39,40
 287 364 287 364 290.5 365.5 c 128,-1,41
 294 367 294 367 297 366 c 2,42,-1
 326 362 l 2,43,44
 332 362 332 362 338.5 364.5 c 128,-1,45
 345 367 345 367 350 366 c 2,46,-1
 382 360 l 1,47,-1
 395 365 l 1,48,-1
 439 366 l 1,49,-1
 471 360 l 1,50,51
 484 350 484 350 479 329 c 0,52,53
 478 327 478 327 476.5 325 c 128,-1,54
 475 323 475 323 470.5 316 c 128,-1,55
 466 309 466 309 464.5 309.5 c 128,-1,56
 463 310 463 310 462 309 c 0,57,58
 461 305 461 305 452.5 301 c 128,-1,59
 444 297 444 297 434 301 c 128,-1,60
 424 305 424 305 419 305 c 128,-1,61
 414 305 414 305 406 304.5 c 128,-1,62
 398 304 398 304 391 309 c 1,0,-1
346 187 m 1,63,-1
 360 185 l 1,64,65
 369 185 369 185 380.5 186.5 c 128,-1,66
 392 188 392 188 404 189 c 128,-1,67
 416 190 416 190 425.5 189.5 c 128,-1,68
 435 189 435 189 444 195 c 1,69,70
 452 192 452 192 460 190 c 128,-1,71
 468 188 468 188 476 185 c 1,72,73
 477 180 477 180 482.5 175 c 128,-1,74
 488 170 488 170 488 164.5 c 128,-1,75
 488 159 488 159 486 156 c 128,-1,76
 484 153 484 153 482 148 c 1,77,-1
 452 142 l 1,78,-1
 428 148 l 1,79,80
 414 148 414 148 399.5 144.5 c 128,-1,81
 385 141 385 141 377 141.5 c 128,-1,82
 369 142 369 142 364 141 c 128,-1,83
 359 140 359 140 356 138.5 c 128,-1,84
 353 137 353 137 347.5 138 c 128,-1,85
 342 139 342 139 340.5 138 c 128,-1,86
 339 137 339 137 337 137 c 2,87,-1
 322 139 l 1,88,89
 313 139 313 139 304.5 138 c 128,-1,90
 296 137 296 137 286 142 c 1,91,92
 278 142 278 142 271.5 139.5 c 128,-1,93
 265 137 265 137 254.5 141.5 c 128,-1,94
 244 146 244 146 240.5 147 c 128,-1,95
 237 148 237 148 232 150 c 1,96,97
 223 144 223 144 205.5 144 c 128,-1,98
 188 144 188 144 182 154 c 1,99,100
 174 149 174 149 165 151 c 128,-1,101
 156 153 156 153 142 154 c 1,102,-1
 129 156 l 1,103,104
 122 155 122 155 116 151 c 128,-1,105
 110 147 110 147 101 147.5 c 128,-1,106
 92 148 92 148 87 153 c 128,-1,107
 82 158 82 158 77 161 c 1,108,109
 75 169 75 169 72 174.5 c 128,-1,110
 69 180 69 180 70 189 c 1,111,112
 75 193 75 193 80 193.5 c 128,-1,113
 85 194 85 194 91 195 c 1,114,-1
 112 193 l 2,115,116
 115 193 115 193 118.5 194.5 c 0,117,118
 128.045454545 198.590909091 128.045454545 198.590909091 146 195 c 1,119,120
 157 198 157 198 161.5 194.5 c 128,-1,121
 166 191 166 191 171 190 c 1,122,-1
 196 193 l 1,123,-1
 228 193 l 1,124,-1
 242 189 l 2,125,126
 247 188 247 188 250 189.5 c 0,127,128
 254.333333333 191.666666667 254.333333333 191.666666667 265.666666667 188.833333333 c 128,-1,129
 277 186 277 186 285 186.5 c 128,-1,130
 293 187 293 187 295 187 c 2,131,-1
 320 184 l 2,132,133
 327 183 327 183 333 184.5 c 128,-1,134
 339 186 339 186 346 187 c 1,63,-1
EndSplineSet
EndChar

StartChar: greater
Encoding: 62 62 33
Width: 534
Flags: HW
LayerCount: 2
Fore
SplineSet
264 357 m 1,0,-1
 278 355 l 1,1,2
 290 346 290 346 309 339.5 c 128,-1,3
 328 333 328 333 339.5 328.5 c 128,-1,4
 351 324 351 324 368 326 c 1,5,6
 372 324 372 324 374.5 319.5 c 128,-1,7
 377 315 377 315 381 312 c 1,8,9
 383 312 383 312 388.5 310.5 c 128,-1,10
 394 309 394 309 396 312 c 1,11,12
 402 308 402 308 407 304.5 c 128,-1,13
 412 301 412 301 423 302 c 1,14,15
 435 290 435 290 476 279 c 1,16,17
 478 274 478 274 481 271.5 c 128,-1,18
 484 269 484 269 486 264 c 1,19,20
 500 259 500 259 505 250 c 1,21,22
 505 244 505 244 505.5 237 c 128,-1,23
 506 230 506 230 504 225 c 1,24,25
 498 217 498 217 487 216 c 128,-1,26
 476 215 476 215 466.5 213 c 128,-1,27
 457 211 457 211 450.5 207.5 c 128,-1,28
 444 204 444 204 436 206 c 1,29,30
 429 203 429 203 423.5 199.5 c 128,-1,31
 418 196 418 196 410 195 c 1,32,33
 405 190 405 190 399 187.5 c 128,-1,34
 393 185 393 185 388 180 c 1,35,36
 378 181 378 181 370.5 176.5 c 0,37,38
 354 166.6 354 166.6 345.5 167.8 c 128,-1,39
 337 169 337 169 331 163 c 128,-1,40
 325 157 325 157 322 156.5 c 128,-1,41
 319 156 319 156 315 154 c 1,42,43
 311 149 311 149 308.5 148.5 c 128,-1,44
 306 148 306 148 303.5 146 c 128,-1,45
 301 144 301 144 299 142.5 c 128,-1,46
 297 141 297 141 295 139 c 1,47,48
 260 134 260 134 249 120 c 1,49,50
 244 118 244 118 236.5 118 c 128,-1,51
 229 118 229 118 219 117 c 1,52,53
 205 111 205 111 195.5 104.5 c 128,-1,54
 186 98 186 98 175 93 c 1,55,56
 163 97 163 97 152 93 c 128,-1,57
 141 89 141 89 137 81 c 1,58,59
 132 79 132 79 127 78 c 128,-1,60
 122 77 122 77 120 74 c 1,61,62
 103 74 103 74 87 67 c 1,63,64
 83 69 83 69 78.5 69.5 c 128,-1,65
 74 70 74 70 69.5 73 c 128,-1,66
 65 76 65 76 67 81 c 128,-1,67
 69 86 69 86 69.5 92 c 128,-1,68
 70 98 70 98 72 102 c 128,-1,69
 74 106 74 106 76 111 c 1,70,71
 90 112 90 112 105 115.5 c 128,-1,72
 120 119 120 119 123.5 119 c 0,73,74
 130 119 130 119 137.5 124 c 128,-1,75
 145 129 145 129 150 129 c 128,-1,76
 155 129 155 129 159.5 131 c 128,-1,77
 164 133 164 133 169.5 137 c 128,-1,78
 175 141 175 141 183 141 c 1,79,80
 189 144 189 144 193 148 c 1,81,82
 208 151 208 151 219 154 c 1,83,84
 228 160 228 160 230 160 c 128,-1,85
 232 160 232 160 234 161 c 0,86,87
 238 166 238 166 242.5 166.5 c 128,-1,88
 247 167 247 167 251 168.5 c 128,-1,89
 255 170 255 170 258.5 170 c 128,-1,90
 262 170 262 170 270 174.5 c 128,-1,91
 278 179 278 179 282.5 178.5 c 128,-1,92
 287 178 287 178 292.5 182 c 128,-1,93
 298 186 298 186 304.5 188 c 128,-1,94
 311 190 311 190 315 197 c 1,95,96
 321 194 321 194 328.5 197.5 c 128,-1,97
 336 201 336 201 343 203.5 c 128,-1,98
 350 206 350 206 357 209 c 1,99,100
 363 214 363 214 370.5 216 c 128,-1,101
 378 218 378 218 383 223 c 1,102,103
 386 242 386 242 371 245 c 0,104,105
 367 246 367 246 365.5 249 c 128,-1,106
 364 252 364 252 359.5 254 c 128,-1,107
 355 256 355 256 351 255.5 c 128,-1,108
 347 255 347 255 338.5 259 c 128,-1,109
 330 263 330 263 326.5 267 c 128,-1,110
 323 271 323 271 318.5 273 c 128,-1,111
 314 275 314 275 310 274 c 128,-1,112
 306 273 306 273 299.5 277.5 c 128,-1,113
 293 282 293 282 291.5 281 c 128,-1,114
 290 280 290 280 281.5 286.5 c 128,-1,115
 273 293 273 293 249 297 c 1,116,117
 244 302 244 302 238.5 305.5 c 128,-1,118
 233 309 233 309 227 314 c 1,119,120
 221 314 221 314 216.5 317.5 c 128,-1,121
 212 321 212 321 203 319 c 1,122,123
 196 336 196 336 178.5 336 c 128,-1,124
 161 336 161 336 153.5 341 c 128,-1,125
 146 346 146 346 141 345 c 1,126,127
 135 353 135 353 124 354 c 1,128,129
 103 382 103 382 80 376 c 1,130,131
 75 380 75 380 69 382.5 c 128,-1,132
 63 385 63 385 58 390 c 1,133,134
 46 419 46 419 69 436 c 1,135,136
 118 436 118 436 134 416 c 0,137,138
 138 410 138 410 147 408 c 128,-1,139
 156 406 156 406 162 403.5 c 128,-1,140
 168 401 168 401 178 398 c 128,-1,141
 188 395 188 395 195 390 c 1,142,143
 199 391 199 391 201.5 388 c 128,-1,144
 204 385 204 385 206 390 c 1,145,146
 218 379 218 379 234.5 373.5 c 128,-1,147
 251 368 251 368 264 357 c 1,0,-1
EndSplineSet
EndChar

StartChar: question
Encoding: 63 63 34
Width: 402
Flags: HW
LayerCount: 2
Fore
SplineSet
347 505 m 2,0,-1
 346 480 l 2,1,2
 346 478 346 478 343.5 474.5 c 128,-1,3
 341 471 341 471 336 461.5 c 128,-1,4
 331 452 331 452 318 442 c 1,5,6
 310 438 310 438 309.5 436 c 128,-1,7
 309 434 309 434 305 433.5 c 128,-1,8
 301 433 301 433 299 430.5 c 128,-1,9
 297 428 297 428 294.5 426.5 c 128,-1,10
 292 425 292 425 287.5 425 c 128,-1,11
 283 425 283 425 280 422 c 1,12,13
 278 418 278 418 274.5 421 c 128,-1,14
 271 424 271 424 268 420 c 1,15,16
 263 421 263 421 261 417.5 c 128,-1,17
 259 414 259 414 248 411.5 c 128,-1,18
 237 409 237 409 233 404 c 1,19,20
 224 404 224 404 218 402 c 128,-1,21
 212 400 212 400 204.5 401.5 c 128,-1,22
 197 403 197 403 192.5 407 c 128,-1,23
 188 411 188 411 183.5 412 c 128,-1,24
 179 413 179 413 176 411 c 128,-1,25
 173 409 173 409 169 411 c 1,26,27
 162 394 162 394 164 357 c 2,28,-1
 165 336 l 1,29,-1
 160 319 l 1,30,-1
 166 273 l 1,31,-1
 161 252 l 1,32,33
 161 244 161 244 162 236.5 c 128,-1,34
 163 229 163 229 162 223.5 c 0,35,36
 159.390243902 209.146341463 159.390243902 209.146341463 149.195121951 194.573170732 c 128,-1,37
 139 180 139 180 130 181.5 c 128,-1,38
 121 183 121 183 119 185.5 c 128,-1,39
 117 188 117 188 115 195 c 1,40,41
 109 192 109 192 105.5 194 c 128,-1,42
 102 196 102 196 97 198 c 1,43,44
 92 215 92 215 87 230.5 c 128,-1,45
 82 246 82 246 87 268 c 1,46,47
 93 280 93 280 94 284 c 1,48,-1
 91 303 l 2,49,50
 89 313 89 313 89 322.5 c 128,-1,51
 89 332 89 332 94 341 c 1,52,53
 89 350 89 350 90 360.5 c 128,-1,54
 91 371 91 371 88 382 c 1,55,-1
 96 400 l 1,56,57
 93 414 93 414 95.5 432.5 c 128,-1,58
 98 451 98 451 96.5 479 c 128,-1,59
 95 507 95 507 110 528 c 0,60,61
 112 530 112 530 114.5 533.5 c 128,-1,62
 117 537 117 537 121 538 c 128,-1,63
 125 539 125 539 129 536.5 c 128,-1,64
 133 534 133 534 138 535 c 1,65,66
 148 514 148 514 157 507 c 1,67,-1
 156 494 l 1,68,69
 160 478 160 478 163.5 471.5 c 128,-1,70
 167 465 167 465 169 455 c 1,71,72
 180 453 180 453 188 454 c 128,-1,73
 196 455 196 455 204 450 c 1,74,75
 217 456 217 456 224.5 467.5 c 128,-1,76
 232 479 232 479 243 488 c 1,77,78
 245 496 245 496 246 500.5 c 128,-1,79
 247 505 247 505 249 511 c 128,-1,80
 251 517 251 517 253 520.5 c 128,-1,81
 255 524 255 524 260 533.5 c 128,-1,82
 265 543 265 543 263.5 547.5 c 128,-1,83
 262 552 262 552 267 554 c 1,84,85
 264 572 264 572 265.5 588.5 c 128,-1,86
 267 605 267 605 265 616.5 c 128,-1,87
 263 628 263 628 260 633.5 c 128,-1,88
 257 639 257 639 256.5 644.5 c 128,-1,89
 256 650 256 650 257 654 c 128,-1,90
 258 658 258 658 256.5 667.5 c 128,-1,91
 255 677 255 677 247 687.5 c 128,-1,92
 239 698 239 698 243 713 c 1,93,94
 240 721 240 721 235 726 c 128,-1,95
 230 731 230 731 228 739 c 1,96,97
 223 743 223 743 219.5 748 c 128,-1,98
 216 753 216 753 212 758 c 1,99,100
 205 759 205 759 200 762 c 128,-1,101
 195 765 195 765 190 768 c 1,102,103
 172 771 172 771 160.5 765.5 c 128,-1,104
 149 760 149 760 134 759 c 1,105,106
 127 756 127 756 125 747.5 c 128,-1,107
 123 739 123 739 117 735 c 1,108,109
 115 723 115 723 115 716 c 128,-1,110
 115 709 115 709 109 700 c 1,111,112
 112 674 112 674 108 663 c 1,113,114
 113 654 113 654 124 651.5 c 128,-1,115
 135 649 135 649 143 644 c 1,116,117
 149 636 149 636 148.5 626 c 128,-1,118
 148 616 148 616 143 610 c 0,119,120
 129 591 129 591 116 608 c 1,121,122
 99 609 99 609 89.5 616 c 128,-1,123
 80 623 80 623 69 628 c 1,124,125
 67 640 67 640 59 643 c 1,126,127
 57 653 57 653 54.5 659.5 c 128,-1,128
 52 666 52 666 48.5 677 c 128,-1,129
 45 688 45 688 49 708 c 128,-1,130
 53 728 53 728 57.5 736 c 128,-1,131
 62 744 62 744 61 746.5 c 128,-1,132
 60 749 60 749 63.5 753 c 128,-1,133
 67 757 67 757 70.5 760.5 c 128,-1,134
 74 764 74 764 77 769 c 1,135,136
 82 774 82 774 86 779.5 c 128,-1,137
 90 785 90 785 95.5 787.5 c 128,-1,138
 101 790 101 790 102 791.5 c 128,-1,139
 103 793 103 793 104.5 794 c 128,-1,140
 106 795 106 795 109.5 795 c 0,141,142
 118 795 118 795 134 811 c 1,143,144
 141 812 141 812 148 812 c 128,-1,145
 155 812 155 812 163.5 816 c 128,-1,146
 172 820 172 820 174 818.5 c 128,-1,147
 176 817 176 817 184 817.5 c 128,-1,148
 192 818 192 818 199.5 819 c 0,149,150
 212.25 820.7 212.25 820.7 224.625 815.35 c 128,-1,151
 237 810 237 810 243 810 c 128,-1,152
 249 810 249 810 255.5 805.5 c 128,-1,153
 262 801 262 801 263 801.5 c 128,-1,154
 264 802 264 802 266 802 c 1,155,156
 272 795 272 795 276 793.5 c 128,-1,157
 280 792 280 792 282 787 c 1,158,159
 287 787 287 787 289.5 785 c 128,-1,160
 292 783 292 783 297 784 c 1,161,162
 299 779 299 779 302.5 775 c 128,-1,163
 306 771 306 771 312 764 c 128,-1,164
 318 757 318 757 319.5 755 c 128,-1,165
 321 753 321 753 325.5 747.5 c 128,-1,166
 330 742 330 742 334 733 c 2,167,-1
 344 714 l 1,168,169
 351 709 351 709 354 695.5 c 128,-1,170
 357 682 357 682 370 655 c 1,171,172
 372 647 372 647 371 638 c 128,-1,173
 370 629 370 629 371 618 c 2,174,-1
 373 596 l 2,175,176
 374 593 374 593 372.5 589.5 c 128,-1,177
 371 586 371 586 371 583 c 2,178,-1
 372 569 l 1,179,-1
 366 544 l 1,180,181
 366 539 366 539 362.5 531 c 128,-1,182
 359 523 359 523 357 521 c 128,-1,183
 355 519 355 519 353 513.5 c 128,-1,184
 351 508 351 508 349 507 c 128,-1,185
 347 506 347 506 347 505 c 2,0,-1
76 4 m 2,186,-1
 78 19 l 1,187,188
 78 29 78 29 83 34 c 128,-1,189
 88 39 88 39 90 46 c 1,190,191
 98 47 98 47 104 51 c 128,-1,192
 110 55 110 55 118 57.5 c 128,-1,193
 126 60 126 60 129 60.5 c 128,-1,194
 132 61 132 61 142 56 c 128,-1,195
 152 51 152 51 164 30 c 1,196,197
 172 9 172 9 171.5 -1.5 c 128,-1,198
 171 -12 171 -12 156 -24 c 0,199,200
 152 -26 152 -26 147 -26.5 c 128,-1,201
 142 -27 142 -27 137.5 -29 c 128,-1,202
 133 -31 133 -31 129.5 -32.5 c 128,-1,203
 126 -34 126 -34 122 -36 c 1,204,205
 116 -34 116 -34 110.5 -29.5 c 128,-1,206
 105 -25 105 -25 96 -20.5 c 128,-1,207
 87 -16 87 -16 82 -11 c 1,208,209
 79 -3 79 -3 77.5 -1 c 128,-1,210
 76 1 76 1 76 4 c 2,186,-1
EndSplineSet
EndChar

StartChar: at
Encoding: 64 64 35
Width: 674
Flags: HW
LayerCount: 2
Fore
SplineSet
153 250 m 1,0,-1
 161 225 l 1,1,2
 161 215 161 215 168.5 206 c 128,-1,3
 176 197 176 197 176 189 c 1,4,5
 179 181 179 181 186 176 c 128,-1,6
 193 171 193 171 194 160 c 1,7,8
 202 157 202 157 205 149.5 c 128,-1,9
 208 142 208 142 219 142 c 1,10,11
 226 130 226 130 237 123.5 c 0,12,13
 248.379310345 116.775862069 248.379310345 116.775862069 257 106 c 1,14,15
 286.647058824 78 286.647058824 78 365.5 78 c 0,16,17
 386.888888889 78 386.888888889 78 402.444444444 85 c 128,-1,18
 418 92 418 92 425 95 c 128,-1,19
 432 98 432 98 438 99 c 128,-1,20
 444 100 444 100 449 102 c 1,21,22
 461 110 461 110 465.5 109 c 128,-1,23
 470 108 470 108 474.5 108 c 128,-1,24
 479 108 479 108 479.5 109 c 0,25,26
 480.333333333 110.666666667 480.333333333 110.666666667 495 96 c 1,27,28
 490.951219512 67.6585365854 490.951219512 67.6585365854 483.975609756 62.8292682927 c 128,-1,29
 477 58 477 58 470.5 58.5 c 128,-1,30
 464 59 464 59 459.5 57.5 c 128,-1,31
 455 56 455 56 452 54.5 c 128,-1,32
 449 53 449 53 442.5 50 c 128,-1,33
 436 47 436 47 434.5 47.5 c 128,-1,34
 433 48 433 48 430.5 47 c 128,-1,35
 428 46 428 46 425 44.5 c 128,-1,36
 422 43 422 43 418.5 41.5 c 128,-1,37
 415 40 415 40 411.5 40.5 c 128,-1,38
 408 41 408 41 401.5 39.5 c 128,-1,39
 395 38 395 38 389.5 33.5 c 128,-1,40
 384 29 384 29 379 28 c 1,41,-1
 359 32 l 2,42,43
 353 33 353 33 338 30 c 1,44,-1
 310 30 l 2,45,46
 305 30 305 30 303 33 c 128,-1,47
 301 36 301 36 297 38 c 1,48,-1
 284 38 l 1,49,50
 277 43 277 43 270.5 44 c 128,-1,51
 264 45 264 45 256 47 c 1,52,53
 246 52 246 52 244.5 51 c 128,-1,54
 243 50 243 50 236.5 54 c 128,-1,55
 230 58 230 58 211 63 c 1,56,57
 206 69 206 69 206 73 c 1,58,59
 181 77 181 77 174 84.5 c 128,-1,60
 167 92 167 92 159 100 c 1,61,62
 154 102 154 102 152 106.5 c 128,-1,63
 150 111 150 111 144 114 c 128,-1,64
 138 117 138 117 137.5 119.5 c 128,-1,65
 137 122 137 122 134.5 125 c 128,-1,66
 132 128 132 128 126 135.5 c 128,-1,67
 120 143 120 143 113.5 149 c 128,-1,68
 107 155 107 155 103.5 159 c 128,-1,69
 100 163 100 163 98 167 c 128,-1,70
 96 171 96 171 89.5 181.5 c 128,-1,71
 83 192 83 192 78 205 c 128,-1,72
 73 218 73 218 68.5 220.5 c 128,-1,73
 64 223 64 223 61 228 c 1,74,75
 61 240 61 240 57 259 c 128,-1,76
 53 278 53 278 52 287.5 c 128,-1,77
 51 297 51 297 46 306 c 1,78,79
 50 322 50 322 46 333 c 1,80,81
 47 341 47 341 52 349 c 1,82,83
 52 384 52 384 60.5 396.5 c 128,-1,84
 69 409 69 409 70 415.5 c 128,-1,85
 71 422 71 422 73 425 c 128,-1,86
 75 428 75 428 76 432.5 c 128,-1,87
 77 437 77 437 79 443 c 128,-1,88
 81 449 81 449 82 453 c 128,-1,89
 83 457 83 457 93.5 470.5 c 128,-1,90
 104 484 104 484 104.5 487 c 128,-1,91
 105 490 105 490 110.5 499.5 c 128,-1,92
 116 509 116 509 123.5 516.5 c 2,93,-1
 137 530 l 2,94,95
 143 536 143 536 143 537.5 c 128,-1,96
 143 539 143 539 145.5 542 c 128,-1,97
 148 545 148 545 151.5 548.5 c 128,-1,98
 155 552 155 552 158 555.5 c 128,-1,99
 161 559 161 559 163.5 562.5 c 128,-1,100
 166 566 166 566 168.5 568 c 128,-1,101
 171 570 171 570 175 571.5 c 128,-1,102
 179 573 179 573 182 576 c 128,-1,103
 185 579 185 579 187 582.5 c 128,-1,104
 189 586 189 586 193.5 589.5 c 128,-1,105
 198 593 198 593 204.5 596 c 128,-1,106
 211 599 211 599 213 607 c 1,107,108
 219 608 219 608 223 611.5 c 128,-1,109
 227 615 227 615 232 616.5 c 128,-1,110
 237 618 237 618 244 622.5 c 128,-1,111
 251 627 251 627 255 630.5 c 128,-1,112
 259 634 259 634 266 637.5 c 128,-1,113
 273 641 273 641 274 640 c 128,-1,114
 275 639 275 639 280 640.5 c 128,-1,115
 285 642 285 642 288.5 643.5 c 128,-1,116
 292 645 292 645 300 646 c 128,-1,117
 308 647 308 647 314 650 c 1,118,119
 322 651 322 651 328 651 c 128,-1,120
 334 651 334 651 340 655 c 1,121,122
 348 652 348 652 355 655.5 c 128,-1,123
 362 659 362 659 375 657 c 1,124,125
 377 659 377 659 381.5 659.5 c 128,-1,126
 386 660 386 660 388 664 c 1,127,128
 409.375 656.875 409.375 656.875 417.1875 658.4375 c 128,-1,129
 425 660 425 660 427.5 656.5 c 128,-1,130
 430 653 430 653 437.5 651.5 c 128,-1,131
 445 650 445 650 449.5 648 c 128,-1,132
 454 646 454 646 464 644.5 c 128,-1,133
 474 643 474 643 480 639.5 c 128,-1,134
 486 636 486 636 490.5 637 c 0,135,136
 506.045454545 640.454545455 506.045454545 640.454545455 514 615 c 1,137,138
 528 613 528 613 536 599 c 1,139,140
 551 589 551 589 560 584 c 128,-1,141
 569 579 569 579 574 573.5 c 128,-1,142
 579 568 579 568 580 563.5 c 0,143,144
 584.095890411 545.068493151 584.095890411 545.068493151 607 518 c 1,145,146
 607 510 607 510 610 503 c 128,-1,147
 613 496 613 496 617.5 486.5 c 128,-1,148
 622 477 622 477 629 471 c 1,149,150
 626 466 626 466 629.5 462.5 c 128,-1,151
 633 459 633 459 635 453 c 128,-1,152
 637 447 637 447 637 439 c 128,-1,153
 637 431 637 431 639 423 c 2,154,-1
 643 411 l 1,155,156
 644 396 644 396 638 380 c 128,-1,157
 632 364 632 364 637 347 c 1,158,159
 629 335 629 335 624 320 c 128,-1,160
 619 305 619 305 614 295.5 c 128,-1,161
 609 286 609 286 605.5 282.5 c 128,-1,162
 602 279 602 279 602 273 c 1,163,164
 583 261 583 261 570 244 c 1,165,166
 565 244 565 244 560 241 c 128,-1,167
 555 238 555 238 550 236 c 1,168,169
 540 236 540 236 536 232.5 c 0,170,171
 528.222222222 225.694444444 528.222222222 225.694444444 511 230 c 1,172,173
 500 229 500 229 499 232 c 1,174,175
 491 232 491 232 487 228 c 1,176,177
 483 230 483 230 477.5 231 c 128,-1,178
 472 232 472 232 470 236 c 1,179,180
 456 233 456 233 438 246 c 1,181,182
 433 245 433 245 419.5 251 c 128,-1,183
 406 257 406 257 400 258.5 c 128,-1,184
 394 260 394 260 390.5 261 c 128,-1,185
 387 262 387 262 381 261 c 128,-1,186
 375 260 375 260 370 255.5 c 128,-1,187
 365 251 365 251 359.5 249 c 128,-1,188
 354 247 354 247 350 247.5 c 0,189,190
 344.315789474 248.210526316 344.315789474 248.210526316 333.157894737 241.605263158 c 128,-1,191
 322 235 322 235 306 242 c 1,192,193
 289 244 289 244 282 244 c 1,194,-1
 262 250 l 1,195,196
 259 256 259 256 256 261.5 c 128,-1,197
 253 267 253 267 245 269 c 1,198,199
 243 277 243 277 230 287 c 1,200,201
 230 291 230 291 230.5 294 c 128,-1,202
 231 297 231 297 230 301 c 128,-1,203
 229 305 229 305 226.5 307.5 c 128,-1,204
 224 310 224 310 223 315 c 128,-1,205
 222 320 222 320 222.5 323.5 c 128,-1,206
 223 327 223 327 223.5 335.5 c 128,-1,207
 224 344 224 344 222.5 347 c 128,-1,208
 221 350 221 350 221 361.5 c 128,-1,209
 221 373 221 373 229 389 c 128,-1,210
 237 405 237 405 238.5 411.5 c 128,-1,211
 240 418 240 418 254 428 c 1,212,213
 265 440 265 440 280 454 c 1,214,215
 285 454 285 454 286.5 456.5 c 128,-1,216
 288 459 288 459 293 458 c 1,217,218
 295 463 295 463 300 465 c 128,-1,219
 305 467 305 467 313 470 c 0,220,221
 351 487 351 487 377 484 c 1,222,-1
 401 477 l 1,223,224
 413 477 413 477 416 471.5 c 128,-1,225
 419 466 419 466 423 464 c 1,226,-1
 451 465 l 1,227,228
 465.307692308 445.923076923 465.307692308 445.923076923 462.653846154 437.961538462 c 128,-1,229
 460 430 460 430 460 423 c 1,230,-1
 462 411 l 1,231,-1
 458 397 l 1,232,233
 458 380 458 380 461.5 375.5 c 128,-1,234
 465 371 465 371 466.5 362 c 128,-1,235
 468 353 468 353 468.5 340.5 c 128,-1,236
 469 328 469 328 474 315 c 128,-1,237
 479 302 479 302 487 293.5 c 128,-1,238
 495 285 495 285 497 281.5 c 128,-1,239
 499 278 499 278 504 276.5 c 128,-1,240
 509 275 509 275 512 277 c 128,-1,241
 515 279 515 279 524 283 c 128,-1,242
 533 287 533 287 546 295.5 c 128,-1,243
 559 304 559 304 560 306 c 128,-1,244
 561 308 561 308 565 306 c 1,245,246
 568 314 568 314 574 320.5 c 128,-1,247
 580 327 580 327 579 339 c 1,248,249
 590 348 590 348 593 356.5 c 128,-1,250
 596 365 596 365 599.5 370 c 128,-1,251
 603 375 603 375 604 380 c 1,252,-1
 602 395 l 2,253,254
 602 402 602 402 605 409 c 128,-1,255
 608 416 608 416 607.5 423 c 128,-1,256
 607 430 607 430 601 437.5 c 128,-1,257
 595 445 595 445 598 456 c 1,258,259
 597 461 597 461 593 463 c 128,-1,260
 589 465 589 465 587 469 c 1,261,262
 582 500 582 500 567 510 c 1,263,264
 562 512 562 512 560.5 517 c 128,-1,265
 559 522 559 522 553 523 c 1,266,267
 545 545 545 545 531 557 c 1,268,269
 520 562 520 562 519 563.5 c 128,-1,270
 518 565 518 565 509.5 568.5 c 128,-1,271
 501 572 501 572 494 582 c 1,272,273
 488 586 488 586 481.5 587 c 128,-1,274
 475 588 475 588 474 596 c 1,275,276
 463 596 463 596 457.5 601 c 128,-1,277
 452 606 452 606 444 609 c 1,278,279
 423 608 423 608 410 616 c 1,280,281
 390 613 390 613 369 615.5 c 128,-1,282
 348 618 348 618 334 609 c 1,283,284
 332 611 332 611 326.5 610.5 c 128,-1,285
 321 610 321 610 316 611 c 1,286,287
 300 601 300 601 289 588 c 1,288,289
 284 587 284 587 280.5 585 c 128,-1,290
 277 583 277 583 271 582 c 1,291,292
 264 574 264 574 262 570.5 c 128,-1,293
 260 567 260 567 255 564 c 128,-1,294
 250 561 250 561 250 555 c 1,295,296
 245 553 245 553 241.5 549.5 c 128,-1,297
 238 546 238 546 232 543 c 1,298,299
 230 540 230 540 228.5 535.5 c 128,-1,300
 227 531 227 531 225 527 c 1,301,302
 213 516 213 516 208 516 c 1,303,304
 210 511 210 511 205.5 506.5 c 128,-1,305
 201 502 201 502 199.5 495 c 128,-1,306
 198 488 198 488 196 483.5 c 128,-1,307
 194 479 194 479 190.5 475.5 c 128,-1,308
 187 472 187 472 184 467.5 c 128,-1,309
 181 463 181 463 179.5 458.5 c 128,-1,310
 178 454 178 454 172 452 c 1,311,312
 175 438 175 438 169 427 c 128,-1,313
 163 416 163 416 161.5 407.5 c 128,-1,314
 160 399 160 399 161.5 396 c 128,-1,315
 163 393 163 393 163 389 c 2,316,-1
 161 378 l 1,317,318
 155 361 155 361 156 352.5 c 128,-1,319
 157 344 157 344 156 339 c 128,-1,320
 155 334 155 334 153.5 330.5 c 128,-1,321
 152 327 152 327 151 320 c 128,-1,322
 150 313 150 313 152.5 302 c 128,-1,323
 155 291 155 291 150 281 c 1,324,325
 149 276 149 276 152 271.5 c 128,-1,326
 155 267 155 267 155 263 c 2,327,-1
 153 250 l 1,0,-1
328.5 372 m 128,-1,329
 327 372 327 372 327 361 c 128,-1,330
 327 350 327 350 323.5 335.5 c 128,-1,331
 320 321 320 321 315.5 315 c 128,-1,332
 311 309 311 309 308 300 c 1,333,334
 313 296 313 296 315.5 291.5 c 128,-1,335
 318 287 318 287 324 285 c 1,336,337
 331 285 331 285 334 289 c 128,-1,338
 337 293 337 293 341 296 c 1,339,340
 344 301 344 301 349.5 303 c 128,-1,341
 355 305 355 305 358 308.5 c 128,-1,342
 361 312 361 312 362 317 c 128,-1,343
 363 322 363 322 371.5 340.5 c 128,-1,344
 380 359 380 359 388 370 c 1,345,346
 388 378 388 378 387 387 c 128,-1,347
 386 396 386 396 388 405 c 128,-1,348
 390 414 390 414 394 421 c 128,-1,349
 398 428 398 428 398 436 c 1,350,351
 393 440 393 440 385.5 440.5 c 128,-1,352
 378 441 378 441 373 444 c 1,353,354
 365 438 365 438 363.5 434 c 128,-1,355
 362 430 362 430 359 428 c 1,356,357
 360 423 360 423 355.5 422.5 c 128,-1,358
 351 422 351 422 350.5 417.5 c 128,-1,359
 350 413 350 413 345 406 c 1,360,361
 344 401 344 401 343.5 397 c 128,-1,362
 343 393 343 393 341.5 390 c 128,-1,363
 340 387 340 387 338 384.5 c 128,-1,364
 336 382 336 382 333 377 c 128,-1,328
 330 372 330 372 328.5 372 c 128,-1,329
EndSplineSet
EndChar

StartChar: A
Encoding: 65 65 36
Width: 612
Flags: HW
LayerCount: 2
Fore
SplineSet
491 268 m 1,0,-1
 501 247 l 1,1,-1
 499 236 l 1,2,3
 505 224 505 224 505 220 c 1,4,5
 509 211 509 211 508.5 208.5 c 128,-1,6
 508 206 508 206 509.5 203 c 128,-1,7
 511 200 511 200 512.5 196 c 128,-1,8
 514 192 514 192 516.5 185.5 c 128,-1,9
 519 179 519 179 522 172.5 c 128,-1,10
 525 166 525 166 527.5 160 c 128,-1,11
 530 154 530 154 530.5 149.5 c 128,-1,12
 531 145 531 145 533 140.5 c 128,-1,13
 535 136 535 136 537.5 132.5 c 128,-1,14
 540 129 540 129 542.5 124 c 128,-1,15
 545 119 545 119 546.5 113.5 c 128,-1,16
 548 108 548 108 551.5 98 c 128,-1,17
 555 88 555 88 559.5 81 c 128,-1,18
 564 74 564 74 567 68 c 1,19,20
 565 62 565 62 568 56 c 128,-1,21
 571 50 571 50 573 42.5 c 128,-1,22
 575 35 575 35 577.5 25.5 c 128,-1,23
 580 16 580 16 583.5 10.5 c 128,-1,24
 587 5 587 5 586.5 3.5 c 128,-1,25
 586 2 586 2 588 -3 c 1,26,27
 593 -8 593 -8 598.5 -14 c 128,-1,28
 604 -20 604 -20 610.5 -21.5 c 128,-1,29
 617 -23 617 -23 621.5 -21 c 128,-1,30
 626 -19 626 -19 632 -22 c 1,31,32
 653 -7 653 -7 665 -17 c 1,33,34
 683 -24 683 -24 683.5 -39 c 128,-1,35
 684 -54 684 -54 675 -58 c 1,36,37
 661 -62 661 -62 658 -65 c 1,38,39
 654 -65 654 -65 649 -64 c 128,-1,40
 644 -63 644 -63 638.5 -64.5 c 128,-1,41
 633 -66 633 -66 627 -69.5 c 128,-1,42
 621 -73 621 -73 611.5 -78.5 c 128,-1,43
 602 -84 602 -84 591 -79 c 1,44,45
 583 -82 583 -82 574 -89 c 1,46,47
 569 -87 569 -87 565.5 -90 c 128,-1,48
 562 -93 562 -93 557.5 -94 c 128,-1,49
 553 -95 553 -95 548.5 -94.5 c 128,-1,50
 544 -94 544 -94 538 -94 c 1,51,52
 525 -99 525 -99 522 -99 c 2,53,-1
 497 -105 l 1,54,55
 491 -104 491 -104 486 -100 c 128,-1,56
 481 -96 481 -96 476 -93 c 1,57,-1
 476 -72 l 1,58,59
 480 -71 480 -71 481.5 -67.5 c 128,-1,60
 483 -64 483 -64 486.5 -62 c 128,-1,61
 490 -60 490 -60 494.5 -60 c 0,62,63
 508 -60 508 -60 514 -51 c 1,64,65
 516 -43 516 -43 512 -38 c 128,-1,66
 508 -33 508 -33 512 -27 c 1,67,68
 507 -23 507 -23 508.5 -15 c 128,-1,69
 510 -7 510 -7 505.5 -1.5 c 128,-1,70
 501 4 501 4 499 9.5 c 128,-1,71
 497 15 497 15 497.5 22.5 c 128,-1,72
 498 30 498 30 495.5 37 c 128,-1,73
 493 44 493 44 488.5 51 c 128,-1,74
 484 58 484 58 483 70 c 1,75,76
 474 72 474 72 463 74.5 c 128,-1,77
 452 77 452 77 444 72 c 1,78,79
 439 73 439 73 435.5 75.5 c 128,-1,80
 432 78 432 78 421.5 80 c 128,-1,81
 411 82 411 82 395.5 79.5 c 128,-1,82
 380 77 380 77 367 84 c 1,83,84
 361 82 361 82 356 82 c 1,85,-1
 344 86 l 1,86,87
 339 86 339 86 332.5 83 c 128,-1,88
 326 80 326 80 318 78.5 c 128,-1,89
 310 77 310 77 300 78.5 c 0,90,91
 278.085106383 81.7872340426 278.085106383 81.7872340426 262 80 c 1,92,93
 240 75 240 75 231 76.5 c 128,-1,94
 222 78 222 78 213 74.5 c 128,-1,95
 204 71 204 71 200 72 c 128,-1,96
 196 73 196 73 192 71.5 c 128,-1,97
 188 70 188 70 184 64.5 c 128,-1,98
 180 59 180 59 175 57 c 1,99,100
 174 48 174 48 168 40 c 1,101,102
 167 36 167 36 167.5 32 c 128,-1,103
 168 28 168 28 165.5 20 c 128,-1,104
 163 12 163 12 164 9 c 128,-1,105
 165 6 165 6 163.5 2.5 c 128,-1,106
 162 -1 162 -1 158.5 -5 c 128,-1,107
 155 -9 155 -9 153 -14.5 c 128,-1,108
 151 -20 151 -20 150 -25.5 c 128,-1,109
 149 -31 149 -31 146 -36 c 1,110,111
 148 -44 148 -44 152.5 -47.5 c 128,-1,112
 157 -51 157 -51 165.5 -55 c 128,-1,113
 174 -59 174 -59 186.5 -59 c 128,-1,114
 199 -59 199 -59 207 -65 c 1,115,116
 209 -70 209 -70 209.5 -79 c 128,-1,117
 210 -88 210 -88 205 -91 c 1,118,119
 201 -92 201 -92 198.5 -93.5 c 128,-1,120
 196 -95 196 -95 192 -94 c 2,121,-1
 181 -91 l 2,122,123
 175 -90 175 -90 168.5 -91.5 c 128,-1,124
 162 -93 162 -93 156.5 -91 c 128,-1,125
 151 -89 151 -89 148 -86.5 c 128,-1,126
 145 -84 145 -84 142 -82 c 1,127,128
 137 -84 137 -84 131.5 -82 c 128,-1,129
 126 -80 126 -80 120 -81.5 c 128,-1,130
 114 -83 114 -83 111.5 -84 c 128,-1,131
 109 -85 109 -85 106 -86 c 1,132,-1
 91 -84 l 1,133,-1
 19 -86 l 1,134,135
 5.96153846154 -77.3076923077 5.96153846154 -77.3076923077 0.980769230769 -80.1538461538 c 128,-1,136
 -4 -83 -4 -83 -9 -82 c 1,137,138
 -9 -77 -9 -77 -13 -76.5 c 128,-1,139
 -17 -76 -17 -76 -15 -70 c 1,140,-1
 -15 -51 l 1,141,142
 -3 -48 -3 -48 10 -49 c 128,-1,143
 23 -50 23 -50 32 -48.5 c 128,-1,144
 41 -47 41 -47 44.5 -45 c 128,-1,145
 48 -43 48 -43 53 -45 c 1,146,147
 56 -40 56 -40 55 -35 c 128,-1,148
 54 -30 54 -30 57 -22.5 c 128,-1,149
 60 -15 60 -15 58 -11 c 128,-1,150
 56 -7 56 -7 59 -0.5 c 128,-1,151
 62 6 62 6 63.5 13 c 128,-1,152
 65 20 65 20 64.5 29 c 128,-1,153
 64 38 64 38 70 45 c 1,154,155
 71 49 71 49 69 50.5 c 128,-1,156
 67 52 67 52 72 64.5 c 128,-1,157
 77 77 77 77 80.5 99.5 c 128,-1,158
 84 122 84 122 91 141 c 1,159,160
 90 143 90 143 91 147.5 c 128,-1,161
 92 152 92 152 89 152 c 1,162,163
 100 179 100 179 101 194 c 1,164,165
 105 198 105 198 108.5 206.5 c 128,-1,166
 112 215 112 215 110 221 c 1,167,168
 114 222 114 222 114.5 225 c 128,-1,169
 115 228 115 228 117 230 c 1,170,171
 121 253 121 253 122 272.5 c 128,-1,172
 123 292 123 292 133 307 c 1,173,-1
 133 326 l 1,174,175
 144 342 144 342 142.5 352 c 0,176,177
 140.076923077 368.153846154 140.076923077 368.153846154 149 386 c 1,178,179
 150 394 150 394 152 396.5 c 128,-1,180
 154 399 154 399 156 402 c 1,181,182
 156 407 156 407 158 417 c 1,183,184
 164 433 164 433 163.5 438.5 c 128,-1,185
 163 444 163 444 165 455.5 c 128,-1,186
 167 467 167 467 173 481 c 128,-1,187
 179 495 179 495 180 509 c 1,188,189
 184 517 184 517 187 527.5 c 128,-1,190
 190 538 190 538 193.5 547.5 c 128,-1,191
 197 557 197 557 199.5 566 c 128,-1,192
 202 575 202 575 210 583 c 1,193,194
 212 590 212 590 213.5 596.5 c 128,-1,195
 215 603 215 603 217 609 c 1,196,197
 224 619 224 619 223.5 622 c 128,-1,198
 223 625 223 625 227 634.5 c 128,-1,199
 231 644 231 644 231 652 c 1,200,201
 239 657 239 657 239 664.5 c 128,-1,202
 239 672 239 672 242 679 c 1,203,204
 249 686 249 686 248.5 687.5 c 128,-1,205
 248 689 248 689 251 692.5 c 128,-1,206
 254 696 254 696 260 702 c 128,-1,207
 266 708 266 708 269 715 c 1,208,-1
 271 731 l 1,209,210
 287 752 287 752 305 748 c 1,211,212
 317 744 317 744 317 732 c 0,213,214
 317 729 317 729 319 726 c 0,215,216
 326 720 326 720 328 712.5 c 128,-1,217
 330 705 330 705 336.5 695.5 c 128,-1,218
 343 686 343 686 347 683.5 c 128,-1,219
 351 681 351 681 354 674 c 128,-1,220
 357 667 357 667 360.5 660.5 c 128,-1,221
 364 654 364 654 367 647.5 c 128,-1,222
 370 641 370 641 370 630.5 c 128,-1,223
 370 620 370 620 380 616 c 1,224,225
 383 607 383 607 384 607 c 128,-1,226
 385 607 385 607 387 602.5 c 0,227,228
 390.2 595.3 390.2 595.3 395.1 581.15 c 128,-1,229
 400 567 400 567 394 561 c 1,230,231
 399 558 399 558 399.5 551.5 c 128,-1,232
 400 545 400 545 401 538 c 1,233,234
 406 530 406 530 405 527 c 1,235,236
 407 522 407 522 418 509 c 1,237,-1
 418 497 l 1,238,239
 423 485 423 485 427.5 475.5 c 128,-1,240
 432 466 432 466 431 461 c 128,-1,241
 430 456 430 456 432 449.5 c 128,-1,242
 434 443 434 443 437.5 437 c 128,-1,243
 441 431 441 431 439 424 c 1,244,245
 442 418 442 418 445 413.5 c 128,-1,246
 448 409 448 409 448.5 405.5 c 128,-1,247
 449 402 449 402 452.5 395 c 128,-1,248
 456 388 456 388 456 384.5 c 128,-1,249
 456 381 456 381 460 375 c 128,-1,250
 464 369 464 369 463.5 364 c 128,-1,251
 463 359 463 359 466 349.5 c 128,-1,252
 469 340 469 340 466 331 c 1,253,254
 473 322 473 322 473 319 c 128,-1,255
 473 316 473 316 476 309.5 c 128,-1,256
 479 303 479 303 482 301 c 128,-1,257
 485 299 485 299 485 289 c 1,258,-1
 491 268 l 1,0,-1
403 366 m 1,259,-1
 395 390 l 1,260,-1
 390 415 l 1,261,262
 390 421 390 421 387 425.5 c 128,-1,263
 384 430 384 430 384.5 433.5 c 128,-1,264
 385 437 385 437 384 441.5 c 128,-1,265
 383 446 383 446 382 450.5 c 128,-1,266
 381 455 381 455 381.5 459.5 c 128,-1,267
 382 464 382 464 380 468.5 c 128,-1,268
 378 473 378 473 374 478 c 128,-1,269
 370 483 370 483 369 488.5 c 128,-1,270
 368 494 368 494 368.5 497.5 c 128,-1,271
 369 501 369 501 369 506 c 1,272,273
 356 521 356 521 356 544 c 1,274,275
 350 546 350 546 347.5 552.5 c 128,-1,276
 345 559 345 559 337 561 c 1,277,278
 338 569 338 569 338 572 c 128,-1,279
 338 575 338 575 336 583 c 1,280,281
 324 587 324 587 319 585 c 1,282,283
 314 576 314 576 310.5 566 c 128,-1,284
 307 556 307 556 304 550 c 128,-1,285
 301 544 301 544 301 540.5 c 128,-1,286
 301 537 301 537 300 530 c 1,287,288
 295 525 295 525 295 523 c 128,-1,289
 295 521 295 521 290.5 511.5 c 128,-1,290
 286 502 286 502 285 487 c 1,291,292
 283 484 283 484 280 481.5 c 128,-1,293
 277 479 277 479 276.5 471.5 c 128,-1,294
 276 464 276 464 274.5 462 c 128,-1,295
 273 460 273 460 272 456 c 128,-1,296
 271 452 271 452 271.5 445.5 c 128,-1,297
 272 439 272 439 268 427 c 128,-1,298
 264 415 264 415 259.5 405 c 128,-1,299
 255 395 255 395 255 383 c 1,300,301
 246 376 246 376 244 350 c 1,302,303
 241 348 241 348 244.5 345.5 c 128,-1,304
 248 343 248 343 245.5 339.5 c 128,-1,305
 243 336 243 336 240 333.5 c 128,-1,306
 237 331 237 331 237 326 c 1,307,308
 234 322 234 322 234.5 314.5 c 128,-1,309
 235 307 235 307 231.5 298.5 c 128,-1,310
 228 290 228 290 226 288 c 128,-1,311
 224 286 224 286 225 282 c 128,-1,312
 226 278 226 278 225.5 277.5 c 128,-1,313
 225 277 225 277 223.5 272 c 128,-1,314
 222 267 222 267 218 261.5 c 128,-1,315
 214 256 214 256 213.5 248 c 128,-1,316
 213 240 213 240 211.5 231 c 128,-1,317
 210 222 210 222 210 211 c 1,318,319
 205 206 205 206 204.5 200 c 128,-1,320
 204 194 204 194 201 185.5 c 128,-1,321
 198 177 198 177 198 174 c 2,322,-1
 188 144 l 2,323,324
 188 141 188 141 187 137 c 1,325,326
 193 127 193 127 194.5 127.5 c 128,-1,327
 196 128 196 128 199 124.5 c 128,-1,328
 202 121 202 121 206.5 121 c 128,-1,329
 211 121 211 121 214.5 119.5 c 128,-1,330
 218 118 218 118 220 116.5 c 0,331,332
 224.526315789 113.105263158 224.526315789 113.105263158 233.763157895 115.052631579 c 128,-1,333
 243 117 243 117 249.5 114 c 128,-1,334
 256 111 256 111 260 110 c 1,335,336
 280 115 280 115 301 114.5 c 128,-1,337
 322 114 322 114 341 120 c 1,338,339
 345 119 345 119 346.5 117.5 c 128,-1,340
 348 116 348 116 354.5 114.5 c 128,-1,341
 361 113 361 113 370.5 115 c 128,-1,342
 380 117 380 117 391 117 c 1,343,344
 415 113 415 113 418 113 c 2,345,-1
 437 115 l 1,346,-1
 453 111 l 1,347,348
 469 114 469 114 469 124 c 1,349,350
 470 129 470 129 466 132 c 128,-1,351
 462 135 462 135 461.5 140.5 c 128,-1,352
 461 146 461 146 458.5 150 c 128,-1,353
 456 154 456 154 454.5 159.5 c 128,-1,354
 453 165 453 165 453 178.5 c 128,-1,355
 453 192 453 192 440 211 c 1,356,357
 443 216 443 216 440 224 c 128,-1,358
 437 232 437 232 440 238 c 1,359,360
 430 251 430 251 428 286 c 1,361,362
 423 292 423 292 420.5 299 c 128,-1,363
 418 306 418 306 413 319.5 c 128,-1,364
 408 333 408 333 408 342.5 c 128,-1,365
 408 352 408 352 403 357 c 1,366,-1
 403 366 l 1,259,-1
EndSplineSet
EndChar

StartChar: B
Encoding: 66 66 37
Width: 514
Flags: HW
LayerCount: 2
Fore
SplineSet
460 263 m 1,0,-1
 467 234 l 1,1,-1
 466 223 l 1,2,-1
 466 210 l 2,3,4
 466 182.222222222 466 182.222222222 461 171.111111111 c 128,-1,5
 456 160 456 160 454 150 c 1,6,7
 446 142 446 142 447 136 c 1,8,-1
 438 126 l 1,9,10
 433 122 433 122 431 115 c 1,11,12
 421 111 421 111 418.5 104.5 c 128,-1,13
 416 98 416 98 410 94 c 128,-1,14
 404 90 404 90 404.5 87 c 128,-1,15
 405 84 405 84 401 79 c 1,16,17
 388 70 388 70 383 65.5 c 128,-1,18
 378 61 378 61 373 57 c 1,19,20
 363 61 363 61 347 53 c 0,21,22
 345 51 345 51 341.5 46 c 128,-1,23
 338 41 338 41 332 40.5 c 128,-1,24
 326 40 326 40 323 37 c 1,25,26
 311 43 311 43 299.5 38 c 128,-1,27
 288 33 288 33 283 25 c 1,28,29
 278 26 278 26 276 24.5 c 128,-1,30
 274 23 274 23 272 25 c 1,31,32
 267 19 267 19 260.5 18.5 c 128,-1,33
 254 18 254 18 243.5 15.5 c 128,-1,34
 233 13 233 13 230.5 10 c 128,-1,35
 228 7 228 7 224 3 c 1,36,37
 216 3 216 3 211.5 1 c 128,-1,38
 207 -1 207 -1 200 -3 c 1,39,40
 182 -13 182 -13 158 -13 c 1,41,42
 154 -14 154 -14 153 -17 c 128,-1,43
 152 -20 152 -20 145.5 -21 c 128,-1,44
 139 -22 139 -22 131.5 -20.5 c 128,-1,45
 124 -19 124 -19 117 -23 c 1,46,47
 94 -29 94 -29 76 -23 c 1,48,49
 73 -15 73 -15 73 -9.5 c 128,-1,50
 73 -4 73 -4 75 3 c 1,51,52
 83 7 83 7 84 9 c 0,53,54
 85.6363636364 12.2727272727 85.6363636364 12.2727272727 99.8181818182 13.6363636364 c 128,-1,55
 114 15 114 15 135 29 c 1,56,57
 132 34 132 34 133.5 39 c 128,-1,58
 135 44 135 44 130.5 60 c 128,-1,59
 126 76 126 76 125 96 c 128,-1,60
 124 116 124 116 116 129 c 1,61,62
 118 139 118 139 116 148 c 128,-1,63
 114 157 114 157 114 168.5 c 128,-1,64
 114 180 114 180 108 195 c 1,65,66
 104 220 104 220 103 239 c 1,67,68
 104 244 104 244 105.5 246 c 128,-1,69
 107 248 107 248 105 250 c 1,70,-1
 105 276 l 2,71,72
 105 296.333333333 105 296.333333333 101 309.666666667 c 128,-1,73
 97 323 97 323 98 328.5 c 128,-1,74
 99 334 99 334 96.5 346 c 128,-1,75
 94 358 94 358 96 373 c 1,76,77
 89 381 89 381 89 385.5 c 128,-1,78
 89 390 89 390 89.5 397.5 c 128,-1,79
 90 405 90 405 88 411.5 c 128,-1,80
 86 418 86 418 86.5 434 c 128,-1,81
 87 450 87 450 84 466 c 128,-1,82
 81 482 81 482 86 490 c 1,83,84
 82 505 82 505 86 513 c 1,85,86
 83 518 83 518 81 546 c 1,87,-1
 79 560 l 1,88,-1
 75 578 l 1,89,-1
 73 596 l 2,90,91
 72 601 72 601 73.5 606.5 c 128,-1,92
 75 612 75 612 75 617 c 2,93,-1
 73 631 l 1,94,95
 74 648 74 648 72.5 656 c 128,-1,96
 71 664 71 664 71 671 c 1,97,-1
 69 683 l 1,98,-1
 67 699 l 2,99,100
 67 703 67 703 70 712 c 1,101,102
 71 731 71 731 68 756 c 1,103,104
 66 760 66 760 62.5 760.5 c 128,-1,105
 59 761 59 761 57 765 c 1,106,107
 49 763 49 763 41 763 c 2,108,-1
 26 763 l 1,109,110
 18 765 18 765 14 762.5 c 128,-1,111
 10 760 10 760 5 761.5 c 128,-1,112
 0 763 0 763 -3 765 c 128,-1,113
 -6 767 -6 767 -9 768 c 1,114,-1
 -11 781 l 1,115,116
 -9 792 -9 792 0 794 c 128,-1,117
 9 796 9 796 18 798 c 128,-1,118
 27 800 27 800 31.5 800 c 128,-1,119
 36 800 36 800 40.5 803 c 128,-1,120
 45 806 45 806 48.5 808.5 c 128,-1,121
 52 811 52 811 59.5 807.5 c 128,-1,122
 67 804 67 804 70.5 805 c 128,-1,123
 74 806 74 806 82 806 c 0,124,125
 105 804 105 804 114 816 c 1,126,127
 164 826 164 826 184.5 826 c 128,-1,128
 205 826 205 826 209 824 c 1,129,-1
 222 826 l 1,130,131
 234 820 234 820 241.5 821.5 c 128,-1,132
 249 823 249 823 256 822 c 128,-1,133
 263 821 263 821 274.5 816.5 c 128,-1,134
 286 812 286 812 290 813 c 128,-1,135
 294 814 294 814 302 811.5 c 128,-1,136
 310 809 310 809 317.5 807 c 128,-1,137
 325 805 325 805 331 802.5 c 128,-1,138
 337 800 337 800 343.5 795.5 c 128,-1,139
 350 791 350 791 359 788 c 1,140,141
 360 784 360 784 363 783 c 128,-1,142
 366 782 366 782 374 774.5 c 128,-1,143
 382 767 382 767 387 766 c 1,144,145
 389 763 389 763 391 759.5 c 128,-1,146
 393 756 393 756 395 753 c 1,147,148
 403 748 403 748 408 743 c 128,-1,149
 413 738 413 738 421 735 c 1,150,151
 424 727 424 727 430.5 718.5 c 128,-1,152
 437 710 437 710 442 701 c 1,153,154
 444 689 444 689 448 685 c 128,-1,155
 452 681 452 681 454 676.5 c 128,-1,156
 456 672 456 672 457 668 c 128,-1,157
 458 664 458 664 459.5 657.5 c 128,-1,158
 461 651 461 651 465.5 641 c 128,-1,159
 470 631 470 631 470.5 623 c 128,-1,160
 471 615 471 615 472 609 c 128,-1,161
 473 603 473 603 473.5 599 c 128,-1,162
 474 595 474 595 475.5 582.5 c 128,-1,163
 477 570 477 570 476 557 c 128,-1,164
 475 544 475 544 477 536 c 1,165,166
 471 529 471 529 470 517.5 c 128,-1,167
 469 506 469 506 467.5 498.5 c 128,-1,168
 466 491 466 491 463.5 489.5 c 128,-1,169
 461 488 461 488 463 483 c 1,170,171
 453 477 453 477 448.5 465 c 128,-1,172
 444 453 444 453 435 445 c 1,173,174
 416 433 416 433 410.5 424 c 128,-1,175
 405 415 405 415 393 410 c 128,-1,176
 381 405 381 405 378 401.5 c 128,-1,177
 375 398 375 398 370 393 c 128,-1,178
 365 388 365 388 360.5 388 c 128,-1,179
 356 388 356 388 357 382 c 0,180,181
 358 377 358 377 361.5 378 c 128,-1,182
 365 379 365 379 367 376.5 c 128,-1,183
 369 374 369 374 376.5 370 c 128,-1,184
 384 366 384 366 387.5 364.5 c 128,-1,185
 391 363 391 363 396.5 360.5 c 128,-1,186
 402 358 402 358 407.5 354.5 c 128,-1,187
 413 351 413 351 421 346 c 1,188,189
 424 339 424 339 429 335 c 2,190,-1
 438 326 l 1,191,192
 449 311 449 311 450.5 304 c 128,-1,193
 452 297 452 297 457 290 c 1,194,195
 457 285 457 285 456.5 282 c 128,-1,196
 456 279 456 279 458 274 c 256,197,198
 460 269 460 269 460 263 c 1,0,-1
197 412 m 1,199,-1
 202 396 l 1,200,201
 198 391 198 391 200.5 385.5 c 128,-1,202
 203 380 203 380 205 375 c 1,203,204
 213 373 213 373 219 376 c 128,-1,205
 225 379 225 379 233.5 381.5 c 128,-1,206
 242 384 242 384 247 383.5 c 128,-1,207
 252 383 252 383 257 385 c 1,208,209
 267 393 267 393 268.5 392.5 c 128,-1,210
 270 392 270 392 273 393.5 c 128,-1,211
 276 395 276 395 278 397 c 128,-1,212
 280 399 280 399 285 398 c 1,213,214
 293 406 293 406 295 407 c 128,-1,215
 297 408 297 408 302 413.5 c 128,-1,216
 307 419 307 419 310 419.5 c 128,-1,217
 313 420 313 420 315 422 c 0,218,219
 320 430 320 430 323 430 c 1,220,221
 334 444 334 444 341 455 c 128,-1,222
 348 466 348 466 358 474 c 1,223,224
 358 479 358 479 360.5 483 c 0,225,226
 365.980769231 491.769230769 365.980769231 491.769230769 374.990384615 514.884615385 c 128,-1,227
 384 538 384 538 385.5 540.5 c 0,228,229
 389 546.333333333 389 546.333333333 389 560 c 2,230,-1
 389 575 l 2,231,232
 389 587 389 587 387.5 600.5 c 128,-1,233
 386 614 386 614 387 618 c 128,-1,234
 388 622 388 622 385.5 628.5 c 128,-1,235
 383 635 383 635 384 636.5 c 128,-1,236
 385 638 385 638 385 641 c 1,237,238
 379 646 379 646 377 651.5 c 128,-1,239
 375 657 375 657 372.5 662.5 c 128,-1,240
 370 668 370 668 368.5 670.5 c 128,-1,241
 367 673 367 673 365.5 678.5 c 128,-1,242
 364 684 364 684 363.5 692 c 128,-1,243
 363 700 363 700 360 705.5 c 128,-1,244
 357 711 357 711 350.5 715.5 c 128,-1,245
 344 720 344 720 340.5 724.5 c 128,-1,246
 337 729 337 729 335 733.5 c 128,-1,247
 333 738 333 738 325.5 747.5 c 128,-1,248
 318 757 318 757 316.5 759 c 128,-1,249
 315 761 315 761 309 764.5 c 128,-1,250
 303 768 303 768 299 768 c 128,-1,251
 295 768 295 768 289 771 c 1,252,253
 284 766 284 766 278 768 c 2,254,-1
 264 772 l 1,255,-1
 249 772 l 2,256,257
 244 772 244 772 238.5 774 c 0,258,259
 231.609195402 776.505747126 231.609195402 776.505747126 218 768 c 1,260,261
 206 763 206 763 199 757 c 128,-1,262
 192 751 192 751 189 750 c 1,263,264
 188 742 188 742 182 736.5 c 128,-1,265
 176 731 176 731 174 723 c 1,266,-1
 178 703 l 2,267,268
 179 701 179 701 178 698 c 128,-1,269
 177 695 177 695 177 686.5 c 128,-1,270
 177 678 177 678 180 666 c 0,271,272
 186 642 186 642 186 628 c 2,273,-1
 186 618 l 1,274,275
 189 606 189 606 189 600 c 2,276,-1
 189 525 l 1,277,-1
 191 493 l 1,278,-1
 191 482 l 1,279,280
 194 468 194 468 194 459.5 c 128,-1,281
 194 451 194 451 197 439.5 c 128,-1,282
 200 428 200 428 197 412 c 1,199,-1
255 343 m 2,283,284
 250 343 250 343 242 338 c 1,285,286
 235 338 235 338 229 336 c 128,-1,287
 223 334 223 334 220 334 c 1,288,289
 221 329 221 329 217 325.5 c 128,-1,290
 213 322 213 322 213.5 317 c 128,-1,291
 214 312 214 312 211.5 308 c 128,-1,292
 209 304 209 304 210 302 c 128,-1,293
 211 300 211 300 206 291.5 c 128,-1,294
 201 283 201 283 204.5 269.5 c 128,-1,295
 208 256 208 256 210 238.5 c 128,-1,296
 212 221 212 221 211.5 210 c 128,-1,297
 211 199 211 199 212.5 196.5 c 128,-1,298
 214 194 214 194 215 187 c 128,-1,299
 216 180 216 180 215 171 c 128,-1,300
 214 162 214 162 215.5 155.5 c 128,-1,301
 217 149 217 149 218.5 147 c 0,302,303
 223.84 139.88 223.84 139.88 221.42 126.44 c 128,-1,304
 219 113 219 113 223 100 c 1,305,306
 223 96 223 96 222 92.5 c 128,-1,307
 221 89 221 89 224 80.5 c 128,-1,308
 227 72 227 72 229 66 c 1,309,310
 250 71 250 71 253 74 c 1,311,312
 259 76 259 76 266 76 c 128,-1,313
 273 76 273 76 278.5 78 c 128,-1,314
 284 80 284 80 289 82.5 c 128,-1,315
 294 85 294 85 300 86 c 1,316,317
 303 92 303 92 308 95.5 c 128,-1,318
 313 99 313 99 318 104 c 1,319,320
 321 104 321 104 329 102 c 1,321,322
 331 109 331 109 335 112 c 128,-1,323
 339 115 339 115 343 118 c 1,324,325
 345 122 345 122 349 128 c 1,326,327
 355 134 355 134 354 136 c 128,-1,328
 353 138 353 138 356 139 c 1,329,330
 375 167 375 167 372 180 c 0,331,332
 371 184 371 184 372 188 c 2,333,-1
 375 216 l 2,334,335
 376 221 376 221 377 225 c 128,-1,336
 378 229 378 229 378 231 c 2,337,-1
 373 264 l 2,338,339
 373 268 373 268 370 270.5 c 128,-1,340
 367 273 367 273 365.5 282 c 128,-1,341
 364 291 364 291 363 289.5 c 128,-1,342
 362 288 362 288 362 295 c 1,343,344
 357 295 357 295 352.5 300.5 c 128,-1,345
 348 306 348 306 341.5 309.5 c 128,-1,346
 335 313 335 313 330.5 317.5 c 128,-1,347
 326 322 326 322 319.5 323 c 128,-1,348
 313 324 313 324 307 330.5 c 128,-1,349
 301 337 301 337 297.5 335.5 c 128,-1,350
 294 334 294 334 288.5 336 c 128,-1,351
 283 338 283 338 276 339 c 2,352,-1
 255 343 l 2,283,284
EndSplineSet
EndChar

StartChar: C
Encoding: 67 67 38
Width: 646
Flags: HW
LayerCount: 2
Fore
SplineSet
280 39 m 1,0,-1
 247 47 l 1,1,2
 238 56 238 56 222 60 c 1,3,4
 220 68 220 68 212.5 69.5 c 128,-1,5
 205 71 205 71 200 76 c 1,6,7
 195 78 195 78 186 78 c 128,-1,8
 177 78 177 78 173 83.5 c 128,-1,9
 169 89 169 89 156.5 97.5 c 128,-1,10
 144 106 144 106 138.5 115 c 128,-1,11
 133 124 133 124 130 126.5 c 128,-1,12
 127 129 127 129 124 133 c 128,-1,13
 121 137 121 137 117 140 c 1,14,15
 118 145 118 145 116 147 c 128,-1,16
 114 149 114 149 116 155 c 1,17,18
 109 165 109 165 102.5 174 c 128,-1,19
 96 183 96 183 93 196 c 1,20,21
 76 211 76 211 73.5 220.5 c 128,-1,22
 71 230 71 230 64 237 c 128,-1,23
 57 244 57 244 54 252 c 128,-1,24
 51 260 51 260 51.5 270.5 c 128,-1,25
 52 281 52 281 49 294 c 1,26,27
 44 305 44 305 44.5 308.5 c 128,-1,28
 45 312 45 312 44.5 316 c 128,-1,29
 44 320 44 320 42.5 325 c 128,-1,30
 41 330 41 330 38 338.5 c 128,-1,31
 35 347 35 347 36 350.5 c 128,-1,32
 37 354 37 354 37 360 c 128,-1,33
 37 366 37 366 36.5 377 c 128,-1,34
 36 388 36 388 37.5 413 c 128,-1,35
 39 438 39 438 41.5 458 c 128,-1,36
 44 478 44 478 43.5 487 c 0,37,38
 42.8 499.6 42.8 499.6 48.9 509.8 c 128,-1,39
 55 520 55 520 55 527.5 c 128,-1,40
 55 535 55 535 59.5 542 c 128,-1,41
 64 549 64 549 63.5 552 c 128,-1,42
 63 555 63 555 69.5 563.5 c 128,-1,43
 76 572 76 572 75.5 576 c 128,-1,44
 75 580 75 580 79.5 586 c 128,-1,45
 84 592 84 592 85.5 595.5 c 128,-1,46
 87 599 87 599 92.5 606 c 128,-1,47
 98 613 98 613 99.5 616.5 c 128,-1,48
 101 620 101 620 104.5 625.5 c 128,-1,49
 108 631 108 631 111 633.5 c 128,-1,50
 114 636 114 636 119 642 c 128,-1,51
 124 648 124 648 126 648 c 0,52,53
 133.538461538 648 133.538461538 648 140 669 c 1,54,55
 142 671 142 671 146 672.5 c 128,-1,56
 150 674 150 674 153 676 c 1,57,58
 157 683 157 683 163 688 c 128,-1,59
 169 693 169 693 174 700 c 0,60,61
 180 707 180 707 198 720 c 1,62,63
 207 729 207 729 208.5 728.5 c 128,-1,64
 210 728 210 728 215.5 733.5 c 128,-1,65
 221 739 221 739 227.5 740 c 128,-1,66
 234 741 234 741 240 745 c 128,-1,67
 246 749 246 749 249 752 c 128,-1,68
 252 755 252 755 259.5 759 c 128,-1,69
 267 763 267 763 273 764.5 c 128,-1,70
 279 766 279 766 284.5 767.5 c 128,-1,71
 290 769 290 769 293 769 c 128,-1,72
 296 769 296 769 300.5 770 c 128,-1,73
 305 771 305 771 307.5 773 c 128,-1,74
 310 775 310 775 314 776.5 c 128,-1,75
 318 778 318 778 323 777.5 c 128,-1,76
 328 777 328 777 343.5 780.5 c 128,-1,77
 359 784 359 784 370 782.5 c 128,-1,78
 381 781 381 781 391 781 c 128,-1,79
 401 781 401 781 407 778 c 128,-1,80
 413 775 413 775 419 774 c 128,-1,81
 425 773 425 773 431.5 773.5 c 128,-1,82
 438 774 438 774 442 772.5 c 128,-1,83
 446 771 446 771 450 769 c 0,84,85
 464 762 464 762 469 760.5 c 128,-1,86
 474 759 474 759 486.5 750.5 c 128,-1,87
 499 742 499 742 514 739 c 128,-1,88
 529 736 529 736 532.5 735.5 c 128,-1,89
 536 735 536 735 538 732 c 128,-1,90
 540 729 540 729 544 732 c 0,91,92
 552 736 552 736 554 750 c 1,93,94
 557 754 557 754 561.5 756 c 128,-1,95
 566 758 566 758 568 763 c 1,96,97
 577 762 577 762 580 766 c 128,-1,98
 583 770 583 770 592 768 c 1,99,100
 599 761 599 761 602 750.5 c 128,-1,101
 605 740 605 740 610 731 c 1,102,103
 609 727 609 727 609 724 c 128,-1,104
 609 721 609 721 608 718 c 2,105,-1
 606 692 l 1,106,107
 610 680 610 680 606 673 c 128,-1,108
 602 666 602 666 600.5 662 c 128,-1,109
 599 658 599 658 599.5 654.5 c 128,-1,110
 600 651 600 651 598 645 c 128,-1,111
 596 639 596 639 597 635.5 c 128,-1,112
 598 632 598 632 597.5 627.5 c 128,-1,113
 597 623 597 623 595.5 614 c 128,-1,114
 594 605 594 605 596 594 c 1,115,116
 591 586 591 586 588 577.5 c 128,-1,117
 585 569 585 569 579 564 c 1,118,119
 567 566 567 566 564.5 564.5 c 128,-1,120
 562 563 562 563 550 562 c 1,121,122
 547 565 547 565 547 567.5 c 128,-1,123
 547 570 547 570 542 572 c 1,124,125
 541 579 541 579 538 583.5 c 128,-1,126
 535 588 535 588 533.5 597 c 128,-1,127
 532 606 532 606 536 620 c 128,-1,128
 540 634 540 634 538 649 c 1,129,130
 530.5 656.5 530.5 656.5 528 664 c 1,131,132
 515.285714286 676.714285714 515.285714286 676.714285714 508.142857143 678.857142857 c 128,-1,133
 501 681 501 681 498.5 683.5 c 128,-1,134
 496 686 496 686 495 689 c 128,-1,135
 494 692 494 692 485 696 c 128,-1,136
 476 700 476 700 466 699 c 1,137,138
 463 706 463 706 456.5 709 c 128,-1,139
 450 712 450 712 444 715 c 128,-1,140
 438 718 438 718 435.5 718.5 c 128,-1,141
 433 719 433 719 429 721 c 1,142,143
 414 720 414 720 404 724 c 128,-1,144
 394 728 394 728 385.5 728 c 128,-1,145
 377 728 377 728 372 731.5 c 128,-1,146
 367 735 367 735 364 733 c 128,-1,147
 361 731 361 731 357 731 c 1,148,-1
 343 735 l 1,149,-1
 329 733 l 2,150,151
 325 732 325 732 323 732.5 c 0,152,153
 317.941176471 733.764705882 317.941176471 733.764705882 305 726 c 1,154,-1
 294 721 l 1,155,156
 290 716 290 716 278 708 c 128,-1,157
 266 700 266 700 258 698 c 1,158,159
 257 690 257 690 251 687.5 c 128,-1,160
 245 685 245 685 241.5 681 c 128,-1,161
 238 677 238 677 237 673 c 128,-1,162
 236 669 236 669 233.5 664.5 c 128,-1,163
 231 660 231 660 228 654 c 128,-1,164
 225 648 225 648 221.5 644.5 c 128,-1,165
 218 641 218 641 216 637.5 c 128,-1,166
 214 634 214 634 209 635 c 1,167,168
 204 613 204 613 187 596 c 1,169,170
 186 593 186 593 186.5 590 c 128,-1,171
 187 587 187 587 185 582.5 c 128,-1,172
 183 578 183 578 183 569 c 128,-1,173
 183 560 183 560 181.5 552.5 c 128,-1,174
 180 545 180 545 178 540.5 c 128,-1,175
 176 536 176 536 174.5 531.5 c 128,-1,176
 173 527 173 527 174.5 524 c 128,-1,177
 176 521 176 521 171.5 502.5 c 128,-1,178
 167 484 167 484 168 458 c 128,-1,179
 169 432 169 432 160 410 c 1,180,181
 168 369 168 369 165.5 357.5 c 128,-1,182
 163 346 163 346 164 338 c 1,183,184
 170 323 170 323 168.5 311 c 128,-1,185
 167 299 167 299 175 278.5 c 128,-1,186
 183 258 183 258 186.5 245.5 c 128,-1,187
 190 233 190 233 193.5 225.5 c 128,-1,188
 197 218 197 218 197 214.5 c 128,-1,189
 197 211 197 211 199.5 207 c 128,-1,190
 202 203 202 203 206.5 197.5 c 128,-1,191
 211 192 211 192 215 184 c 128,-1,192
 219 176 219 176 221 176 c 128,-1,193
 223 176 223 176 228.5 167 c 128,-1,194
 234 158 234 158 246.5 145.5 c 128,-1,195
 259 133 259 133 267 122 c 1,196,197
 280 116 280 116 293.5 107.5 c 128,-1,198
 307 99 307 99 317.5 95 c 128,-1,199
 328 91 328 91 332 91.5 c 128,-1,200
 336 92 336 92 342 89.5 c 128,-1,201
 348 87 348 87 359 81.5 c 0,202,203
 398.827586207 61.5862068966 398.827586207 61.5862068966 414 74 c 1,204,205
 426 81 426 81 435.5 77.5 c 128,-1,206
 445 74 445 74 456 78.5 c 128,-1,207
 467 83 467 83 475 86 c 128,-1,208
 483 89 483 89 489 91.5 c 128,-1,209
 495 94 495 94 500 95.5 c 128,-1,210
 505 97 505 97 510 99 c 1,211,212
 526 110 526 110 534.5 117 c 128,-1,213
 543 124 543 124 545 135 c 1,214,215
 552 136 552 136 555 140 c 128,-1,216
 558 144 558 144 563 148 c 1,217,218
 567 156 567 156 568.5 155.5 c 128,-1,219
 570 155 570 155 571.5 157 c 128,-1,220
 573 159 573 159 576 165 c 128,-1,221
 579 171 579 171 582.5 173.5 c 128,-1,222
 586 176 586 176 587.5 178.5 c 0,223,224
 590.909090909 184.181818182 590.909090909 184.181818182 600.454545455 191.090909091 c 128,-1,225
 610 198 610 198 617 193 c 1,226,227
 626 183 626 183 628.5 169 c 128,-1,228
 631 155 631 155 628 147 c 128,-1,229
 625 139 625 139 606 128 c 1,230,231
 605 122 605 122 598.5 116 c 128,-1,232
 592 110 592 110 588.5 105.5 c 128,-1,233
 585 101 585 101 582 97 c 128,-1,234
 579 93 579 93 572 87 c 128,-1,235
 565 81 565 81 560 77 c 128,-1,236
 555 73 555 73 551 68.5 c 128,-1,237
 547 64 547 64 543.5 62 c 128,-1,238
 540 60 540 60 535 60 c 128,-1,239
 530 60 530 60 522.5 57 c 128,-1,240
 515 54 515 54 506 47.5 c 128,-1,241
 497 41 497 41 481 41 c 1,242,-1
 463 31 l 1,243,-1
 454 31 l 2,244,245
 449 31 449 31 447 33 c 1,246,247
 437 25 437 25 435 26 c 128,-1,248
 433 27 433 27 425.5 23.5 c 128,-1,249
 418 20 418 20 403.5 20 c 128,-1,250
 389 20 389 20 375.5 21 c 128,-1,251
 362 22 362 22 355.5 22.5 c 128,-1,252
 349 23 349 23 343 19 c 1,253,254
 340 21 340 21 338 22.5 c 128,-1,255
 336 24 336 24 332 26.5 c 128,-1,256
 328 29 328 29 322.5 30 c 128,-1,257
 317 31 317 31 312.5 33 c 128,-1,258
 308 35 308 35 305.5 37 c 128,-1,259
 303 39 303 39 299.5 39.5 c 128,-1,260
 296 40 296 40 289 40 c 128,-1,261
 282 40 282 40 280 39 c 1,0,-1
EndSplineSet
EndChar

StartChar: D
Encoding: 68 68 39
Width: 612
Flags: HW
LayerCount: 2
Fore
SplineSet
173 77 m 1,0,-1
 148 81 l 2,1,2
 143 81 143 81 140.5 76 c 128,-1,3
 138 71 138 71 131 71 c 128,-1,4
 124 71 124 71 121 68 c 1,5,6
 107 73 107 73 92 65.5 c 128,-1,7
 77 58 77 58 68 56.5 c 128,-1,8
 59 55 59 55 49 62 c 1,9,10
 47 73 47 73 50 79.5 c 128,-1,11
 53 86 53 86 54 97 c 1,12,13
 58 99 58 99 62 98.5 c 128,-1,14
 66 98 66 98 73 101.5 c 128,-1,15
 80 105 80 105 82.5 104 c 128,-1,16
 85 103 85 103 88 104.5 c 128,-1,17
 91 106 91 106 100.5 108.5 c 128,-1,18
 110 111 110 111 111 117 c 1,19,20
 118 115 118 115 120 117.5 c 128,-1,21
 122 120 122 120 127 120 c 1,22,23
 130 127 130 127 127 132.5 c 128,-1,24
 124 138 124 138 123 142.5 c 128,-1,25
 122 147 122 147 122.5 151 c 128,-1,26
 123 155 123 155 122 162.5 c 128,-1,27
 121 170 121 170 121 185 c 1,28,29
 119 191 119 191 119.5 200.5 c 128,-1,30
 120 210 120 210 118.5 215 c 128,-1,31
 117 220 117 220 117 225 c 2,32,-1
 120 240 l 1,33,-1
 114 266 l 2,34,35
 113 273 113 273 114 280.5 c 128,-1,36
 115 288 115 288 114.5 295 c 128,-1,37
 114 302 114 302 113 308.5 c 128,-1,38
 112 315 112 315 111 322 c 2,39,-1
 110 335 l 1,40,41
 112 345 112 345 109.5 361 c 128,-1,42
 107 377 107 377 107 384 c 2,43,-1
 102 432 l 1,44,-1
 101 443 l 1,45,-1
 103 460 l 1,46,47
 103 473 103 473 101 485 c 1,48,-1
 102 501 l 1,49,50
 97 515 97 515 98 519 c 128,-1,51
 99 523 99 523 99 529.5 c 128,-1,52
 99 536 99 536 97 544 c 2,53,-1
 93 570 l 2,54,55
 93 576 93 576 92 582 c 1,56,57
 94 600 94 600 90 616 c 2,58,-1
 87 630 l 1,59,-1
 89 644 l 1,60,-1
 87 678 l 1,61,62
 85 688 85 688 85 699.5 c 128,-1,63
 85 711 85 711 86.5 718 c 128,-1,64
 88 725 88 725 83 733 c 1,65,66
 88 741 88 741 85.5 748 c 128,-1,67
 83 755 83 755 86 766 c 1,68,69
 81 773 81 773 80 775.5 c 128,-1,70
 79 778 79 778 67 778 c 2,71,-1
 53 779 l 1,72,73
 49 778 49 778 45.5 776.5 c 0,74,75
 32.1363636364 770.772727273 32.1363636364 770.772727273 1 777 c 1,76,77
 0 788 0 788 0 798.5 c 128,-1,78
 0 809 0 809 11 814 c 1,79,80
 23 818 23 818 31 817.5 c 128,-1,81
 39 817 39 817 52 820 c 128,-1,82
 65 823 65 823 80 823 c 1,83,84
 93 819 93 819 99 822 c 1,85,86
 106 822 106 822 110.5 820.5 c 128,-1,87
 115 819 115 819 124.5 820.5 c 128,-1,88
 134 822 134 822 140 820.5 c 128,-1,89
 146 819 146 819 150.5 819.5 c 128,-1,90
 155 820 155 820 160 822 c 128,-1,91
 165 824 165 824 168.5 825.5 c 128,-1,92
 172 827 172 827 181.5 826.5 c 128,-1,93
 191 826 191 826 195.5 825.5 c 128,-1,94
 200 825 200 825 204 825 c 2,95,-1
 210 825 l 2,96,97
 211 825 211 825 253 819 c 1,98,-1
 269 820 l 1,99,100
 289 818 289 818 312 814 c 1,101,102
 325 814 325 814 331.5 810.5 c 128,-1,103
 338 807 338 807 344.5 805.5 c 128,-1,104
 351 804 351 804 356.5 804 c 128,-1,105
 362 804 362 804 369.5 801 c 128,-1,106
 377 798 377 798 389.5 789 c 128,-1,107
 402 780 402 780 407 779.5 c 128,-1,108
 412 779 412 779 416.5 777 c 128,-1,109
 421 775 421 775 425 770 c 128,-1,110
 429 765 429 765 434 765 c 1,111,112
 443 746 443 746 466 737 c 1,113,114
 470 728 470 728 475 726 c 1,115,116
 478 720 478 720 480 719.5 c 128,-1,117
 482 719 482 719 485.5 714.5 c 128,-1,118
 489 710 489 710 494 706 c 1,119,-1
 503 696 l 2,120,121
 512 687 512 687 514.5 680.5 c 128,-1,122
 517 674 517 674 523.5 667 c 128,-1,123
 530 660 530 660 532.5 655.5 c 128,-1,124
 535 651 535 651 534.5 647 c 128,-1,125
 534 643 534 643 536 640 c 256,126,127
 543.818181818 628.272727273 543.818181818 628.272727273 544.409090909 624.136363636 c 128,-1,128
 545 620 545 620 547 616 c 128,-1,129
 549 612 549 612 551 610 c 128,-1,130
 553 608 553 608 554 605 c 2,131,-1
 557 590 l 2,132,133
 558 586 558 586 558 582.5 c 128,-1,134
 558 579 558 579 560 573.5 c 128,-1,135
 562 568 562 568 564 561.5 c 128,-1,136
 566 555 566 555 565.5 548.5 c 128,-1,137
 565 542 565 542 569.5 535 c 128,-1,138
 574 528 574 528 575 514.5 c 128,-1,139
 576 501 576 501 579 489 c 1,140,141
 575 484 575 484 575 479.5 c 128,-1,142
 575 475 575 475 576 470 c 128,-1,143
 577 465 577 465 576.5 462 c 128,-1,144
 576 459 576 459 578 445 c 128,-1,145
 580 431 580 431 572 399 c 128,-1,146
 564 367 564 367 561 361.5 c 128,-1,147
 558 356 558 356 558.5 350.5 c 128,-1,148
 559 345 559 345 554 336 c 128,-1,149
 549 327 549 327 548 322 c 128,-1,150
 547 317 547 317 542 312 c 1,151,152
 536 302 536 302 534 301 c 128,-1,153
 532 300 532 300 528.5 292 c 128,-1,154
 525 284 525 284 521 281 c 128,-1,155
 517 278 517 278 515 275 c 1,156,157
 514 269 514 269 514 264.5 c 128,-1,158
 514 260 514 260 511 258 c 1,159,160
 511 252 511 252 505.5 253 c 0,161,162
 495.126582278 254.886075949 495.126582278 254.886075949 492 233 c 1,163,164
 482 225 482 225 479 225.5 c 128,-1,165
 476 226 476 226 474 223.5 c 128,-1,166
 472 221 472 221 470.5 216.5 c 128,-1,167
 469 212 469 212 467 209 c 1,168,169
 459 207 459 207 453.5 203 c 128,-1,170
 448 199 448 199 440 197 c 1,171,172
 437 194 437 194 434 190 c 128,-1,173
 431 186 431 186 428 184 c 1,174,175
 420 182 420 182 417.5 179 c 128,-1,176
 415 176 415 176 413 174 c 1,177,178
 404 174 404 174 397.5 170 c 0,179,180
 372.301369863 154.493150685 372.301369863 154.493150685 356 151 c 1,181,182
 351 145 351 145 343 143.5 c 128,-1,183
 335 142 335 142 330 135 c 1,184,185
 325 137 325 137 322.5 136 c 128,-1,186
 320 135 320 135 317 135 c 1,187,188
 315 132 315 132 307.5 129 c 128,-1,189
 300 126 300 126 297.5 123 c 0,190,191
 291.666666667 116 291.666666667 116 279.333333333 115 c 128,-1,192
 267 114 267 114 252 104 c 1,193,194
 220.714285714 93.5714285714 220.714285714 93.5714285714 215 89 c 1,195,-1
 200 90 l 1,196,197
 195 85 195 85 187 83 c 128,-1,198
 179 81 179 81 173 77 c 1,0,-1
405 250.5 m 1,199,-1
 416 261 l 2,200,201
 416 262 416 262 422 267 c 128,-1,202
 428 272 428 272 429 276 c 128,-1,203
 430 280 430 280 432.5 284.5 c 128,-1,204
 435 289 435 289 438.5 293 c 128,-1,205
 442 297 442 297 446 305 c 128,-1,206
 450 313 450 313 453 318 c 128,-1,207
 456 323 456 323 457.5 329.5 c 128,-1,208
 459 336 459 336 460.5 340.5 c 128,-1,209
 462 345 462 345 463.5 352.5 c 0,210,211
 470.666666667 388.333333333 470.666666667 388.333333333 476 391 c 1,212,213
 477 404 477 404 480 423 c 1,214,-1
 478 434 l 1,215,216
 481 446 481 446 481 449 c 2,217,-1
 478 471 l 1,218,-1
 480 485 l 1,219,220
 478 493 478 493 477.5 502 c 128,-1,221
 477 511 477 511 475.5 516.5 c 128,-1,222
 474 522 474 522 475.5 524 c 128,-1,223
 477 526 477 526 476 531.5 c 128,-1,224
 475 537 475 537 475 540 c 2,225,-1
 475 548 l 2,226,227
 475 556 475 556 470 569.5 c 128,-1,228
 465 583 465 583 465 590.5 c 128,-1,229
 465 598 465 598 464 601.5 c 128,-1,230
 463 605 463 605 462 609 c 128,-1,231
 461 613 461 613 458.5 621 c 128,-1,232
 456 629 456 629 453.5 633 c 128,-1,233
 451 637 451 637 448.5 644.5 c 128,-1,234
 446 652 446 652 443.5 655.5 c 128,-1,235
 441 659 441 659 442 664 c 1,236,237
 432 668 432 668 424.5 683 c 128,-1,238
 417 698 417 698 407 705 c 1,239,240
 407 710 407 710 405.5 713.5 c 128,-1,241
 404 717 404 717 403 720 c 1,242,243
 393 725 393 725 388 736 c 1,244,245
 382 738 382 738 378 741 c 128,-1,246
 374 744 374 744 369 746 c 1,247,248
 362 753 362 753 349 753 c 1,249,250
 340 766 340 766 332 769.5 c 128,-1,251
 324 773 324 773 321 769 c 1,252,253
 311 773 311 773 304 771.5 c 0,254,255
 292.130434783 768.956521739 292.130434783 768.956521739 277 774 c 128,-1,256
 262 779 262 779 240 779 c 1,257,-1
 226 780 l 2,258,259
 215 780 215 780 208.5 779 c 128,-1,260
 202 778 202 778 193 777 c 1,261,262
 191 770 191 770 184.5 769.5 c 128,-1,263
 178 769 178 769 176 762 c 1,264,265
 173 758 173 758 174.5 753.5 c 0,266,267
 186.384615385 717.846153846 186.384615385 717.846153846 177 685 c 1,268,269
 182 680 182 680 181 673 c 128,-1,270
 180 666 180 666 181 660.5 c 128,-1,271
 182 655 182 655 183 652 c 128,-1,272
 184 649 184 649 185 641.5 c 128,-1,273
 186 634 186 634 186 623 c 128,-1,274
 186 612 186 612 187.5 603.5 c 128,-1,275
 189 595 189 595 191 588.5 c 128,-1,276
 193 582 193 582 194 575 c 128,-1,277
 195 568 195 568 194.5 562.5 c 128,-1,278
 194 557 194 557 196.5 549 c 128,-1,279
 199 541 199 541 198.5 536.5 c 128,-1,280
 198 532 198 532 198.5 527 c 128,-1,281
 199 522 199 522 199.5 516 c 128,-1,282
 200 510 200 510 202 505 c 256,283,284
 204 500 204 500 205 494 c 128,-1,285
 206 488 206 488 208 483 c 1,286,287
 206 475 206 475 207 467.5 c 128,-1,288
 208 460 208 460 208 458 c 2,289,-1
 208 444 l 1,290,291
 215 406 215 406 215 397 c 128,-1,292
 215 388 215 388 214 384 c 1,293,294
 218 370 218 370 221 342 c 1,295,-1
 219 312 l 1,296,297
 222 302 222 302 221 299 c 128,-1,298
 220 296 220 296 221 289 c 128,-1,299
 222 282 222 282 221 276.5 c 128,-1,300
 220 271 220 271 222 258.5 c 128,-1,301
 224 246 224 246 224 245 c 2,302,-1
 222 230 l 2,303,304
 221 226 221 226 222.5 221.5 c 128,-1,305
 224 217 224 217 222.5 207 c 128,-1,306
 221 197 221 197 221 194 c 2,307,-1
 222 182 l 1,308,-1
 220 168 l 2,309,310
 220 163 220 163 222 156 c 128,-1,311
 224 149 224 149 222 141 c 1,312,313
 238 141 238 141 258.5 153 c 128,-1,314
 279 165 279 165 281.5 164.5 c 128,-1,315
 284 164 284 164 290.5 168.5 c 128,-1,316
 297 173 297 173 299.5 172.5 c 128,-1,317
 302 172 302 172 309.5 176.5 c 128,-1,318
 317 181 317 181 321 182.5 c 128,-1,319
 325 184 325 184 331.5 189.5 c 128,-1,320
 338 195 338 195 339.5 194.5 c 0,321,322
 341.642857143 193.785714286 341.642857143 193.785714286 352 200 c 1,323,324
 368 213 368 213 373.5 217 c 128,-1,325
 379 221 379 221 380.5 223 c 128,-1,326
 382 225 382 225 385.5 228 c 128,-1,327
 389 231 389 231 391 235.5 c 128,-1,328
 393 240 393 240 396 244 c 1,329,330
 405 249 405 249 405 250.5 c 1,199,-1
EndSplineSet
EndChar

